<?xml version="1.0" encoding="utf-8"?>
<!-- Generator: Adobe Illustrator 26.2.1, SVG Export Plug-In . SVG Version: 6.00 Build 0)  -->
<svg version="1.1" id="Layer_1" xmlns="http://www.w3.org/2000/svg" xmlns:xlink="http://www.w3.org/1999/xlink" x="0px" y="0px"
	 viewBox="0 0 266.2 360.9" style="enable-background:new 0 0 266.2 360.9;" xml:space="preserve">
<style type="text/css">
	.st0{fill:#EA1F26;}
	.st1{fill:#20B050;}
	.st2{fill:#F48222;}
	.st3{fill:#398CC8;}
	.st4{fill:#FBDA1E;}
	.st5{fill:#FDFDFC;}
</style>
<g id="a">
</g>
<path class="st0" d="M171.1,6.9c4.1-3.1,8.6-5.5,13.5-6.9h8.7c11.8,3.5,19.3,12,25.4,22.1c-2.9,1.7-4.8,1.2-6.7-1.8
	c-3.7-5.9-8.5-11-15-13.9c-6.6-3-13-2.6-19,1.7c-2,0.7-3.5,2.3-5,3.7c-4.3,3.9-8,8.3-10.3,13.7c-1.3,1-1.6,2.5-2.3,3.8
	c-0.9,0.8-1.2,2-1.6,3.1c-0.9,1.5-1.8,3.2-2.2,4.9c-4.9,10.3-7.9,21.2-10.5,32.3c-2.8,12.2-4.7,24.6-5.8,37
	c-0.1,1.2,0.8,3.3-1.7,3.6c-3,0.4-3.3,0-3-3.5C138,83.2,142.3,60.1,151,38c0.7-1.6,1.4-3.3,2.1-4.9c0.8-1.7,1.7-3.4,2.5-5.1
	c0.8-1.4,1.6-2.9,2.4-4.3c2.8-4.3,5.6-8.6,9-12.5C168.3,9.8,169.7,8.4,171.1,6.9L171.1,6.9z"/>
<path class="st0" d="M105.1,155.4c2.7-0.9,5.4-1.2,8.2-1.2c15.9,0.1,31.9,0,47.9,0c10,0,17.1,6.9,17.2,16.9
	c0.1,27.1,0.1,54.1,0,81.2c0,4.5-2.5,7.6-6.5,8.2c-3.4,0.5-6.9-1.6-8.1-5c-0.4-1.2-0.3-2.4-0.3-3.7c0-21.4,0-42.7,0-64.1
	c0-0.8,0-1.7,0-2.5c0-1.7-0.8-2.9-2.5-2.9s-2.6,1.1-2.5,2.9c0,0.8,0,1.7,0,2.5c-0.1,53.9-0.2,107.8-0.2,161.7c0,3.2-0.4,6.2-2.9,8.5
	c-3,2.8-6.5,3.6-10.3,2c-3.6-1.5-5.8-4.4-5.8-8.4c-0.1-5.5,0-11,0-16.5c0-26.3,0-52.7,0-79c0-0.8,0.1-1.7,0-2.5
	c-0.2-1.5-0.9-2.6-2.5-2.6s-2.4,1-2.6,2.5c-0.1,1-0.1,2.1-0.1,3.1c0,31.2,0,62.4,0,93.6c0,7.6-6.1,12.3-12.8,9.9
	c-3.6-1.3-5.7-4-6.2-7.8c-0.1-1.1-0.1-2.3-0.1-3.4c0-53.8,0.1-107.6,0.1-161.4c0-2.1,0.7-5-2.5-5s-2.6,2.9-2.6,5c0,21.7,0,43.3,0,65
	c0,3.2-1.1,5.7-3.9,7.2c-2.6,1.5-5.2,1.2-7.7-0.3c-2.5-1.6-3.3-4-3.3-6.9c0.1-25.4,0-50.8,0-76.2c0-1.2-0.1-2.5-0.1-3.7
	C94.8,164.6,98.1,158.9,105.1,155.4L105.1,155.4z"/>
<path class="st1" d="M215.6,204.2c0-19.2,0-38.4,0-57.5c0-0.8,0.1-1.7-0.1-2.5c-0.1-0.9-0.7-1.6-1.7-1.6c-1.1,0-1.7,0.7-1.8,1.7
	c-0.1,0.8-0.1,1.7-0.1,2.5c0,15.2,0,30.5,0,45.7c0,2.5-0.9,4.4-3.3,5.5c-2.2,0.9-4.1,0.4-5.8-1.1c-1.4-1.2-1.6-2.8-1.6-4.5
	c0-19.5,0-39,0-58.5c0-6.1,4.8-11.3,10.9-11.4c12.5-0.2,25.1-0.2,37.6,0c6.3,0.1,11,5.2,11.1,12c0.1,19.3,0.1,38.6,0,57.8
	c0,3.8-2.4,6.2-5.6,6.1c-3.1-0.1-5.1-2.4-5.1-6.2c0-14.8,0-29.6,0-44.5c0-0.6,0-1.2,0-1.9c-0.1-1.4,0.2-3.3-1.9-3.3
	c-2.1,0-1.7,2-1.7,3.4c-0.1,38.2-0.2,76.5-0.2,114.8c0,6.2-2.2,9.2-6.7,9.2c-4.6,0.1-6.9-3-6.9-9.3c0-21.2,0-42.5,0-63.8
	c0-0.4,0-0.8,0-1.2c-0.2-1.5,0.6-3.9-1.8-3.9c-2.6-0.1-1.7,2.4-1.7,3.8c-0.1,21.8,0,43.6,0,65.3c0,0.9,0.1,1.9-0.1,2.8
	c-0.5,3.9-3.5,6.5-7.2,6.3c-3.8-0.2-6.4-3.1-6.4-7.3C215.6,243.2,215.6,223.7,215.6,204.2L215.6,204.2z"/>
<path class="st2" d="M14.2,214.9c0-19.1,0-38.2,0-57.2c0-0.7,0-1.4,0-2.2c0-1.3-0.5-2.4-1.9-2.3c-1.2,0-1.7,1-1.7,2.2
	c0,0.7,0,1.4,0,2.2c0,15.1,0,30.3,0,45.4c0,4.8-4,7.5-7.9,5.3c-1.8-1-2.7-2.5-2.7-4.6c0-20-0.1-40,0-60c0-5.5,5-10.5,10.7-10.6
	c12.6-0.2,25.3-0.2,37.9,0c6.1,0.1,10.8,5.2,10.9,11.8c0.2,19.4,0.1,38.8,0,58.1c0,3.6-2.4,5.9-5.5,5.9c-3.2,0-5.2-2.3-5.2-6
	c0-15.1,0-30.3,0-45.4c0-1.6,0.7-4.2-1.8-4.3c-2.7-0.1-1.8,2.6-1.8,4.1c-0.1,38.4-0.2,76.7-0.3,115c0,4.4-1.5,6.8-4.7,7.8
	c-4,1.3-8.2-1.3-8.7-5.5c-0.1-1.1-0.1-2.3-0.1-3.4c0-21.5,0-42.9,0-64.4c0-0.7,0-1.4,0-2.2c0-1.3-0.3-2.6-2-2.6
	c-1.5,0.1-1.6,1.4-1.6,2.5c0,4.9,0,9.7,0,14.6c0,17.6,0,35.2,0,52.9c0,3.1-0.7,5.8-3.6,7.4c-4.8,2.7-10.1-0.6-10.1-6.3
	c0-16.2,0-32.3,0-48.5C14.2,221.6,14.2,218.3,14.2,214.9L14.2,214.9z"/>
<path class="st3" d="M81.2,128.2c0-15.8-0.1-31.5-0.1-47.2c0-0.5,0-1,0-1.6c0-0.8-0.2-1.5-1.1-1.6c-1,0-1.4,0.7-1.4,1.6
	c0,0.8,0,1.7,0,2.5c0,11.2,0,22.4,0,33.6c0,2-0.3,3.7-2.2,4.7c-2.8,1.4-5.9-0.5-5.9-3.9c-0.1-7.4,0-14.7,0-22.1c0-7.6,0-15.1,0-22.7
	c0-5.6,3.6-9.3,9.3-9.4c9.1-0.1,18.2-0.1,27.3,0c5.3,0,9.2,3.7,9.2,8.9c0.1,15,0.1,30.1,0,45.1c0,2.8-1.8,4.5-4.1,4.5
	c-2.5,0-4.1-1.7-4.1-4.8c0-11.1,0-22.2,0-33.3c0-0.4,0.1-0.8,0-1.2c-0.2-1.3,0.6-3.5-1.4-3.5c-2.2,0-1.4,2.2-1.4,3.4
	c0,15.8,0,31.5,0,47.3c-3.6,0-7.1,0.1-10.6,0.1c0-3.6,0-7.2,0-10.8c0-1.1,0-2.3-1.4-2.3c-1.3,0-1.5,1.2-1.5,2.3c0,3.6,0,7.2,0,10.9
	C88.2,128.9,84.7,128.9,81.2,128.2z"/>
<path class="st4" d="M189.6,113.9c0-16-0.1-32,0-48.1c0-5.3,3.2-9,9.5-11.2c10.7,11.1,18,24.1,21.8,39c-3,3-5,6.4-5.3,10.8
	c-3.9,1.5-7.8,3.1-11.7,4.6c0-10.3-0.1-20.7-0.1-31.1c0-1.5,0.1-3.2-1.9-3.3c-1.8,0-1.8,1.7-1.8,3c0,10.9,0,21.8,0.1,32.6
	C196.8,111.8,193.3,113.2,189.6,113.9L189.6,113.9z"/>
<path class="st0" d="M136.9,112.6c10.2,0,18.5,8.4,18.4,18.6c-0.1,10.3-8.3,18.4-18.7,18.3c-10.3,0-18.5-8.1-18.5-18.5
	C118.1,120.7,126.4,112.6,136.9,112.6L136.9,112.6z"/>
<path class="st4" d="M205.8,54.7c10.2,0,20.4-0.1,30.7-0.1c7.7,0,12.6,4.8,12.7,12.5c0.1,5.7,0.1,11.4,0.1,17c-3,3.2-6.7,5.4-10.2,8
	c-1.4-3.2-0.3-6.5-0.6-9.7c-0.1-1.8,0-3.5-0.1-5.3c-0.1-1.2-0.4-2.4-1.9-2.4s-1.7,1.2-1.7,2.5c0,3.6-0.1,7.2,0,10.8
	c0,1.6-0.4,2.2-2.1,2c-2.6-0.3-5.1,0-7.6,0.9C221.3,77.6,214.6,65.6,205.8,54.7L205.8,54.7z"/>
<path class="st3" d="M93.8,31.9c0.7,1.5,1.4,2.9,2.1,4.6c-2.9,0.7-5.2,0.5-6.5-2.4c-0.6-1.6-1.6-2.9-2.6-4.2c-2.1-3.4-4.8-6.2-8-8.5
	c-8.5-6.2-18.2-4.8-25.8,4.1C41.2,39.3,36.4,56,33.6,73.4c-0.8,2.2-1.3,4.5-1.2,6.9c-1.2,6.1-1.4,12.3-1.7,18.5
	c-0.2,2.9-2.2,2-3.5,2.2c-1.8,0.3-1-1.4-1-2.2c0.1-4,0.4-8,0.6-12.1c0.4-2.7,0.8-5.5,1.1-8.2c2.4-16.1,6.2-31.8,14.4-46.2
	c2.5-4.4,5.5-8.5,9.2-12c10-9.7,22.8-9.8,32.9-0.3c2.6,2.4,4.6,5.3,6.9,7.9C92.1,29.3,92.9,30.6,93.8,31.9L93.8,31.9z"/>
<path class="st1" d="M244.4,106c0,7.4-5.8,13.2-13.2,13.2c-7.5,0-13.4-5.8-13.3-13.3c0-7.5,5.9-13.2,13.5-13.1
	C238.7,92.8,244.4,98.6,244.4,106L244.4,106z"/>
<path class="st4" d="M219.3,51.2c-7.6,0-13.1-5.5-13.1-13.1c0-7.7,5.6-13.3,13.4-13.2c7.4,0,13.1,5.9,13.1,13.3
	C232.5,45.7,226.8,51.2,219.3,51.2z"/>
<path class="st2" d="M29.7,129.6c-7.6,0-13.2-5.6-13.2-13.1c0-7.7,5.6-13.3,13.3-13.3c7.4,0,13.1,5.9,13.1,13.3
	C42.9,124,37.2,129.6,29.7,129.6L29.7,129.6z"/>
<path class="st2" d="M205.8,54.7c8.8,10.9,15.5,22.9,19.4,36.4c-1.2,1.2-2.6,2.2-4.3,2.7c-3.8-15-11.1-28-21.8-39
	c-7.2-8.1-15.4-15-25.5-19.3c-2.1-2.1-4.8-2.9-7.5-3.8c-1.7-1.2-3.8-1.5-5.6-2.4c0.7-1.3,1-2.8,2.3-3.8c4.1,1,7.8,3,11.6,4.7
	c0.9,0.4,1.9,0.7,2.8,1.1c2.1,1.9,4.6,3.1,6.9,4.4C192.1,41.1,199.3,47.5,205.8,54.7L205.8,54.7z"/>
<path class="st2" d="M86.7,29.9c1.1,1.3,2.1,2.6,2.6,4.2c-10.6,5-19.7,12-27.7,20.6c-0.6,0.7-2,1.2-1.4,2.6l0,0
	c-0.8-0.7-1,0.1-1.3,0.5c-2.3,2.5-4.5,5-6,8.1C45.5,76.1,41,87.6,38.4,99.8c-0.7,3.2-1.1,3.3-3.9,1.8c-1.4-0.7-0.9-1.6-0.7-2.6
	c1.6-7.9,4.1-15.6,7.6-22.9c0.4-0.9,1.3-1.7,0.8-2.8l0,0c0.7,0.2,0.6-0.3,0.6-0.7c1.7-2.5,3.7-4.9,4.4-8h-0.1c0.6,0.2,0.7-0.3,1-0.6
	c3.7-5,7.4-9.9,11.8-14.4C67.8,41.6,76.9,35.4,86.7,29.9L86.7,29.9z"/>
<path class="st3" d="M91.7,133.9c0,12,0,24-0.1,36c0,4.6-3.5,7.1-7.3,5.5c-2.4-1-3.1-3.1-3.1-5.5c0-12.2,0-24.4,0-36.6
	C84.7,133.1,88.2,132.9,91.7,133.9L91.7,133.9z"/>
<path class="st1" d="M239.1,92.2c3.4-2.6,7.2-4.8,10.2-8c4.1-3.1,7.3-7,9.8-11.5c4.3-7.8,3-15.3-3.7-21.2
	c-5.1-4.5-11.2-7.4-17.7-9.2c-2.6-0.7-2.7-2.2-2.6-4.3c0.1-1.2,0.5-1.3,1.6-1c8.4,2.6,16.4,5.8,22.8,12c7.4,7.1,8.7,16.6,3.7,25.8
	c-3.5,6.4-8.8,11.2-14.1,16c-2,1.5-4.1,2.9-6.1,4.4L239.1,92.2L239.1,92.2z"/>
<path class="st4" d="M171.1,6.9c-1.4,1.4-2.8,2.8-4.2,4.2c-13.7-1.5-26.4,1.5-38.2,8.7c-2.9,1-5.3,2.8-7.5,4.9
	c-0.8,0.5-1.6,0.9-2.3,1.5c-5.7,4.5-10.5,9.8-14.8,15.5v0.1c-3.9-2.6-4-2.6-1.2-6c2.5-3.1,5.1-6,7.7-9.1c2.9-1.5,5.1-3.9,7.5-6.1
	c6.3-4.1,12.7-8,19.9-10.5C148.8,6.5,159.8,5.1,171.1,6.9L171.1,6.9z"/>
<path class="st1" d="M91.7,133.9c-3.4-1-6.9-0.7-10.4-0.6c-11.7-1.1-23.5-2.2-34.9-5.6c-0.4-0.1-0.9-0.1-1.2-0.3
	c-0.7-0.7-3,0.2-2.3-1.8c0.5-1.5,0.9-3.5,3.8-2.6c10.5,3.3,21.4,4.8,32.4,5.4c0.7,0,1.4-0.1,2.2-0.1c3.4,0.7,6.9,0.7,10.4,0.5
	c0.9,0,1.9,0,2.8,0c3.6,0,7.1-0.1,10.6-0.1c3-0.1,5.9-0.3,8.9-0.4c0.9,0,2.4-0.5,2,1.3c-0.3,1.2,0.7,3.1-1.7,3.3
	c-3.1,0.2-6.1,0.4-9.2,0.6c-3.6-0.4-7.1,0.6-10.7,0.5L91.7,133.9L91.7,133.9z"/>
<path class="st3" d="M103.3,49.4c0,5.8-4.4,10.3-10.2,10.2c-5.6,0-10.3-4.7-10.3-10.3s4.6-10.2,10.3-10.2
	C99,39.2,103.3,43.5,103.3,49.4L103.3,49.4z"/>
<path class="st1" d="M203.9,109.2c3.9-1.5,7.8-3.1,11.7-4.6c0.1,1.6,0.3,3.2,0.5,4.8c-4.1,1.7-8.2,3.4-12.2,5.1
	c-1.3,0.2-2.5,0.6-3.6,1.3c-3.5,1.1-7.1,2.3-10.6,3.4c-9.9,2.7-19.7,5.3-29.7,7.5c-2.9,0.7-3.1-1-3.6-2.8c-0.6-2.4,1.6-1.6,2.6-1.8
	c10.4-2.3,20.7-4.5,30.7-8.1c3.6-0.8,7.1-2.1,10.6-3.4C201.5,110.1,202.7,109.6,203.9,109.2L203.9,109.2z"/>
<path class="st3" d="M94.4,133.8c3.6,0.1,7.1-0.9,10.7-0.5c0,7.4,0,14.7,0,22.1c-7,3.5-10.3,9.2-10.1,17.1c-0.9-1.1-0.5-2.4-0.5-3.6
	C94.5,157.2,94.5,145.5,94.4,133.8z"/>
<path class="st1" d="M104.2,41.9L104.2,41.9c1.1,0.1,2.2-0.3,3.3-0.6c15-3.7,30.2-6.6,45.5-8.2c-0.7,1.6-1.4,3.3-2.1,4.9
	c-14.2,1.6-28.3,4.3-42.2,7.8C105.1,46.7,104.2,46,104.2,41.9L104.2,41.9z"/>
<path class="st4" d="M173,11.7c1.5-1.4,3-3,5-3.7c11.2,3,21.4,8.1,30.2,15.8c0.7,0.6,2.8,1.1,0.8,2.7c-1.1,0.9-1.6,2.8-3.8,0.9
	C195.9,19.3,185.2,14,173,11.7z"/>
<path class="st4" d="M203.8,114.5c4.1-1.7,8.2-3.4,12.2-5.1c1,4.2,3.6,7.3,7.5,10.1c-6.8,1.1-13.8-1.4-19.8,4L203.8,114.5
	L203.8,114.5z"/>
<path class="st1" d="M53,65.9c1.5-3.1,3.8-5.6,6-8.1c0.6,0.2,1.1,0.2,1.3-0.5l0,0c5.6-2.2,11.2-4.5,16.9-6.5
	c0.9-0.3,2.6-2.5,3.4,0.3c0.6,1.8,0.8,3.2-1.8,4.1c-8.1,2.8-15.9,6.2-23.5,10.2C54.6,65.7,53.9,66.2,53,65.9L53,65.9z"/>
<path class="st4" d="M243,95.2c2-1.5,4.1-2.9,6.1-4.4c0,8.9,0,17.8,0.1,26.7c0,1.8-0.5,2.4-2.3,2.3c-2.6-0.1-5.1,0-8.6,0
	c4.5-3.3,7.4-6.8,8.3-11.6C247.5,103.3,245.9,99.1,243,95.2L243,95.2z"/>
<path class="st4" d="M189.6,119.2c3.5-1.1,7.1-2.3,10.6-3.4c0,3.1,0.1,6.2,0,9.3c-0.1,3.4-2.2,5.6-5.3,5.6s-5.2-2.2-5.3-5.6
	C189.6,123.1,189.6,121.1,189.6,119.2L189.6,119.2z"/>
<path class="st1" d="M27.9,78.6c-0.4,2.7-0.8,5.5-1.1,8.2c-4,4.5-6.6,9.5-5.9,15.7c0.3,2.6-2.7,2.5-3.1,4.9
	C13.7,98.9,18,87.4,27.9,78.6L27.9,78.6z"/>
<path class="st1" d="M184.1,35.6c-2.4-1.3-4.9-2.5-6.9-4.4c8.6-0.1,17.1-0.4,25.6,0.4c0.7,0.1,2.6-0.7,2.1,1.1
	c-0.3,1.3,0.1,3.6-2.6,3.4c-3.8-0.3-7.6-0.4-11.4-0.5C188.7,35.5,186.4,35.6,184.1,35.6L184.1,35.6z"/>
<path class="st2" d="M118.1,20.7c-2.4,2.2-4.6,4.6-7.5,6.1c-5.9,0.7-11.4,3-16.9,5.1c-0.8-1.3-1.6-2.6-2.4-3.8
	C99.9,24.2,108.8,21.7,118.1,20.7z"/>
<path class="st1" d="M47.3,64.7c-0.7,3.1-2.7,5.5-4.4,8c-0.3,0.1-0.7,0.2-0.6,0.7l0,0c-3.9,1.5-6.5,4.7-9.9,6.9
	c-0.1-2.4,0.4-4.7,1.2-6.9C38.1,70.4,42.2,66.9,47.3,64.7z"/>
<path class="st1" d="M166,31.7c2.7,0.9,5.4,1.7,7.5,3.8c-1.7,1.3-3.7,0.5-5.6,0.7c-3.8,0.5-7.6,0.7-11.4,1c0.4-1.8,1.2-3.4,2.2-4.9
	C161.2,32.1,163.6,31.9,166,31.7L166,31.7z"/>
<path class="st4" d="M206.2,200.6c2.9-0.2,4.9-1.2,6.9-3.4c-0.1,2.1,0.9,3.9-0.7,4.7C210.6,202.8,208.5,202.2,206.2,200.6z"/>
<path class="st2" d="M128.7,19.9c9.9-0.2,19.6,1.1,29.2,3.8c-0.8,1.4-1.6,2.9-2.4,4.3c-9.8-3-19.8-4-30-3.5
	c-1.4,0.1-2.9,0.2-4.3,0.3C123.4,22.6,125.8,20.9,128.7,19.9L128.7,19.9z"/>
<path class="st5" d="M166,31.7c-2.4,0.2-4.9,0.4-7.3,0.6c0.4-1.1,0.7-2.2,1.6-3.1C162.2,30.1,164.3,30.4,166,31.7z"/>
<path class="st5" d="M94.5,128.7c-0.9,0-1.9,0-2.8,0c0-3.6,0-7.2,0-10.8c0-1.1,0.1-2.3,1.5-2.3s1.4,1.3,1.4,2.3
	C94.5,121.5,94.5,125.1,94.5,128.7L94.5,128.7z"/>
<path class="st5" d="M203.9,109.2c-1.2,0.4-2.4,0.9-3.7,1.3c0-10.9,0-21.8-0.1-32.6c0-1.4-0.1-3.1,1.8-3c2,0,1.9,1.8,1.9,3.3
	C203.8,88.5,203.9,98.8,203.9,109.2z"/>
<path class="st5" d="M60.3,57.2C60.2,58,59.6,58,59,57.8C59.3,57.3,59.5,56.6,60.3,57.2z"/>
<path class="st1" d="M47.2,64.7c0.3-0.2,0.6-0.4,1-0.6C47.9,64.4,47.8,64.9,47.2,64.7z"/>
<path class="st5" d="M42.2,73.4c-0.1-0.5,0.3-0.6,0.6-0.7C42.9,73.1,43,73.6,42.2,73.4z"/>
</svg>
