<?xml version="1.0" encoding="UTF-8"?><svg xmlns="http://www.w3.org/2000/svg" viewBox="0 0 1102.82 889.25"><defs><style>.d{fill:#202020;}</style></defs><g id="a"/><g id="b"><g id="c"><path d="M897.79,226.69c-.03-4.3,.57-8.51,1.89-12.59,.29-.91,.21-1.52-.4-2.25-8.16-9.66-11.68-20.86-10.47-33.4,.89-9.17,4.46-17.34,10.45-24.38,6.3-7.4,14.2-12.18,23.66-14.46,.57-.14,1.19-.89,1.42-1.5,2.59-6.88,6.48-12.88,11.95-17.82,7.07-6.39,15.32-10.2,24.82-11.27,9.93-1.12,19.31,.63,27.83,5.84,3.51,2.14,6.47,5.16,9.74,7.72,.52,.41,1.38,.73,2,.62,18.13-3.38,36.57,4.89,46.05,20.75,6.7,11.2,8.33,23.09,4.61,35.63-.28,.94-.07,1.53,.52,2.23,8.09,9.63,11.61,20.78,10.43,33.25-.85,9-4.31,17.07-10.11,24.05-6.28,7.56-14.22,12.51-23.81,14.71-.96,.22-1.33,.73-1.63,1.56-3.01,8.33-8.01,15.23-15.1,20.55-9.31,6.98-19.81,9.81-31.37,8.72-10.96-1.04-20.18-5.68-27.76-13.6-.65-.68-1.23-.86-2.17-.7-14.82,2.5-27.85-1.31-38.74-11.65-9.1-8.64-13.56-19.46-13.78-32.01Zm69.73-3.22c-2.16-1.21-4.11-2.27-6.03-3.38-11.96-6.92-23.88-13.88-35.87-20.74-2.67-1.53-3.93-3.53-3.91-6.65,.08-12.9,.03-25.8,.03-38.7,0-.59,0-1.17,0-1.98-5.58,1.98-9.99,5.1-13.57,9.32-6.65,7.85-9.23,16.93-7.56,27.12,1.57,9.56,6.42,17.19,14.61,22.21,11.59,7.11,23.49,13.7,35.23,20.56,1.37,.8,2.48,.9,3.81-.04,1.22-.87,2.59-1.53,3.89-2.29,3.04-1.76,6.08-3.53,9.36-5.43Zm61.73,18.12c5.14-1.8,9.33-4.62,12.78-8.43,7.12-7.85,10.02-17.07,8.43-27.61-1.47-9.77-6.49-17.29-14.68-22.69-3.07-2.02-6.34-3.75-9.52-5.59-8.76-5.07-17.54-10.12-26.29-15.22-.94-.55-1.67-.51-2.58,.03-3.66,2.17-7.36,4.28-11.05,6.42-.86,.5-1.71,1-2.8,1.64,2.19,1.24,4.1,2.28,5.98,3.37,12.09,6.99,24.17,13.99,36.26,20.97,2.32,1.34,3.51,3.16,3.49,5.94-.07,9.94-.03,19.87-.03,29.81,0,3.69,0,7.38,0,11.37Zm-119.45-20.63c-1.02,6.81-.25,13.07,2.41,19.13,7.69,17.52,29.48,24.85,46.12,15.44,4.34-2.45,8.63-4.98,12.95-7.46,7.42-4.27,14.86-8.52,22.25-12.85,.53-.31,.99-1.2,1-1.83,.08-4.89,.05-9.77,.04-14.66,0-.44-.04-.88-.07-1.54-2.55,1.45-4.94,2.79-7.31,4.16-11.6,6.71-23.2,13.41-34.78,20.14-2.39,1.39-4.68,1.4-7.07,.02-8.79-5.12-17.6-10.21-26.4-15.3-2.96-1.71-5.92-3.4-9.14-5.24Zm131.32-48.41c1.02-4.42,.65-10.46-.87-15.32-6.3-20.16-29.44-29.34-47.86-18.98-2.81,1.58-5.58,3.22-8.37,4.83-8.78,5.05-17.56,10.1-26.36,15.13-.87,.5-1.21,1.05-1.2,2.09,.07,4.32,.03,8.63,.03,12.95,0,.96,0,1.93,0,3.19,2.59-1.48,4.92-2.79,7.24-4.13,11.55-6.68,23.12-13.33,34.63-20.07,2.69-1.57,5.15-1.48,7.76,.05,8.86,5.19,17.75,10.34,26.64,15.5,2.73,1.58,5.48,3.14,8.35,4.78Zm-92.74,30.64c0-.89,0-1.45,0-2.01,.02-15.55,.05-31.11,.04-46.66,0-2.74,.98-4.73,3.45-6.13,8.89-5.06,17.73-10.22,26.59-15.34,2.95-1.71,5.89-3.42,8.96-5.2-.45-.38-.75-.66-1.07-.9-3.47-2.64-7.3-4.58-11.53-5.65-12.07-3.04-22.69-.15-31.63,8.32-6.1,5.79-9.53,13.07-9.78,21.59-.18,5.93-.11,11.86-.12,17.79-.02,8.01-.02,16.02,.02,24.03,0,.6,.19,1.5,.61,1.75,4.67,2.8,9.4,5.49,14.47,8.42Zm14.92,62.75c2.78,1.67,5.04,3.42,7.58,4.5,12.52,5.33,24.33,3.92,34.92-4.7,7.21-5.87,11.57-13.64,11.8-23.02,.34-14.14,.13-28.3,.09-42.45,0-.57-.47-1.38-.96-1.67-3.46-2.09-6.99-4.08-10.5-6.11-1.13-.65-2.26-1.29-3.64-2.08,0,1.05,0,1.72,0,2.39,0,15.45-.02,30.9,.02,46.36,0,2.69-.94,4.65-3.35,6.02-7.45,4.23-14.84,8.56-22.26,12.85-4.4,2.54-8.8,5.08-13.69,7.9Zm31.28-69.02c0-3.33-.03-6.65,.02-9.98,.01-.9-.29-1.39-1.07-1.84-5.77-3.29-11.5-6.64-17.27-9.92-.38-.22-1.11-.21-1.5,.01-5.77,3.29-11.52,6.61-17.24,9.99-.5,.3-1.02,1.08-1.02,1.64-.07,6.65-.07,13.31,0,19.96,0,.53,.45,1.27,.91,1.54,5.72,3.37,11.47,6.7,17.24,9.97,.46,.26,1.32,.26,1.78,0,5.74-3.25,11.42-6.59,17.16-9.84,.83-.47,1.01-1.01,1-1.86-.04-3.22-.01-6.45-.02-9.67Z"/><path d="M765.65,760.64c-6.25-14.05-36.75-23.35-57.02-32.08-20.26-8.73-17.5-14.02-18.23-21.26-.1-.96-.16-1.98-.2-3.02,6.08-5.81,11.07-13.37,14.41-21.98,0,0,.19-.48,.25-.63,.78-2.06,1.47-4.22,2.06-6.41,4.64-.92,7.35-5.85,8.39-10.41,1.04-1.85,3.22-6.4,2.72-11.56-.61-6.34-3.14-9.43-6.05-10.81,.78-1.86,1.51-3.78,2.1-5.69,3-9.75,.15-31.58-4.78-43.62-4.93-12.03-25.49-21.2-32.01-20.93-5.66,.23-7.71,2.76-10.23,4.52-.36-1.82-1.19-3.45-2.77-4.61-5.96-4.35-24.75-6.29-33.47,.37-8.72,6.66-10.77,10.26-17.48,19.81-6.71,9.55-8.9,32.97-8.24,37.96,.41,3.09,1.67,8.01,3.11,12.22-2.87,1.41-5.35,4.49-5.95,10.76-.5,5.16,1.67,9.71,2.72,11.56,1.05,4.64,3.83,9.66,8.63,10.45,.6,2.2,1.3,4.37,2.08,6.45,.05,.14,.11,.27,.16,.4l.07,.18c3.41,8.78,8.54,16.48,14.8,22.33-.04,.91-.1,1.79-.18,2.63-.73,7.24,1.4,12.53-18.86,21.26-20.27,8.73-50.78,18.03-57.03,32.08-6.25,14.05-3.75,22.32-3.75,22.32h218.51s2.52-8.27-3.73-22.32h0Z"/><path d="M307.52,590.93c-4.65-10.47-27.37-17.39-42.46-23.89-15.09-6.5-13.03-10.44-13.57-15.84-.03-.33-.06-.66-.08-1.01,3.21-2.78,6.05-6.2,8.4-10.08,9.36,2.2,19.86,2,29.04-4.64-14.65-14.65-6.36-34.16-16.94-66.53-9-27.52-45.88-26.17-50.63-16.5-19.56-6.91-34.31,2.34-39.74,31.49-6.24,33.48,2.17,37.01-12.48,51.65,10.18,5.82,19.6,5.08,27.93,2.26,2.63,4.95,6.03,9.25,9.97,12.6-.02,.26-.04,.51-.07,.76-.54,5.39,1.04,9.33-14.05,15.84-15.09,6.5-37.81,13.43-42.47,23.89-4.65,10.46-2.8,16.62-2.8,16.62h162.74s1.87-6.16-2.78-16.62h0Z"/><path d="M397.76,785.49c-4.65-10.47-27.37-17.39-42.46-23.89-15.09-6.5-13.03-10.44-13.57-15.84-.15-1.51-.2-3.21-.19-4.88,4.41-3.66,8.22-8.11,10.57-14.17,0,0,.14-.36,.19-.47,.58-1.54,.82-5.99,1.26-7.62,3.46-.68,5.48-4.36,6.25-7.75,.78-1.37,2.4-4.76,2.02-8.61-.48-4.95-2.52-7.24-4.82-8.2,0-.3,0-.58,0-.86,0-.87-.01-1.74-.04-2.6,.65-4.58,1.22-9.11,1.22-11.69,0-3.38-.73-10.07-3.02-16.22l.04,.04-3.01-6.43-.53-2.59-2.59-.73c-.14-.13-.28-.24-.43-.36,.32-.63-2.21-2.47-.04-3.21-.93-1.3-5.53-.55-5.53-.55,0,0-.69-4.47-1.81-5.07-.58,.82-2.88,.57-4.76,.42-7.12-.93-2.72-6.99-10.05-7.67,.03-2.87-.03-5.17-.03-5.17,0,0-3.73,3.12-5.1,1.9-.84-2.88,1.12-6.5,1.12-6.5,0,0-5.37,.06-6.65,5.4-1.13-1.54,.18-3.92,1.07-5.11-6.81,2.31-8.99,7.43-11.72,10.71-.36,.44-1.36-1.52-1.24-2.72-2.66,1.25-4.27,8.42-5.47,8.93-1.19,.51-3.63-1.52-3.81-2.34-2.5,.17-8.39,12.22-8.39,12.22l-5.8,5.8s2.94-.22,3.08,.84c.15,1.06-4.3,8.93-4.3,8.93,0,0,2.41-1.39,2.66-.59,.25,.79-.05,.27-.07,.4l-3.51,9.35,2.45-.94c-.3,3.42-.44,6.76-.44,9.79s.11,5.15,.29,6.98c-1.99,1.13-3.66,3.42-4.08,7.83-.37,3.85,1.25,7.23,2.02,8.61,.78,3.46,2.86,7.2,6.43,7.79,.44,1.64,1.17,5.66,1.75,7.21,.04,.1,.08,.2,.12,.3l.05,.13c2.38,6.14,6.03,10.6,10.39,14.28,.02,1.77-.03,3.58-.19,5.18-.54,5.39,1.04,9.33-14.05,15.84-15.09,6.5-37.81,13.43-42.46,23.89-4.65,10.47-2.79,16.62-2.79,16.62h162.74s1.88-6.16-2.78-16.62h0Z"/><path d="M214.73,784.61c-4.65-10.47-27.37-17.39-42.47-23.89-15.09-6.5-13.03-10.44-13.58-15.84-.01-.11-.02-.22-.03-.32,5.41-1.57,14.28-5.16,18.87-11.98,6.49-9.66,4.75-22.16,5.15-28.76,.4-6.59,.72-21.5-2.12-32.98-2.84-11.48-6.45-22.18-13.16-28.13-6.71-5.94-12.06-5.52-15.32-4.56-.26-.97-.96-2.55-2.84-3.31-2.81-1.12-17.93-4.39-32.21,3.17-14.27,7.56-20.24,22.68-23.83,36.57-3.59,13.89-5.43,29.01-2.11,46.27,2.93,15.23,16.22,20.65,23.11,22.42-.03,.55-.07,1.08-.12,1.6-.54,5.39,1.05,9.33-14.05,15.84-15.09,6.5-37.81,13.43-42.47,23.89-4.66,10.46-2.8,16.62-2.8,16.62H217.51s1.88-6.16-2.78-16.62h0Z"/><path d="M916.01,683.62c-3.83,0-7.5,1.53-10.21,4.24-2.71,2.71-4.23,6.38-4.24,10.21v57.8c0,3.83,1.53,7.5,4.24,10.21,2.71,2.71,6.38,4.23,10.21,4.24h163.78c3.83,0,7.5-1.53,10.21-4.24,2.71-2.71,4.23-6.38,4.24-10.21v-57.8c0-3.83-1.53-7.5-4.24-10.21-2.71-2.71-6.38-4.23-10.21-4.24h-1.61v-16.06h1.61c3.83,0,7.5-1.53,10.21-4.24,2.71-2.71,4.23-6.38,4.24-10.21v-57.8c0-3.83-1.53-7.5-4.24-10.21-2.71-2.71-6.38-4.23-10.21-4.24h-163.78c-3.83,0-7.5,1.53-10.21,4.24-2.71,2.71-4.23,6.38-4.24,10.21v57.8c0,3.83,1.53,7.5,4.24,10.21,2.71,2.71,6.38,4.23,10.21,4.24h1.61v16.06h-1.61Zm20.87,48.17c-1.95,0-3.7-1.17-4.45-2.97s-.33-3.87,1.04-5.25c1.38-1.38,3.45-1.79,5.25-1.04,1.8,.75,2.97,2.5,2.97,4.45,0,2.66-2.16,4.82-4.82,4.82h0Zm25.69,0c-1.95,0-3.7-1.17-4.45-2.97s-.33-3.87,1.04-5.25c1.38-1.38,3.45-1.79,5.25-1.04s2.97,2.5,2.97,4.45c0,2.66-2.16,4.82-4.82,4.82h0Zm97.95,0h-35.32c-2.66,0-4.82-2.16-4.82-4.82s2.16-4.82,4.82-4.82h35.32c2.66,0,4.82,2.16,4.82,4.82s-2.16,4.82-4.82,4.82Zm-35.32-112.39h35.32c2.66,0,4.82,2.16,4.82,4.82s-2.16,4.82-4.82,4.82h-35.32c-2.66,0-4.82-2.16-4.82-4.82s2.16-4.82,4.82-4.82Zm-62.62,0c1.95,0,3.7,1.17,4.45,2.97s.33,3.87-1.04,5.25c-1.38,1.38-3.45,1.79-5.25,1.04s-2.97-2.5-2.97-4.45c0-2.66,2.16-4.82,4.82-4.82h0Zm-25.69,0c1.95,0,3.7,1.17,4.45,2.97s.33,3.87-1.04,5.25c-1.38,1.38-3.45,1.79-5.25,1.04s-2.97-2.5-2.97-4.45c0-2.66,2.16-4.82,4.82-4.82h0Zm-9.63,48.17h141.3v16.06h-141.3v-16.06Z"/><path class="d" d="M732.74,706.36c6.36-5.1,12.35-10.61,17.99-16.45,5.64-5.84,10.92-12.01,15.81-18.47,9.79-12.91,18-27.05,24.64-41.74,6.61-14.7,11.9-30.01,15.46-45.82,1.75-7.91,3.15-15.92,3.8-24.16,.1-1.01,.15-2.08,.21-3.15l.08-1.6,.02-1.5,.05-5.95,.07-11.84c.13-31.48-.11-62.93-.22-94.34l-.06-23.56,.03-23.46,.02-3.71,9.68,.05-15.92-16.1-16.13,15.95,9.68,.05-.02,3.72-.03,23.52,.06,23.59c.12,31.45,.35,62.86,.22,94.25l-.07,11.73-.04,5.83-.02,1.45-.08,1.34c-.05,.89-.09,1.78-.18,2.73-.58,7.44-1.88,14.95-3.53,22.38-3.35,14.86-8.37,29.42-14.65,43.38-6.31,13.94-13.98,27.15-23.19,39.3-9.2,12.11-19.81,23.2-31.6,32.67l7.92,9.91Z"/><g><path d="M863.1,455.76h-10.57v5.6h12.05v3.91h-16.5v-21.77h15.96v3.85h-11.52v4.62h10.57v3.78Z"/><path d="M874.82,466.97c.76,.81,1.14,2,1.14,3.56,0,1.65-.37,2.91-1.12,3.78s-1.7,1.3-2.87,1.3c-.75,0-1.37-.19-1.86-.56-.27-.21-.53-.51-.79-.9v4.89h-2.43v-13.08h2.35v1.39c.26-.41,.54-.73,.84-.96,.54-.42,1.19-.63,1.95-.63,1.1,0,2.03,.4,2.79,1.21Zm-1.39,3.69c0-.72-.17-1.36-.5-1.92s-.87-.83-1.61-.83c-.89,0-1.5,.42-1.83,1.27-.17,.45-.26,1.02-.26,1.7,0,1.09,.29,1.86,.87,2.3,.34,.26,.75,.39,1.22,.39,.68,0,1.2-.26,1.56-.79,.36-.53,.54-1.23,.54-2.11Z"/><path d="M886.34,475.34h-2.96l-2.25-4.01-1.02,1.06v2.95h-2.41v-12.65h2.41v6.84l3.06-3.53h3.04l-3.28,3.59,3.41,5.75Z"/><path d="M892.98,471.37l-1.05-1.43c-.68-.87-1.4-2.16-2.17-3.87-1.37-3.06-2.05-6.07-2.05-9.04,0-2.7,.58-5.38,1.73-8.03,.78-1.81,1.92-3.76,3.41-5.85h3.17l-.9,1.65c-1.24,2.27-2.1,4.66-2.58,7.15-.32,1.63-.47,3.42-.47,5.35,0,3.01,.44,5.78,1.31,8.31,.51,1.5,1.42,3.42,2.72,5.76h-3.12Z"/><path d="M916.27,465.27h-5.52l-4.13-7.41-4.37,7.41h-5.29l7-11.09-6.66-10.68h5.43l3.88,7.07,3.99-7.07h5.26l-6.66,10.5,7.07,11.27Z"/><path d="M922.66,466.78c-.18,.73-.51,1.36-.99,1.89-.52,.57-1.13,1-1.84,1.29-.7,.29-1.19,.44-1.46,.44v-1.62c.85-.24,1.47-.63,1.87-1.18,.4-.55,.63-1.32,.69-2.32h-2.56v-4.4h4.55v3.81c0,.67-.09,1.37-.27,2.1Z"/><path d="M945.12,465.27h-9.38v-21.77h9.38c1.35,.02,2.47,.18,3.37,.47,1.53,.5,2.76,1.42,3.71,2.76,.76,1.08,1.27,2.25,1.55,3.51,.28,1.26,.41,2.46,.41,3.6,0,2.89-.58,5.35-1.74,7.35-1.58,2.71-4.01,4.06-7.29,4.06Zm3.38-16.22c-.7-1.18-2.08-1.77-4.15-1.77h-4.19v14.21h4.19c2.15,0,3.64-1.06,4.49-3.17,.46-1.16,.69-2.54,.69-4.15,0-2.22-.35-3.92-1.03-5.11Z"/><path d="M959.76,469.94l-1.05,1.43h-3.12c1.3-2.34,2.21-4.26,2.72-5.76,.88-2.53,1.31-5.3,1.31-8.31,0-1.93-.16-3.71-.47-5.35-.48-2.49-1.34-4.87-2.58-7.15l-.9-1.65h3.18c1.5,2.09,2.63,4.04,3.41,5.85,1.15,2.66,1.73,5.34,1.73,8.03,0,2.96-.68,5.98-2.05,9.04-.77,1.71-1.49,3-2.17,3.87Z"/></g><g><path d="M83.23,398.37h-10.57v5.6h12.05v3.91h-16.5v-21.77h15.96v3.85h-11.52v4.62h10.57v3.78Z"/><path d="M94.95,409.57c.76,.81,1.14,2,1.14,3.56,0,1.65-.37,2.91-1.12,3.78s-1.7,1.3-2.87,1.3c-.75,0-1.37-.19-1.86-.56-.27-.21-.53-.51-.79-.9v4.89h-2.43v-13.08h2.35v1.39c.26-.41,.54-.73,.84-.96,.54-.42,1.19-.63,1.95-.63,1.1,0,2.03,.4,2.79,1.21Zm-1.39,3.69c0-.72-.17-1.36-.5-1.92s-.87-.83-1.61-.83c-.89,0-1.5,.42-1.83,1.27-.17,.45-.26,1.02-.26,1.7,0,1.09,.29,1.86,.87,2.3,.34,.26,.75,.39,1.22,.39,.68,0,1.2-.26,1.56-.79,.36-.53,.54-1.23,.54-2.11Z"/><path d="M106.47,417.95h-2.96l-2.25-4.01-1.02,1.06v2.95h-2.41v-12.65h2.41v6.84l3.06-3.53h3.04l-3.28,3.59,3.41,5.75Z"/><path d="M113.11,413.98l-1.05-1.43c-.68-.87-1.4-2.16-2.17-3.87-1.37-3.06-2.05-6.07-2.05-9.04,0-2.7,.58-5.38,1.73-8.03,.78-1.81,1.92-3.76,3.41-5.85h3.17l-.9,1.65c-1.24,2.27-2.1,4.66-2.58,7.15-.32,1.63-.47,3.42-.47,5.35,0,3.01,.44,5.78,1.31,8.31,.51,1.5,1.42,3.42,2.72,5.76h-3.12Z"/><path d="M134.26,406.25c-1.62,1.49-3.7,2.23-6.23,2.23-3.13,0-5.59-1-7.38-3.01-1.79-2.02-2.69-4.78-2.69-8.3,0-3.8,1.02-6.73,3.06-8.79,1.77-1.79,4.03-2.69,6.76-2.69,3.66,0,6.34,1.2,8.03,3.6,.94,1.35,1.44,2.7,1.51,4.06h-4.55c-.29-1.04-.67-1.83-1.14-2.36-.83-.95-2.05-1.42-3.68-1.42s-2.96,.67-3.91,2c-.96,1.33-1.43,3.22-1.43,5.66s.5,4.27,1.51,5.49c1.01,1.22,2.29,1.82,3.85,1.82s2.81-.52,3.65-1.57c.46-.56,.85-1.4,1.15-2.53h4.5c-.39,2.37-1.4,4.3-3.01,5.79Z"/><path d="M150.37,408.48c-3.11,0-5.49-.85-7.13-2.54-2.21-2.08-3.31-5.07-3.31-8.98s1.1-6.98,3.31-8.98c1.64-1.69,4.02-2.54,7.13-2.54s5.49,.85,7.13,2.54c2.2,2,3.29,4.99,3.29,8.98s-1.1,6.9-3.29,8.98c-1.64,1.69-4.02,2.54-7.13,2.54Zm4.3-5.85c1.05-1.33,1.58-3.22,1.58-5.67s-.53-4.33-1.59-5.66-2.49-2-4.29-2-3.24,.66-4.31,1.99-1.61,3.22-1.61,5.67,.54,4.34,1.61,5.67,2.51,1.99,4.31,1.99,3.23-.66,4.3-1.99Z"/><path d="M168.43,407.88h-4.24v-21.77h6.62l3.96,17.12,3.93-17.12h6.54v21.77h-4.24v-14.72c0-.42,0-1.02,.01-1.78,0-.76,.01-1.35,.01-1.76l-4.12,18.27h-4.42l-4.09-18.27c0,.41,0,1,.02,1.76,0,.76,.01,1.36,.01,1.78v14.72Z"/><path d="M193.62,407.88h-4.24v-21.77h6.62l3.96,17.12,3.93-17.12h6.54v21.77h-4.24v-14.72c0-.42,0-1.02,.01-1.78,0-.76,.01-1.35,.01-1.76l-4.12,18.27h-4.42l-4.09-18.27c0,.41,0,1,.02,1.76,0,.76,.01,1.36,.01,1.78v14.72Z"/><path d="M227.53,399.49v-13.38h4.62v13.38c0,2.31-.36,4.12-1.08,5.41-1.34,2.36-3.89,3.54-7.66,3.54s-6.33-1.18-7.68-3.54c-.72-1.29-1.08-3.09-1.08-5.41v-13.38h4.62v13.38c0,1.5,.18,2.59,.53,3.28,.55,1.22,1.75,1.83,3.6,1.83s3.04-.61,3.59-1.83c.35-.69,.53-1.78,.53-3.28Z"/><path d="M254.1,407.88h-4.55l-8.89-15.46v15.46h-4.24v-21.77h4.77l8.67,15.2v-15.2h4.24v21.77Z"/><path d="M257.98,386.11h4.52v21.77h-4.52v-21.77Z"/><path d="M282.56,386.11v3.85h-6.51v17.91h-4.58v-17.91h-6.54v-3.85h17.63Z"/><path d="M302.79,386.11l-7.28,13.59v8.18h-4.55v-8.18l-7.53-13.59h5.36l4.52,9.48,4.33-9.48h5.15Z"/><path d="M322.64,407.88h-9.38v-21.77h9.38c1.35,.02,2.47,.18,3.37,.47,1.53,.5,2.76,1.42,3.71,2.76,.76,1.08,1.27,2.25,1.55,3.51,.28,1.26,.41,2.46,.41,3.6,0,2.89-.58,5.35-1.74,7.35-1.58,2.71-4.01,4.06-7.29,4.06Zm3.38-16.22c-.7-1.18-2.08-1.77-4.15-1.77h-4.19v14.21h4.19c2.15,0,3.64-1.06,4.49-3.17,.46-1.16,.69-2.54,.69-4.15,0-2.22-.35-3.92-1.03-5.11Z"/><path d="M347.85,403.4h-8.02l-1.51,4.47h-4.76l7.77-21.77h5.14l7.71,21.77h-4.93l-1.4-4.47Zm-1.27-3.75l-2.72-8.57-2.81,8.57h5.52Z"/><path d="M370.53,386.11v3.85h-6.51v17.91h-4.58v-17.91h-6.54v-3.85h17.63Z"/><path d="M383.7,403.4h-8.02l-1.51,4.47h-4.76l7.77-21.77h5.14l7.71,21.77h-4.93l-1.4-4.47Zm-1.27-3.75l-2.72-8.57-2.81,8.57h5.52Z"/><path d="M394.97,412.55l-1.05,1.43h-3.12c1.3-2.34,2.21-4.26,2.72-5.76,.88-2.53,1.31-5.3,1.31-8.31,0-1.93-.16-3.71-.47-5.35-.48-2.49-1.34-4.87-2.58-7.15l-.9-1.65h3.18c1.5,2.09,2.63,4.04,3.41,5.85,1.15,2.66,1.73,5.34,1.73,8.03,0,2.96-.68,5.98-2.05,9.04-.77,1.71-1.49,3-2.17,3.87Z"/></g><g><path d="M899.01,812.25h-9.38v-21.77h9.38c1.35,.02,2.47,.18,3.37,.47,1.53,.5,2.76,1.42,3.71,2.76,.76,1.08,1.27,2.25,1.55,3.51,.28,1.26,.41,2.46,.41,3.6,0,2.89-.58,5.35-1.74,7.35-1.58,2.71-4.01,4.06-7.29,4.06Zm3.38-16.22c-.7-1.18-2.08-1.77-4.15-1.77h-4.19v14.21h4.19c2.15,0,3.64-1.06,4.49-3.17,.46-1.16,.69-2.54,.69-4.15,0-2.22-.35-3.92-1.03-5.11Z"/><path d="M912.59,801.19v-4.4h4.48v4.4h-4.48Zm4.48,6.66v4.4h-4.48v-4.4h4.48Z"/><path d="M939.19,804.42h-4.62v7.83h-4.52v-21.77h9.48c2.19,0,3.93,.56,5.23,1.68,1.3,1.12,1.95,2.86,1.95,5.21,0,2.57-.65,4.39-1.95,5.45-1.3,1.06-3.16,1.59-5.57,1.59Zm2.13-4.53c.59-.52,.89-1.35,.89-2.48s-.3-1.94-.89-2.42-1.43-.72-2.5-.72h-4.24v6.41h4.24c1.07,0,1.91-.26,2.51-.78Z"/><path d="M965.27,802.74h-10.57v5.6h12.05v3.91h-16.5v-21.77h15.96v3.85h-11.52v4.62h10.57v3.78Z"/><path d="M979.54,803.72h-4.7v8.54h-4.45v-21.77h10.68c1.53,.03,2.7,.22,3.52,.56,.82,.34,1.52,.85,2.09,1.52,.47,.55,.85,1.16,1.12,1.83,.28,.67,.41,1.43,.41,2.29,0,1.03-.26,2.05-.78,3.05-.52,1-1.38,1.71-2.58,2.12,1,.4,1.71,.98,2.13,1.72,.42,.74,.63,1.88,.63,3.4v1.46c0,.99,.04,1.67,.12,2.02,.12,.56,.39,.98,.83,1.24v.55h-5.01c-.14-.48-.24-.87-.29-1.17-.12-.61-.18-1.24-.19-1.88l-.03-2.02c-.02-1.39-.27-2.31-.76-2.78s-1.4-.69-2.74-.69Zm2.76-3.96c.91-.41,1.36-1.23,1.36-2.45,0-1.32-.44-2.21-1.31-2.66-.49-.26-1.23-.38-2.21-.38h-5.29v5.85h5.15c1.02,0,1.79-.12,2.3-.35Z"/><path d="M1000.04,809.11c1.07,0,1.94-.12,2.61-.35,1.27-.45,1.91-1.29,1.91-2.53,0-.72-.32-1.27-.95-1.67-.63-.38-1.62-.72-2.97-1.02l-2.3-.52c-2.26-.51-3.83-1.07-4.7-1.67-1.47-1-2.2-2.57-2.2-4.71,0-1.95,.71-3.57,2.13-4.86,1.42-1.29,3.5-1.93,6.25-1.93,2.29,0,4.25,.61,5.87,1.82,1.62,1.22,2.47,2.98,2.55,5.29h-4.37c-.08-1.31-.65-2.24-1.71-2.79-.71-.36-1.59-.55-2.64-.55-1.17,0-2.11,.24-2.81,.71s-1.05,1.13-1.05,1.98c0,.78,.34,1.36,1.03,1.74,.44,.26,1.39,.56,2.83,.9l3.75,.9c1.64,.39,2.88,.92,3.72,1.58,1.3,1.02,1.95,2.51,1.95,4.44s-.76,3.64-2.28,4.96c-1.52,1.31-3.67,1.97-6.45,1.97s-5.07-.65-6.69-1.94c-1.62-1.29-2.44-3.07-2.44-5.34h4.34c.14,.99,.41,1.74,.81,2.23,.74,.9,2,1.34,3.8,1.34Z"/><path d="M1021.94,812.86c-3.11,0-5.49-.85-7.13-2.54-2.21-2.08-3.31-5.07-3.31-8.98s1.1-6.98,3.31-8.98c1.64-1.69,4.02-2.54,7.13-2.54s5.49,.85,7.13,2.54c2.2,2,3.29,4.99,3.29,8.98s-1.1,6.9-3.29,8.98c-1.64,1.69-4.02,2.54-7.13,2.54Zm4.3-5.85c1.05-1.33,1.58-3.22,1.58-5.67s-.53-4.33-1.59-5.66-2.49-2-4.29-2-3.24,.66-4.31,1.99-1.61,3.22-1.61,5.67,.54,4.34,1.61,5.67,2.51,1.99,4.31,1.99,3.23-.66,4.3-1.99Z"/><path d="M1053.44,812.25h-4.55l-8.89-15.46v15.46h-4.24v-21.77h4.77l8.67,15.2v-15.2h4.24v21.77Z"/><path d="M1070.42,807.78h-8.02l-1.51,4.47h-4.76l7.77-21.77h5.14l7.71,21.77h-4.93l-1.4-4.47Zm-1.27-3.75l-2.72-8.57-2.81,8.57h5.52Z"/><path d="M1079.52,790.48h4.55v17.85h10.78v3.91h-15.33v-21.77Z"/><path d="M900.26,840.72h-4.62v7.83h-4.52v-21.77h9.48c2.19,0,3.93,.56,5.23,1.68,1.3,1.12,1.95,2.86,1.95,5.21,0,2.57-.65,4.39-1.95,5.45-1.3,1.06-3.16,1.59-5.57,1.59Zm2.13-4.53c.59-.52,.89-1.35,.89-2.48s-.3-1.94-.89-2.42-1.43-.72-2.5-.72h-4.24v6.41h4.24c1.07,0,1.91-.26,2.51-.78Z"/><path d="M920.44,840.01h-4.7v8.54h-4.45v-21.77h10.68c1.53,.03,2.7,.22,3.52,.56,.82,.34,1.52,.85,2.09,1.52,.47,.55,.85,1.16,1.12,1.83,.28,.67,.41,1.43,.41,2.29,0,1.03-.26,2.05-.78,3.05-.52,1-1.38,1.71-2.58,2.12,1,.4,1.71,.98,2.13,1.72,.42,.74,.63,1.88,.63,3.4v1.46c0,.99,.04,1.67,.12,2.02,.12,.56,.39,.98,.83,1.24v.55h-5.01c-.14-.48-.24-.87-.29-1.17-.12-.61-.18-1.24-.19-1.88l-.03-2.02c-.02-1.39-.27-2.31-.76-2.78s-1.4-.69-2.74-.69Zm2.76-3.96c.91-.41,1.36-1.23,1.36-2.45,0-1.32-.44-2.21-1.31-2.66-.49-.26-1.23-.38-2.21-.38h-5.29v5.85h5.15c1.02,0,1.79-.12,2.3-.35Z"/><path d="M932.68,826.78h4.52v21.77h-4.52v-21.77Z"/><path d="M939.83,826.78h4.86l4.73,16.53,4.77-16.53h4.73l-7.43,21.77h-4.3l-7.35-21.77Z"/><path d="M972.12,844.07h-8.02l-1.51,4.47h-4.76l7.77-21.77h5.14l7.71,21.77h-4.93l-1.4-4.47Zm-1.27-3.75l-2.72-8.57-2.81,8.57h5.52Z"/><path d="M994.81,826.78v3.85h-6.51v17.91h-4.58v-17.91h-6.54v-3.85h17.63Z"/><path d="M1012.62,839.04h-10.57v5.6h12.05v3.91h-16.5v-21.77h15.96v3.85h-11.52v4.62h10.57v3.78Z"/><path d="M1035.42,848.55h-9.38v-21.77h9.38c1.35,.02,2.47,.18,3.37,.47,1.53,.5,2.76,1.42,3.71,2.76,.76,1.08,1.27,2.25,1.55,3.51,.28,1.26,.41,2.46,.41,3.6,0,2.89-.58,5.35-1.74,7.35-1.58,2.71-4.01,4.06-7.29,4.06Zm3.38-16.22c-.7-1.18-2.08-1.77-4.15-1.77h-4.19v14.21h4.19c2.15,0,3.64-1.06,4.49-3.17,.46-1.16,.69-2.54,.69-4.15,0-2.22-.35-3.92-1.03-5.11Z"/><path d="M1060.63,844.07h-8.02l-1.51,4.47h-4.76l7.77-21.77h5.14l7.71,21.77h-4.93l-1.4-4.47Zm-1.27-3.75l-2.72-8.57-2.81,8.57h5.52Z"/><path d="M1083.31,826.78v3.85h-6.51v17.91h-4.58v-17.91h-6.54v-3.85h17.63Z"/><path d="M1096.49,844.07h-8.02l-1.51,4.47h-4.76l7.77-21.77h5.14l7.71,21.77h-4.93l-1.4-4.47Zm-1.27-3.75l-2.72-8.57-2.81,8.57h5.52Z"/></g><path d="M232.84,889.25c-62.19,0-120.66-24.22-164.64-68.2C24.22,777.07,0,718.6,0,656.41s24.22-120.66,68.2-164.64c43.98-43.98,102.45-68.2,164.64-68.2s120.66,24.22,164.64,68.2c43.98,43.98,68.2,102.45,68.2,164.64s-24.22,120.66-68.2,164.64c-43.98,43.98-102.45,68.2-164.64,68.2Zm0-453.67c-58.99,0-114.44,22.97-156.16,64.68-41.71,41.71-64.68,97.17-64.68,156.16s22.97,114.44,64.68,156.16c41.71,41.71,97.17,64.68,156.16,64.68s114.45-22.97,156.16-64.68c41.71-41.71,64.68-97.17,64.68-156.16s-22.97-114.44-64.68-156.16c-41.71-41.71-97.17-64.68-156.16-64.68Z"/><g><path d="M599.9,816.23h-5.52l-4.13-7.41-4.37,7.41h-5.29l7-11.09-6.66-10.68h5.43l3.88,7.07,3.99-7.07h5.26l-6.66,10.5,7.07,11.27Z"/><path d="M603.7,805.17v-4.4h4.48v4.4h-4.48Zm4.48,6.66v4.4h-4.48v-4.4h4.48Z"/><path d="M630.29,808.4h-4.62v7.83h-4.52v-21.77h9.48c2.19,0,3.93,.56,5.23,1.68,1.3,1.12,1.95,2.86,1.95,5.21,0,2.57-.65,4.39-1.95,5.45-1.3,1.06-3.16,1.59-5.57,1.59Zm2.13-4.53c.59-.52,.89-1.35,.89-2.48s-.3-1.94-.89-2.42-1.43-.72-2.5-.72h-4.24v6.41h4.24c1.07,0,1.91-.26,2.51-.78Z"/><path d="M650.47,807.69h-4.7v8.54h-4.45v-21.77h10.68c1.53,.03,2.7,.22,3.52,.56,.82,.34,1.52,.85,2.09,1.52,.47,.55,.85,1.16,1.12,1.83,.28,.67,.41,1.43,.41,2.29,0,1.03-.26,2.05-.78,3.05-.52,1-1.38,1.71-2.58,2.12,1,.4,1.71,.98,2.13,1.72,.42,.74,.63,1.88,.63,3.4v1.46c0,.99,.04,1.67,.12,2.02,.12,.56,.39,.98,.83,1.24v.55h-5.01c-.14-.48-.24-.87-.29-1.17-.12-.61-.18-1.24-.19-1.88l-.03-2.02c-.02-1.39-.27-2.31-.76-2.78s-1.4-.69-2.74-.69Zm2.76-3.96c.91-.41,1.36-1.23,1.36-2.45,0-1.32-.44-2.21-1.31-2.66-.49-.26-1.23-.38-2.21-.38h-5.29v5.85h5.15c1.02,0,1.79-.12,2.3-.35Z"/><path d="M662.71,794.46h4.52v21.77h-4.52v-21.77Z"/><path d="M669.86,794.46h4.86l4.73,16.53,4.77-16.53h4.73l-7.43,21.77h-4.3l-7.35-21.77Z"/><path d="M702.16,811.75h-8.02l-1.51,4.47h-4.76l7.77-21.77h5.14l7.71,21.77h-4.93l-1.4-4.47Zm-1.27-3.75l-2.72-8.57-2.81,8.57h5.52Z"/><path d="M724.84,794.46v3.85h-6.51v17.91h-4.58v-17.91h-6.54v-3.85h17.63Z"/><path d="M742.65,806.72h-10.57v5.6h12.05v3.91h-16.5v-21.77h15.96v3.85h-11.52v4.62h10.57v3.78Z"/><path d="M629.36,852.64c-.97,.32-2.14,.49-3.5,.49-2.84,0-5.18-.85-7.03-2.54-2.24-2.04-3.37-5.03-3.37-8.98s1.15-6.99,3.46-9.02c1.88-1.66,4.22-2.5,7.01-2.5s5.18,.88,7.09,2.64c2.21,2.04,3.31,4.89,3.31,8.55,0,1.94-.24,3.56-.71,4.87-.38,1.25-.95,2.29-1.7,3.12l2.51,2.35-2.38,2.48-2.63-2.48c-.8,.48-1.49,.82-2.07,1.02Zm-.97-3.93l-2.2-2.1,2.35-2.45,2.2,2.1c.34-.71,.59-1.33,.72-1.86,.22-.8,.33-1.73,.33-2.79,0-2.44-.5-4.33-1.5-5.66-1-1.33-2.46-2-4.38-2-1.8,0-3.24,.64-4.31,1.92s-1.61,3.19-1.61,5.74c0,2.98,.77,5.12,2.3,6.41,.99,.84,2.19,1.26,3.57,1.26,.52,0,1.02-.06,1.51-.19,.27-.07,.61-.19,1.02-.37Z"/><path d="M652.68,844.13v-13.38h4.62v13.38c0,2.31-.36,4.12-1.08,5.41-1.34,2.36-3.89,3.54-7.66,3.54s-6.33-1.18-7.68-3.54c-.72-1.29-1.08-3.09-1.08-5.41v-13.38h4.62v13.38c0,1.5,.18,2.59,.53,3.28,.55,1.22,1.75,1.83,3.6,1.83s3.04-.61,3.59-1.83c.35-.69,.53-1.78,.53-3.28Z"/><path d="M676.8,843.01h-10.57v5.6h12.05v3.91h-16.5v-21.77h15.96v3.85h-11.52v4.62h10.57v3.78Z"/><path d="M691.07,843.99h-4.7v8.54h-4.45v-21.77h10.68c1.53,.03,2.7,.22,3.52,.56,.82,.34,1.52,.85,2.09,1.52,.47,.55,.85,1.16,1.12,1.83,.28,.67,.41,1.43,.41,2.29,0,1.03-.26,2.05-.78,3.05-.52,1-1.38,1.71-2.58,2.12,1,.4,1.71,.98,2.13,1.72,.42,.74,.63,1.88,.63,3.4v1.46c0,.99,.04,1.67,.12,2.02,.12,.56,.39,.98,.83,1.24v.55h-5.01c-.14-.48-.24-.87-.29-1.17-.12-.61-.18-1.24-.19-1.88l-.03-2.02c-.02-1.39-.27-2.31-.76-2.78s-1.4-.69-2.74-.69Zm2.76-3.96c.91-.41,1.36-1.23,1.36-2.45,0-1.32-.44-2.21-1.31-2.66-.49-.26-1.23-.38-2.21-.38h-5.29v5.85h5.15c1.02,0,1.79-.12,2.3-.35Z"/><path d="M720.13,830.75l-7.28,13.59v8.18h-4.55v-8.18l-7.53-13.59h5.36l4.52,9.48,4.33-9.48h5.15Z"/></g><path d="M155.65,165.87c-3.83,0-7.5,1.53-10.21,4.24-2.71,2.71-4.23,6.38-4.24,10.21v57.8c0,3.83,1.53,7.5,4.24,10.21,2.71,2.71,6.38,4.23,10.21,4.24h163.78c3.83,0,7.5-1.53,10.21-4.24,2.71-2.71,4.23-6.38,4.24-10.21v-57.8c0-3.83-1.53-7.5-4.24-10.21-2.71-2.71-6.38-4.23-10.21-4.24h-1.61v-16.06h1.61c3.83,0,7.5-1.53,10.21-4.24,2.71-2.71,4.23-6.38,4.24-10.21v-57.8c0-3.83-1.53-7.5-4.24-10.21-2.71-2.71-6.38-4.23-10.21-4.24H155.65c-3.83,0-7.5,1.53-10.21,4.24-2.71,2.71-4.23,6.38-4.24,10.21v57.8c0,3.83,1.53,7.5,4.24,10.21,2.71,2.71,6.38,4.23,10.21,4.24h1.61v16.06h-1.61Zm20.87,48.17c-1.95,0-3.7-1.17-4.45-2.97s-.33-3.87,1.04-5.25c1.38-1.38,3.45-1.79,5.25-1.04s2.97,2.5,2.97,4.45c0,2.66-2.16,4.82-4.82,4.82h0Zm25.69,0c-1.95,0-3.7-1.17-4.45-2.97s-.33-3.87,1.04-5.25c1.38-1.38,3.45-1.79,5.25-1.04s2.97,2.5,2.97,4.45c0,2.66-2.16,4.82-4.82,4.82h0Zm97.95,0h-35.32c-2.66,0-4.82-2.16-4.82-4.82s2.16-4.82,4.82-4.82h35.32c2.66,0,4.82,2.16,4.82,4.82s-2.16,4.82-4.82,4.82Zm-35.32-112.39h35.32c2.66,0,4.82,2.16,4.82,4.82s-2.16,4.82-4.82,4.82h-35.32c-2.66,0-4.82-2.16-4.82-4.82s2.16-4.82,4.82-4.82Zm-62.62,0c1.95,0,3.7,1.17,4.45,2.97s.33,3.87-1.04,5.25c-1.38,1.38-3.45,1.79-5.25,1.04s-2.97-2.5-2.97-4.45c0-2.66,2.16-4.82,4.82-4.82h0Zm-25.69,0c1.95,0,3.7,1.17,4.45,2.97s.33,3.87-1.04,5.25c-1.38,1.38-3.45,1.79-5.25,1.04s-2.97-2.5-2.97-4.45c0-2.66,2.16-4.82,4.82-4.82h0Zm-9.63,48.17h141.3v16.06H166.89v-16.06Z"/><polygon class="d" points="241.38 361.2 242.01 277.8 251.69 277.88 235.79 261.73 219.65 277.63 229.33 277.71 228.69 361.1 241.38 361.2"/><g><path d="M110.18,31.65h-10.57v5.6h12.05v3.91h-16.5V19.39h15.96v3.85h-11.52v4.62h10.57v3.78Z"/><path d="M122.43,28.18c-1.43,0-2.41,.61-2.94,1.82-.28,.64-.41,1.46-.41,2.45v8.71h-4.19V25.09h4.06v2.35c.54-.83,1.05-1.42,1.54-1.79,.87-.65,1.96-.97,3.29-.97,1.66,0,3.03,.44,4.08,1.31,1.06,.87,1.59,2.32,1.59,4.33v10.84h-4.31v-9.79c0-.85-.11-1.5-.34-1.95-.41-.83-1.2-1.24-2.36-1.24Z"/><path d="M147.26,30.83h-4.31c-.08-.6-.28-1.14-.61-1.62-.47-.65-1.21-.97-2.2-.97-1.42,0-2.39,.7-2.91,2.11-.28,.75-.41,1.74-.41,2.98s.14,2.13,.41,2.85c.5,1.34,1.45,2.01,2.83,2.01,.98,0,1.68-.27,2.1-.8,.41-.53,.66-1.22,.75-2.07h4.3c-.1,1.28-.56,2.49-1.39,3.63-1.32,1.84-3.27,2.76-5.86,2.76s-4.49-.77-5.71-2.3c-1.22-1.54-1.83-3.53-1.83-5.98,0-2.77,.67-4.92,2.02-6.45,1.35-1.54,3.21-2.3,5.58-2.3,2.02,0,3.67,.45,4.95,1.36,1.29,.91,2.05,2.51,2.28,4.8Z"/><path d="M158.25,28.94c-1.69,0-2.83,.55-3.41,1.65-.33,.62-.49,1.58-.49,2.86v7.69h-4.24V25.06h4.02v2.81c.65-1.07,1.22-1.81,1.7-2.2,.79-.66,1.81-.99,3.07-.99,.08,0,.14,0,.2,0,.05,0,.17,.01,.36,.02v4.31c-.27-.03-.5-.05-.71-.06-.21,0-.38-.02-.5-.02Z"/><path d="M168.47,36.93l3.32-11.87h4.47l-5.52,15.83c-1.06,3.05-1.9,4.94-2.53,5.68-.62,.73-1.86,1.1-3.72,1.1-.38,0-.67,0-.9,0s-.57-.02-1.02-.05v-3.37l.53,.03c.41,.02,.81,0,1.18-.04s.69-.16,.95-.34c.25-.17,.47-.52,.69-1.05s.3-.86,.26-.97l-5.91-16.81h4.68l3.52,11.87Z"/><path d="M192.23,26.79c1.3,1.39,1.95,3.43,1.95,6.11,0,2.84-.64,5-1.91,6.48-1.28,1.49-2.92,2.23-4.92,2.23-1.28,0-2.34-.32-3.19-.96-.46-.35-.92-.87-1.36-1.55v8.39h-4.17V25.06h4.03v2.38c.45-.7,.93-1.25,1.45-1.65,.93-.72,2.05-1.08,3.34-1.08,1.88,0,3.48,.69,4.79,2.08Zm-2.39,6.32c0-1.24-.28-2.34-.85-3.29-.57-.96-1.48-1.43-2.75-1.43-1.53,0-2.57,.72-3.15,2.17-.29,.77-.44,1.74-.44,2.92,0,1.87,.5,3.19,1.49,3.94,.59,.44,1.29,.66,2.1,.66,1.17,0,2.07-.45,2.68-1.36s.92-2.11,.92-3.62Z"/><path d="M204.59,38.16v3.15l-1.99,.07c-1.99,.07-3.35-.28-4.08-1.03-.47-.48-.71-1.23-.71-2.23v-9.91h-2.24v-3h2.24v-4.49h4.17v4.49h2.61v3h-2.61v8.51c0,.66,.08,1.07,.25,1.23,.17,.16,.68,.24,1.54,.24,.13,0,.26,0,.41,0s.28-.01,.42-.02Z"/><path d="M221.07,36.43c-.11,.96-.61,1.92-1.49,2.91-1.38,1.57-3.31,2.35-5.79,2.35-2.05,0-3.85-.66-5.42-1.98s-2.35-3.47-2.35-6.44c0-2.79,.71-4.92,2.12-6.41,1.41-1.49,3.25-2.23,5.5-2.23,1.34,0,2.54,.25,3.62,.75,1.07,.5,1.96,1.29,2.66,2.38,.63,.96,1.04,2.06,1.23,3.32,.11,.74,.15,1.8,.13,3.19h-11.02c.06,1.61,.57,2.75,1.52,3.4,.58,.4,1.28,.61,2.1,.61,.87,0,1.57-.25,2.11-.74,.3-.27,.56-.64,.78-1.11h4.3Zm-4.17-4.93c-.07-1.11-.41-1.96-1.01-2.53-.61-.58-1.36-.86-2.25-.86-.97,0-1.73,.31-2.27,.92-.54,.61-.87,1.44-1.01,2.48h6.54Z"/><path d="M238.76,19.42v21.74h-4.09v-2.23c-.6,.96-1.29,1.65-2.05,2.08-.77,.43-1.72,.65-2.87,.65-1.88,0-3.46-.76-4.75-2.28-1.28-1.52-1.93-3.47-1.93-5.86,0-2.75,.63-4.91,1.9-6.48,1.26-1.58,2.96-2.36,5.07-2.36,.97,0,1.84,.21,2.6,.64s1.37,1.02,1.85,1.78v-7.68h4.27Zm-11.34,13.79c0,1.49,.29,2.67,.89,3.56,.58,.9,1.47,1.34,2.66,1.34s2.1-.44,2.72-1.33c.62-.89,.93-2.03,.93-3.44,0-1.97-.5-3.38-1.49-4.22-.61-.51-1.32-.77-2.13-.77-1.23,0-2.13,.46-2.71,1.4-.58,.93-.86,2.08-.86,3.46Z"/><path d="M260.71,41.16h-9.38V19.39h9.38c1.35,.02,2.47,.18,3.37,.47,1.53,.5,2.76,1.42,3.71,2.76,.76,1.08,1.27,2.25,1.55,3.51,.28,1.26,.41,2.46,.41,3.6,0,2.89-.58,5.35-1.74,7.35-1.58,2.71-4.01,4.06-7.29,4.06Zm3.38-16.22c-.7-1.18-2.08-1.77-4.15-1.77h-4.19v14.21h4.19c2.15,0,3.64-1.06,4.49-3.17,.46-1.16,.69-2.54,.69-4.15,0-2.22-.35-3.92-1.03-5.11Z"/><path d="M273.44,26.8c1.11-1.42,3.02-2.13,5.73-2.13,1.76,0,3.33,.35,4.7,1.05,1.37,.7,2.05,2.02,2.05,3.96v7.38c0,.51,0,1.13,.03,1.86,.03,.55,.11,.93,.25,1.12s.34,.36,.62,.49v.62h-4.58c-.13-.32-.22-.63-.27-.92s-.09-.61-.12-.97c-.58,.63-1.25,1.17-2.01,1.61-.91,.52-1.93,.78-3.07,.78-1.46,0-2.66-.42-3.61-1.25-.95-.83-1.43-2.01-1.43-3.54,0-1.98,.76-3.41,2.29-4.3,.84-.48,2.07-.83,3.69-1.03l1.43-.18c.78-.1,1.33-.22,1.67-.37,.6-.26,.9-.65,.9-1.2,0-.66-.23-1.12-.69-1.37s-1.13-.38-2.02-.38c-1,0-1.7,.25-2.11,.74-.29,.36-.49,.86-.59,1.48h-4.06c.09-1.41,.48-2.56,1.18-3.47Zm3.13,11.31c.39,.32,.88,.49,1.45,.49,.91,0,1.74-.27,2.5-.8,.76-.53,1.16-1.5,1.19-2.91v-1.57c-.27,.17-.53,.3-.8,.41-.27,.1-.64,.2-1.12,.29l-.95,.18c-.89,.16-1.52,.35-1.91,.58-.65,.38-.97,.98-.97,1.79,0,.72,.2,1.24,.61,1.55Z"/><path d="M297.02,38.16v3.15l-1.99,.07c-1.99,.07-3.35-.28-4.08-1.03-.47-.48-.71-1.23-.71-2.23v-9.91h-2.24v-3h2.24v-4.49h4.17v4.49h2.61v3h-2.61v8.51c0,.66,.08,1.07,.25,1.23,.17,.16,.68,.24,1.54,.24,.13,0,.26,0,.41,0s.28-.01,.42-.02Z"/><path d="M300.33,26.8c1.11-1.42,3.02-2.13,5.73-2.13,1.76,0,3.33,.35,4.7,1.05,1.37,.7,2.05,2.02,2.05,3.96v7.38c0,.51,0,1.13,.03,1.86,.03,.55,.11,.93,.25,1.12s.34,.36,.62,.49v.62h-4.58c-.13-.32-.22-.63-.27-.92s-.09-.61-.12-.97c-.58,.63-1.25,1.17-2.01,1.61-.91,.52-1.93,.78-3.07,.78-1.46,0-2.66-.42-3.61-1.25-.95-.83-1.43-2.01-1.43-3.54,0-1.98,.76-3.41,2.29-4.3,.84-.48,2.07-.83,3.69-1.03l1.43-.18c.78-.1,1.33-.22,1.67-.37,.6-.26,.9-.65,.9-1.2,0-.66-.23-1.12-.69-1.37s-1.13-.38-2.02-.38c-1,0-1.7,.25-2.11,.74-.29,.36-.49,.86-.59,1.48h-4.06c.09-1.41,.48-2.56,1.18-3.47Zm3.13,11.31c.39,.32,.88,.49,1.45,.49,.91,0,1.74-.27,2.5-.8,.76-.53,1.16-1.5,1.19-2.91v-1.57c-.27,.17-.53,.3-.8,.41-.27,.1-.64,.2-1.12,.29l-.95,.18c-.89,.16-1.52,.35-1.91,.58-.65,.38-.97,.98-.97,1.79,0,.72,.2,1.24,.61,1.55Z"/><path d="M325.29,41.58c-1.33,0-2.4-.27-3.21-.8-.48-.31-1-.87-1.57-1.65v2.02h-4.12V19.42h4.19v7.74c.53-.75,1.12-1.32,1.76-1.71,.76-.49,1.72-.74,2.89-.74,2.12,0,3.77,.76,4.97,2.29,1.2,1.53,1.79,3.5,1.79,5.91s-.59,4.57-1.77,6.22c-1.18,1.64-2.83,2.47-4.95,2.47Zm2.3-8.24c0-1.14-.15-2.09-.44-2.84-.56-1.42-1.59-2.13-3.1-2.13s-2.58,.69-3.15,2.08c-.29,.74-.44,1.69-.44,2.86,0,1.38,.3,2.52,.92,3.43s1.54,1.36,2.79,1.36c1.08,0,1.92-.44,2.53-1.31s.9-2.03,.9-3.46Z"/><path d="M335.62,26.8c1.11-1.42,3.02-2.13,5.73-2.13,1.76,0,3.33,.35,4.7,1.05,1.37,.7,2.05,2.02,2.05,3.96v7.38c0,.51,0,1.13,.03,1.86,.03,.55,.11,.93,.25,1.12s.34,.36,.62,.49v.62h-4.58c-.13-.32-.22-.63-.27-.92s-.09-.61-.12-.97c-.58,.63-1.25,1.17-2.01,1.61-.91,.52-1.93,.78-3.07,.78-1.46,0-2.66-.42-3.61-1.25-.95-.83-1.43-2.01-1.43-3.54,0-1.98,.76-3.41,2.29-4.3,.84-.48,2.07-.83,3.69-1.03l1.43-.18c.78-.1,1.33-.22,1.67-.37,.6-.26,.9-.65,.9-1.2,0-.66-.23-1.12-.69-1.37s-1.13-.38-2.02-.38c-1,0-1.7,.25-2.11,.74-.29,.36-.49,.86-.59,1.48h-4.06c.09-1.41,.48-2.56,1.18-3.47Zm3.13,11.31c.39,.32,.88,.49,1.45,.49,.91,0,1.74-.27,2.5-.8,.76-.53,1.16-1.5,1.19-2.91v-1.57c-.27,.17-.53,.3-.8,.41-.27,.1-.64,.2-1.12,.29l-.95,.18c-.89,.16-1.52,.35-1.91,.58-.65,.38-.97,.98-.97,1.79,0,.72,.2,1.24,.61,1.55Z"/><path d="M362.93,25.8c1.26,.81,1.98,2.2,2.17,4.16h-4.21c-.06-.54-.21-.97-.46-1.28-.46-.57-1.25-.86-2.36-.86-.92,0-1.57,.14-1.96,.43s-.58,.62-.58,1c0,.48,.21,.83,.62,1.05,.41,.23,1.88,.62,4.39,1.17,1.67,.39,2.93,.99,3.77,1.79,.83,.81,1.24,1.82,1.24,3.03,0,1.6-.59,2.9-1.78,3.91-1.19,1.01-3.02,1.51-5.5,1.51s-4.4-.53-5.6-1.6c-1.21-1.07-1.81-2.43-1.81-4.08h4.27c.09,.75,.28,1.28,.58,1.59,.52,.56,1.49,.84,2.89,.84,.83,0,1.48-.12,1.97-.37s.73-.62,.73-1.11-.2-.83-.59-1.08c-.39-.25-1.86-.67-4.39-1.27-1.82-.45-3.11-1.02-3.85-1.7-.75-.67-1.12-1.63-1.12-2.89,0-1.49,.58-2.76,1.75-3.83s2.81-1.6,4.92-1.6,3.65,.4,4.92,1.2Z"/><path d="M382.44,36.43c-.11,.96-.61,1.92-1.49,2.91-1.38,1.57-3.31,2.35-5.79,2.35-2.05,0-3.85-.66-5.42-1.98s-2.35-3.47-2.35-6.44c0-2.79,.71-4.92,2.12-6.41,1.41-1.49,3.25-2.23,5.5-2.23,1.34,0,2.54,.25,3.62,.75,1.07,.5,1.96,1.29,2.66,2.38,.63,.96,1.04,2.06,1.23,3.32,.11,.74,.15,1.8,.13,3.19h-11.02c.06,1.61,.57,2.75,1.52,3.4,.58,.4,1.28,.61,2.1,.61,.87,0,1.57-.25,2.11-.74,.3-.27,.56-.64,.78-1.11h4.3Zm-4.17-4.93c-.07-1.11-.41-1.96-1.01-2.53-.61-.58-1.36-.86-2.25-.86-.97,0-1.73,.31-2.27,.92-.54,.61-.87,1.44-1.01,2.48h6.54Z"/></g><g><path d="M626.02,26.95v3.85h-6.51v17.91h-4.58V30.8h-6.54v-3.85h17.63Z"/><path d="M634.78,36.5c-1.69,0-2.83,.55-3.41,1.65-.33,.62-.49,1.58-.49,2.86v7.69h-4.24v-16.1h4.02v2.81c.65-1.07,1.22-1.81,1.7-2.2,.79-.66,1.81-.99,3.07-.99,.08,0,.14,0,.2,0,.05,0,.17,.01,.36,.02v4.31c-.27-.03-.5-.05-.71-.06-.21,0-.38-.02-.5-.02Z"/><path d="M648.78,46.44s-.14,.2-.3,.44c-.16,.25-.34,.46-.56,.65-.66,.59-1.3,.99-1.91,1.21-.62,.22-1.34,.33-2.16,.33-2.38,0-3.99-.86-4.81-2.57-.46-.94-.69-2.34-.69-4.18v-9.7h4.31v9.7c0,.92,.11,1.6,.33,2.07,.38,.82,1.14,1.23,2.26,1.23,1.44,0,2.42-.58,2.95-1.74,.28-.63,.41-1.46,.41-2.5v-8.76h4.27v16.1h-4.09v-2.27Z"/><path d="M668.02,33.36c1.26,.81,1.98,2.2,2.17,4.16h-4.21c-.06-.54-.21-.97-.46-1.28-.46-.57-1.25-.86-2.36-.86-.92,0-1.57,.14-1.96,.43s-.58,.62-.58,1c0,.48,.21,.83,.62,1.05,.41,.23,1.88,.62,4.39,1.17,1.67,.39,2.93,.99,3.77,1.79,.83,.81,1.24,1.82,1.24,3.03,0,1.6-.59,2.9-1.78,3.91-1.19,1.01-3.02,1.51-5.5,1.51s-4.4-.53-5.6-1.6c-1.21-1.07-1.81-2.43-1.81-4.08h4.27c.09,.75,.28,1.28,.58,1.59,.52,.56,1.49,.84,2.89,.84,.83,0,1.48-.12,1.97-.37s.73-.62,.73-1.11-.2-.83-.59-1.08c-.39-.25-1.86-.67-4.39-1.27-1.82-.45-3.11-1.02-3.85-1.7-.75-.67-1.12-1.63-1.12-2.89,0-1.49,.58-2.76,1.75-3.83s2.81-1.6,4.92-1.6,3.65,.4,4.92,1.2Z"/><path d="M681.12,45.72v3.15l-1.99,.07c-1.99,.07-3.35-.28-4.08-1.03-.47-.48-.71-1.23-.71-2.23v-9.91h-2.24v-3h2.24v-4.49h4.17v4.49h2.61v3h-2.61v8.51c0,.66,.08,1.07,.25,1.23,.17,.16,.68,.24,1.54,.24,.13,0,.26,0,.41,0s.28-.01,.42-.02Z"/><path d="M697.6,43.99c-.11,.96-.61,1.92-1.49,2.91-1.38,1.57-3.31,2.35-5.79,2.35-2.05,0-3.85-.66-5.42-1.98s-2.35-3.47-2.35-6.44c0-2.79,.71-4.92,2.12-6.41,1.41-1.49,3.25-2.23,5.5-2.23,1.34,0,2.54,.25,3.62,.75,1.07,.5,1.96,1.29,2.66,2.38,.63,.96,1.04,2.06,1.23,3.32,.11,.74,.15,1.8,.13,3.19h-11.02c.06,1.61,.57,2.75,1.52,3.4,.58,.4,1.28,.61,2.1,.61,.87,0,1.57-.25,2.11-.74,.3-.27,.56-.64,.78-1.11h4.3Zm-4.17-4.93c-.07-1.11-.41-1.96-1.01-2.53-.61-.58-1.36-.86-2.25-.86-.97,0-1.73,.31-2.27,.92-.54,.61-.87,1.44-1.01,2.48h6.54Z"/><path d="M715.29,26.98v21.74h-4.09v-2.23c-.6,.96-1.29,1.65-2.05,2.08-.77,.43-1.72,.65-2.87,.65-1.88,0-3.46-.76-4.75-2.28-1.28-1.52-1.93-3.47-1.93-5.86,0-2.75,.63-4.91,1.9-6.48,1.26-1.58,2.96-2.36,5.07-2.36,.97,0,1.84,.21,2.6,.64s1.37,1.02,1.85,1.78v-7.68h4.27Zm-11.34,13.79c0,1.49,.29,2.67,.89,3.56,.58,.9,1.47,1.34,2.66,1.34s2.1-.44,2.72-1.33c.62-.89,.93-2.03,.93-3.44,0-1.97-.5-3.38-1.49-4.22-.61-.51-1.32-.77-2.13-.77-1.23,0-2.13,.46-2.71,1.4-.58,.93-.86,2.08-.86,3.46Z"/><path d="M743.01,39.21h-10.57v5.6h12.05v3.91h-16.5V26.95h15.96v3.85h-11.52v4.62h10.57v3.78Z"/><path d="M762.03,48.72h-5.24l-2.78-4.83-2.79,4.83h-5.11l5.49-8.15-5.26-7.92h5.15l2.69,4.67,2.63-4.67h5.01l-5.29,7.84,5.49,8.23Z"/><path d="M778.29,43.99c-.11,.96-.61,1.92-1.49,2.91-1.38,1.57-3.31,2.35-5.79,2.35-2.05,0-3.85-.66-5.42-1.98s-2.35-3.47-2.35-6.44c0-2.79,.71-4.92,2.12-6.41,1.41-1.49,3.25-2.23,5.5-2.23,1.34,0,2.54,.25,3.62,.75,1.07,.5,1.96,1.29,2.66,2.38,.63,.96,1.04,2.06,1.23,3.32,.11,.74,.15,1.8,.13,3.19h-11.02c.06,1.61,.57,2.75,1.52,3.4,.58,.4,1.28,.61,2.1,.61,.87,0,1.57-.25,2.11-.74,.3-.27,.56-.64,.78-1.11h4.3Zm-4.17-4.93c-.07-1.11-.41-1.96-1.01-2.53-.61-.58-1.36-.86-2.25-.86-.97,0-1.73,.31-2.27,.92-.54,.61-.87,1.44-1.01,2.48h6.54Z"/><path d="M795.26,38.4h-4.31c-.08-.6-.28-1.14-.61-1.62-.47-.65-1.21-.97-2.2-.97-1.42,0-2.39,.7-2.91,2.11-.28,.75-.41,1.74-.41,2.98s.14,2.13,.41,2.85c.5,1.34,1.45,2.01,2.83,2.01,.98,0,1.68-.27,2.1-.8,.41-.53,.66-1.22,.75-2.07h4.3c-.1,1.28-.56,2.49-1.39,3.63-1.32,1.84-3.27,2.76-5.86,2.76s-4.49-.77-5.71-2.3c-1.22-1.54-1.83-3.53-1.83-5.98,0-2.77,.67-4.92,2.02-6.45,1.35-1.54,3.21-2.3,5.58-2.3,2.02,0,3.67,.45,4.95,1.36,1.29,.91,2.05,2.51,2.28,4.8Z"/><path d="M808.48,46.44s-.14,.2-.3,.44c-.16,.25-.34,.46-.56,.65-.66,.59-1.3,.99-1.91,1.21-.62,.22-1.34,.33-2.16,.33-2.38,0-3.99-.86-4.81-2.57-.46-.94-.69-2.34-.69-4.18v-9.7h4.31v9.7c0,.92,.11,1.6,.33,2.07,.38,.82,1.14,1.23,2.26,1.23,1.44,0,2.42-.58,2.95-1.74,.28-.63,.41-1.46,.41-2.5v-8.76h4.27v16.1h-4.09v-2.27Z"/><path d="M824,45.72v3.15l-1.99,.07c-1.99,.07-3.35-.28-4.08-1.03-.47-.48-.71-1.23-.71-2.23v-9.91h-2.24v-3h2.24v-4.49h4.17v4.49h2.61v3h-2.61v8.51c0,.66,.08,1.07,.25,1.23,.17,.16,.68,.24,1.54,.24,.13,0,.26,0,.41,0s.28-.01,.42-.02Z"/><path d="M831.03,26.82v3.88h-4.27v-3.88h4.27Zm0,5.8v16.1h-4.27v-16.1h4.27Z"/><path d="M848.53,34.66c1.36,1.7,2.04,3.72,2.04,6.04s-.68,4.38-2.04,6.06c-1.36,1.68-3.42,2.52-6.19,2.52s-4.83-.84-6.19-2.52-2.04-3.7-2.04-6.06,.68-4.34,2.04-6.04,3.42-2.56,6.19-2.56,4.83,.85,6.19,2.56Zm-6.2,1c-1.23,0-2.18,.44-2.84,1.31-.66,.87-1,2.11-1,3.73s.33,2.86,1,3.74c.67,.88,1.61,1.31,2.84,1.31s2.18-.44,2.84-1.31c.66-.88,.99-2.12,.99-3.74s-.33-2.86-.99-3.73c-.66-.87-1.61-1.31-2.84-1.31Z"/><path d="M861.15,35.74c-1.43,0-2.41,.61-2.94,1.82-.28,.64-.41,1.46-.41,2.45v8.71h-4.19v-16.07h4.06v2.35c.54-.83,1.05-1.42,1.54-1.79,.87-.65,1.96-.97,3.29-.97,1.66,0,3.03,.44,4.08,1.31,1.06,.87,1.59,2.32,1.59,4.33v10.84h-4.31v-9.79c0-.85-.11-1.5-.34-1.95-.41-.83-1.2-1.24-2.36-1.24Z"/><path d="M895.95,39.21h-10.57v5.6h12.05v3.91h-16.5V26.95h15.96v3.85h-11.52v4.62h10.57v3.78Z"/><path d="M908.21,35.74c-1.43,0-2.41,.61-2.94,1.82-.28,.64-.41,1.46-.41,2.45v8.71h-4.19v-16.07h4.06v2.35c.54-.83,1.05-1.42,1.54-1.79,.87-.65,1.96-.97,3.29-.97,1.66,0,3.03,.44,4.08,1.31,1.06,.87,1.59,2.32,1.59,4.33v10.84h-4.31v-9.79c0-.85-.11-1.5-.34-1.95-.41-.83-1.2-1.24-2.36-1.24Z"/><path d="M917.52,32.62h4.73l3.35,11.87,3.43-11.87h4.52l-5.8,16.1h-4.45l-5.77-16.1Z"/><path d="M940.25,26.82v3.88h-4.27v-3.88h4.27Zm0,5.8v16.1h-4.27v-16.1h4.27Z"/><path d="M952.42,36.5c-1.69,0-2.83,.55-3.41,1.65-.33,.62-.49,1.58-.49,2.86v7.69h-4.24v-16.1h4.02v2.81c.65-1.07,1.22-1.81,1.7-2.2,.79-.66,1.81-.99,3.07-.99,.08,0,.14,0,.2,0,.05,0,.17,.01,.36,.02v4.31c-.27-.03-.5-.05-.71-.06-.21,0-.38-.02-.5-.02Z"/><path d="M969.52,34.66c1.36,1.7,2.04,3.72,2.04,6.04s-.68,4.38-2.04,6.06c-1.36,1.68-3.42,2.52-6.19,2.52s-4.83-.84-6.19-2.52-2.04-3.7-2.04-6.06,.68-4.34,2.04-6.04,3.42-2.56,6.19-2.56,4.83,.85,6.19,2.56Zm-6.2,1c-1.23,0-2.18,.44-2.84,1.31-.66,.87-1,2.11-1,3.73s.33,2.86,1,3.74c.67,.88,1.61,1.31,2.84,1.31s2.18-.44,2.84-1.31c.66-.88,.99-2.12,.99-3.74s-.33-2.86-.99-3.73c-.66-.87-1.61-1.31-2.84-1.31Z"/><path d="M983.61,37.05c-.35-.78-1.05-1.17-2.08-1.17-1.2,0-2.01,.39-2.42,1.17-.23,.44-.34,1.1-.34,1.98v9.69h-4.27v-16.07h4.09v2.35c.52-.84,1.01-1.43,1.48-1.79,.82-.63,1.88-.95,3.17-.95,1.23,0,2.22,.27,2.98,.81,.61,.5,1.07,1.15,1.39,1.93,.55-.95,1.24-1.64,2.05-2.08,.87-.44,1.83-.66,2.89-.66,.71,0,1.41,.14,2.1,.41,.69,.28,1.31,.76,1.88,1.45,.45,.56,.76,1.25,.92,2.07,.1,.54,.15,1.33,.15,2.38l-.03,10.15h-4.31v-10.25c0-.61-.1-1.11-.29-1.51-.37-.75-1.06-1.12-2.07-1.12-1.16,0-1.96,.48-2.41,1.45-.23,.51-.34,1.13-.34,1.85v9.58h-4.24v-9.58c0-.96-.1-1.65-.3-2.08Z"/><path d="M1015.25,43.99c-.11,.96-.61,1.92-1.49,2.91-1.38,1.57-3.31,2.35-5.79,2.35-2.05,0-3.85-.66-5.42-1.98s-2.35-3.47-2.35-6.44c0-2.79,.71-4.92,2.12-6.41,1.41-1.49,3.25-2.23,5.5-2.23,1.34,0,2.54,.25,3.62,.75,1.07,.5,1.96,1.29,2.66,2.38,.63,.96,1.04,2.06,1.23,3.32,.11,.74,.15,1.8,.13,3.19h-11.02c.06,1.61,.57,2.75,1.52,3.4,.58,.4,1.28,.61,2.1,.61,.87,0,1.57-.25,2.11-.74,.3-.27,.56-.64,.78-1.11h4.3Zm-4.17-4.93c-.07-1.11-.41-1.96-1.01-2.53-.61-.58-1.36-.86-2.25-.86-.97,0-1.73,.31-2.27,.92-.54,.61-.87,1.44-1.01,2.48h6.54Z"/><path d="M1025.86,35.74c-1.43,0-2.41,.61-2.94,1.82-.28,.64-.41,1.46-.41,2.45v8.71h-4.19v-16.07h4.06v2.35c.54-.83,1.05-1.42,1.54-1.79,.87-.65,1.96-.97,3.29-.97,1.66,0,3.03,.44,4.08,1.31,1.06,.87,1.59,2.32,1.59,4.33v10.84h-4.31v-9.79c0-.85-.11-1.5-.34-1.95-.41-.83-1.2-1.24-2.36-1.24Z"/><path d="M1044.13,45.72v3.15l-1.99,.07c-1.99,.07-3.35-.28-4.08-1.03-.47-.48-.71-1.23-.71-2.23v-9.91h-2.24v-3h2.24v-4.49h4.17v4.49h2.61v3h-2.61v8.51c0,.66,.08,1.07,.25,1.23,.17,.16,.68,.24,1.54,.24,.13,0,.26,0,.41,0s.28-.01,.42-.02Z"/></g><path d="M1085.02,355.57H557.8c-8.55,0-15.5-6.95-15.5-15.5V15.5c0-8.55,6.95-15.5,15.5-15.5h527.21c8.55,0,15.5,6.95,15.5,15.5V340.07c0,8.55-6.95,15.5-15.5,15.5ZM557.8,7c-4.69,0-8.5,3.81-8.5,8.5V340.07c0,4.69,3.81,8.5,8.5,8.5h527.21c4.69,0,8.5-3.81,8.5-8.5V15.5c0-4.69-3.81-8.5-8.5-8.5H557.8Z"/><g><path d="M649.71,229.92h-4.62v7.83h-4.52v-21.77h9.48c2.19,0,3.93,.56,5.23,1.68,1.3,1.12,1.95,2.86,1.95,5.21,0,2.57-.65,4.39-1.95,5.45-1.3,1.06-3.16,1.59-5.57,1.59Zm2.13-4.53c.59-.52,.89-1.35,.89-2.48s-.3-1.94-.89-2.42-1.43-.72-2.5-.72h-4.24v6.41h4.24c1.07,0,1.91-.26,2.51-.78Z"/><path d="M668.39,225.54c-1.69,0-2.83,.55-3.41,1.65-.33,.62-.49,1.58-.49,2.86v7.69h-4.24v-16.1h4.02v2.81c.65-1.07,1.22-1.81,1.7-2.2,.79-.66,1.81-.99,3.07-.99,.08,0,.14,0,.2,0,.05,0,.17,.01,.36,.02v4.31c-.27-.03-.5-.05-.71-.06-.21,0-.38-.02-.5-.02Z"/><path d="M685.85,233.02c-.11,.96-.61,1.92-1.49,2.91-1.38,1.57-3.31,2.35-5.79,2.35-2.05,0-3.85-.66-5.42-1.98s-2.35-3.47-2.35-6.44c0-2.79,.71-4.92,2.12-6.41,1.41-1.49,3.25-2.23,5.5-2.23,1.34,0,2.54,.25,3.62,.75,1.07,.5,1.96,1.29,2.66,2.38,.63,.96,1.04,2.06,1.23,3.32,.11,.74,.15,1.8,.13,3.19h-11.02c.06,1.61,.57,2.75,1.52,3.4,.58,.4,1.28,.61,2.1,.61,.87,0,1.57-.25,2.11-.74,.3-.27,.56-.64,.78-1.11h4.3Zm-4.17-4.93c-.07-1.11-.41-1.96-1.01-2.53-.61-.58-1.36-.86-2.25-.86-.97,0-1.73,.31-2.27,.92-.54,.61-.87,1.44-1.01,2.48h6.54Z"/><path d="M696.26,234.75v3.15l-1.99,.07c-1.99,.07-3.35-.28-4.08-1.03-.47-.48-.71-1.23-.71-2.23v-9.91h-2.24v-3h2.24v-4.49h4.17v4.49h2.61v3h-2.61v8.51c0,.66,.08,1.07,.25,1.23,.17,.16,.68,.24,1.54,.24,.13,0,.26,0,.41,0s.28-.01,.42-.02Z"/><path d="M707.06,225.54c-1.69,0-2.83,.55-3.41,1.65-.33,.62-.49,1.58-.49,2.86v7.69h-4.24v-16.1h4.02v2.81c.65-1.07,1.22-1.81,1.7-2.2,.79-.66,1.81-.99,3.07-.99,.08,0,.14,0,.2,0,.05,0,.17,.01,.36,.02v4.31c-.27-.03-.5-.05-.71-.06-.21,0-.38-.02-.5-.02Z"/><path d="M711.34,223.39c1.11-1.42,3.02-2.13,5.73-2.13,1.76,0,3.33,.35,4.7,1.05,1.37,.7,2.05,2.02,2.05,3.96v7.38c0,.51,0,1.13,.03,1.86,.03,.55,.11,.93,.25,1.12s.34,.36,.62,.49v.62h-4.58c-.13-.32-.22-.63-.27-.92s-.09-.61-.12-.97c-.58,.63-1.25,1.17-2.01,1.61-.91,.52-1.93,.78-3.07,.78-1.46,0-2.66-.42-3.61-1.25-.95-.83-1.43-2.01-1.43-3.54,0-1.98,.76-3.41,2.29-4.3,.84-.48,2.07-.83,3.69-1.03l1.43-.18c.78-.1,1.33-.22,1.67-.37,.6-.26,.9-.65,.9-1.2,0-.66-.23-1.12-.69-1.37s-1.13-.38-2.02-.38c-1,0-1.7,.25-2.11,.74-.29,.36-.49,.86-.59,1.48h-4.06c.09-1.41,.48-2.56,1.18-3.47Zm3.13,11.31c.39,.32,.88,.49,1.45,.49,.91,0,1.74-.27,2.5-.8,.76-.53,1.16-1.5,1.19-2.91v-1.57c-.27,.17-.53,.3-.8,.41-.27,.1-.64,.2-1.12,.29l-.95,.18c-.89,.16-1.52,.35-1.91,.58-.65,.38-.97,.98-.97,1.79,0,.72,.2,1.24,.61,1.55Z"/><path d="M731.88,215.85v3.88h-4.27v-3.88h4.27Zm0,5.8v16.1h-4.27v-16.1h4.27Z"/><path d="M743.54,224.77c-1.43,0-2.41,.61-2.94,1.82-.28,.64-.41,1.46-.41,2.45v8.71h-4.19v-16.07h4.06v2.35c.54-.83,1.05-1.42,1.54-1.79,.87-.65,1.96-.97,3.29-.97,1.66,0,3.03,.44,4.08,1.31,1.06,.87,1.59,2.32,1.59,4.33v10.84h-4.31v-9.79c0-.85-.11-1.5-.34-1.95-.41-.83-1.2-1.24-2.36-1.24Z"/><path d="M768.21,233.02c-.11,.96-.61,1.92-1.49,2.91-1.38,1.57-3.31,2.35-5.79,2.35-2.05,0-3.85-.66-5.42-1.98s-2.35-3.47-2.35-6.44c0-2.79,.71-4.92,2.12-6.41,1.41-1.49,3.25-2.23,5.5-2.23,1.34,0,2.54,.25,3.62,.75,1.07,.5,1.96,1.29,2.66,2.38,.63,.96,1.04,2.06,1.23,3.32,.11,.74,.15,1.8,.13,3.19h-11.02c.06,1.61,.57,2.75,1.52,3.4,.58,.4,1.28,.61,2.1,.61,.87,0,1.57-.25,2.11-.74,.3-.27,.56-.64,.78-1.11h4.3Zm-4.17-4.93c-.07-1.11-.41-1.96-1.01-2.53-.61-.58-1.36-.86-2.25-.86-.97,0-1.73,.31-2.27,.92-.54,.61-.87,1.44-1.01,2.48h6.54Z"/><path d="M785.91,216.01v21.74h-4.09v-2.23c-.6,.96-1.29,1.65-2.05,2.08-.77,.43-1.72,.65-2.87,.65-1.88,0-3.46-.76-4.75-2.28-1.28-1.52-1.93-3.47-1.93-5.86,0-2.75,.63-4.91,1.9-6.48,1.26-1.58,2.96-2.36,5.07-2.36,.97,0,1.84,.21,2.6,.64s1.37,1.02,1.85,1.78v-7.68h4.27Zm-11.34,13.79c0,1.49,.29,2.67,.89,3.56,.58,.9,1.47,1.34,2.66,1.34s2.1-.44,2.72-1.33c.62-.89,.93-2.03,.93-3.44,0-1.97-.5-3.38-1.49-4.22-.61-.51-1.32-.77-2.13-.77-1.23,0-2.13,.46-2.71,1.4-.58,.93-.86,2.08-.86,3.46Z"/><path d="M595.96,252.27h4.55v17.85h10.78v3.91h-15.33v-21.77Z"/><path d="M614.71,259.69c1.11-1.42,3.02-2.13,5.73-2.13,1.76,0,3.33,.35,4.7,1.05,1.37,.7,2.05,2.02,2.05,3.96v7.38c0,.51,0,1.13,.03,1.86,.03,.55,.11,.93,.25,1.12s.34,.36,.62,.49v.62h-4.58c-.13-.32-.22-.63-.27-.92s-.09-.61-.12-.97c-.58,.63-1.25,1.17-2.01,1.61-.91,.52-1.93,.78-3.07,.78-1.46,0-2.66-.42-3.61-1.25-.95-.83-1.43-2.01-1.43-3.54,0-1.98,.76-3.41,2.29-4.3,.84-.48,2.07-.83,3.69-1.03l1.43-.18c.78-.1,1.33-.22,1.67-.37,.6-.26,.9-.65,.9-1.2,0-.66-.23-1.12-.69-1.37s-1.13-.38-2.02-.38c-1,0-1.7,.25-2.11,.74-.29,.36-.49,.86-.59,1.48h-4.06c.09-1.41,.48-2.56,1.18-3.47Zm3.13,11.31c.39,.32,.88,.49,1.45,.49,.91,0,1.74-.27,2.5-.8,.76-.53,1.16-1.5,1.19-2.91v-1.57c-.27,.17-.53,.3-.8,.41-.27,.1-.64,.2-1.12,.29l-.95,.18c-.89,.16-1.52,.35-1.91,.58-.65,.38-.97,.98-.97,1.79,0,.72,.2,1.24,.61,1.55Z"/><path d="M638.5,261.06c-1.43,0-2.41,.61-2.94,1.82-.28,.64-.41,1.46-.41,2.45v8.71h-4.19v-16.07h4.06v2.35c.54-.83,1.05-1.42,1.54-1.79,.87-.65,1.96-.97,3.29-.97,1.66,0,3.03,.44,4.08,1.31,1.06,.87,1.59,2.32,1.59,4.33v10.84h-4.31v-9.79c0-.85-.11-1.5-.34-1.95-.41-.83-1.2-1.24-2.36-1.24Z"/><path d="M653.94,276.86c.45,.38,1.22,.58,2.29,.58,1.52,0,2.53-.51,3.04-1.52,.33-.65,.5-1.74,.5-3.28v-1.03c-.4,.69-.84,1.21-1.3,1.55-.84,.64-1.93,.96-3.26,.96-2.07,0-3.72-.73-4.96-2.18s-1.85-3.42-1.85-5.9,.6-4.4,1.79-6.03,2.88-2.44,5.07-2.44c.81,0,1.51,.12,2.11,.37,1.02,.42,1.85,1.2,2.48,2.33v-2.32h4.09v15.27c0,2.08-.35,3.64-1.05,4.7-1.2,1.81-3.5,2.72-6.91,2.72-2.06,0-3.74-.4-5.04-1.21s-2.02-2.01-2.16-3.62h4.58c.12,.49,.31,.85,.58,1.06Zm-.71-8.31c.57,1.36,1.59,2.04,3.07,2.04,.98,0,1.82-.37,2.5-1.12,.68-.74,1.02-1.93,1.02-3.55,0-1.53-.32-2.69-.97-3.49-.64-.8-1.51-1.2-2.59-1.2-1.48,0-2.5,.69-3.06,2.08-.3,.74-.44,1.65-.44,2.73,0,.94,.16,1.77,.47,2.5Z"/><path d="M678.19,271.77s-.14,.2-.3,.44c-.16,.25-.34,.46-.56,.65-.66,.59-1.3,.99-1.91,1.21-.62,.22-1.34,.33-2.16,.33-2.38,0-3.99-.86-4.81-2.57-.46-.94-.69-2.34-.69-4.18v-9.7h4.31v9.7c0,.92,.11,1.6,.33,2.07,.38,.82,1.14,1.23,2.26,1.23,1.44,0,2.42-.58,2.95-1.74,.28-.63,.41-1.46,.41-2.5v-8.76h4.27v16.1h-4.09v-2.27Z"/><path d="M686.95,259.69c1.11-1.42,3.02-2.13,5.73-2.13,1.76,0,3.33,.35,4.7,1.05,1.37,.7,2.05,2.02,2.05,3.96v7.38c0,.51,0,1.13,.03,1.86,.03,.55,.11,.93,.25,1.12s.34,.36,.62,.49v.62h-4.58c-.13-.32-.22-.63-.27-.92s-.09-.61-.12-.97c-.58,.63-1.25,1.17-2.01,1.61-.91,.52-1.93,.78-3.07,.78-1.46,0-2.66-.42-3.61-1.25-.95-.83-1.43-2.01-1.43-3.54,0-1.98,.76-3.41,2.29-4.3,.84-.48,2.07-.83,3.69-1.03l1.43-.18c.78-.1,1.33-.22,1.67-.37,.6-.26,.9-.65,.9-1.2,0-.66-.23-1.12-.69-1.37s-1.13-.38-2.02-.38c-1,0-1.7,.25-2.11,.74-.29,.36-.49,.86-.59,1.48h-4.06c.09-1.41,.48-2.56,1.18-3.47Zm3.13,11.31c.39,.32,.88,.49,1.45,.49,.91,0,1.74-.27,2.5-.8,.76-.53,1.16-1.5,1.19-2.91v-1.57c-.27,.17-.53,.3-.8,.41-.27,.1-.64,.2-1.12,.29l-.95,.18c-.89,.16-1.52,.35-1.91,.58-.65,.38-.97,.98-.97,1.79,0,.72,.2,1.24,.61,1.55Z"/><path d="M707.71,276.86c.45,.38,1.22,.58,2.29,.58,1.52,0,2.53-.51,3.04-1.52,.33-.65,.5-1.74,.5-3.28v-1.03c-.4,.69-.84,1.21-1.3,1.55-.84,.64-1.93,.96-3.26,.96-2.07,0-3.72-.73-4.96-2.18s-1.85-3.42-1.85-5.9,.6-4.4,1.79-6.03,2.88-2.44,5.07-2.44c.81,0,1.51,.12,2.11,.37,1.02,.42,1.85,1.2,2.48,2.33v-2.32h4.09v15.27c0,2.08-.35,3.64-1.05,4.7-1.2,1.81-3.5,2.72-6.91,2.72-2.06,0-3.74-.4-5.04-1.21s-2.02-2.01-2.16-3.62h4.58c.12,.49,.31,.85,.58,1.06Zm-.71-8.31c.57,1.36,1.59,2.04,3.07,2.04,.98,0,1.82-.37,2.5-1.12,.68-.74,1.02-1.93,1.02-3.55,0-1.53-.32-2.69-.97-3.49-.64-.8-1.51-1.2-2.59-1.2-1.48,0-2.5,.69-3.06,2.08-.3,.74-.44,1.65-.44,2.73,0,.94,.16,1.77,.47,2.5Z"/><path d="M735.42,269.32c-.11,.96-.61,1.92-1.49,2.91-1.38,1.57-3.31,2.35-5.79,2.35-2.05,0-3.85-.66-5.42-1.98s-2.35-3.47-2.35-6.44c0-2.79,.71-4.92,2.12-6.41,1.41-1.49,3.25-2.23,5.5-2.23,1.34,0,2.54,.25,3.62,.75,1.07,.5,1.96,1.29,2.66,2.38,.63,.96,1.04,2.06,1.23,3.32,.11,.74,.15,1.8,.13,3.19h-11.02c.06,1.61,.57,2.75,1.52,3.4,.58,.4,1.28,.61,2.1,.61,.87,0,1.57-.25,2.11-.74,.3-.27,.56-.64,.78-1.11h4.3Zm-4.17-4.93c-.07-1.11-.41-1.96-1.01-2.53-.61-.58-1.36-.86-2.25-.86-.97,0-1.73,.31-2.27,.92-.54,.61-.87,1.44-1.01,2.48h6.54Z"/><path d="M751.37,274.04h-4.24v-21.77h6.62l3.96,17.12,3.93-17.12h6.54v21.77h-4.24v-14.72c0-.42,0-1.02,.01-1.78,0-.76,.01-1.35,.01-1.76l-4.12,18.27h-4.42l-4.09-18.27c0,.41,0,1,.02,1.76,0,.76,.01,1.36,.01,1.78v14.72Z"/><path d="M785.48,259.98c1.36,1.7,2.04,3.72,2.04,6.04s-.68,4.38-2.04,6.06c-1.36,1.68-3.42,2.52-6.19,2.52s-4.83-.84-6.19-2.52-2.04-3.7-2.04-6.06,.68-4.34,2.04-6.04,3.42-2.56,6.19-2.56,4.83,.85,6.19,2.56Zm-6.2,1c-1.23,0-2.18,.44-2.84,1.31-.66,.87-1,2.11-1,3.73s.33,2.86,1,3.74c.67,.88,1.61,1.31,2.84,1.31s2.18-.44,2.84-1.31c.66-.88,.99-2.12,.99-3.74s-.33-2.86-.99-3.73c-.66-.87-1.61-1.31-2.84-1.31Z"/><path d="M805.18,252.3v21.74h-4.09v-2.23c-.6,.96-1.29,1.65-2.05,2.08-.77,.43-1.72,.65-2.87,.65-1.88,0-3.46-.76-4.75-2.28-1.28-1.52-1.93-3.47-1.93-5.86,0-2.75,.63-4.91,1.9-6.48,1.26-1.58,2.96-2.36,5.07-2.36,.97,0,1.84,.21,2.6,.64s1.37,1.02,1.85,1.78v-7.68h4.27Zm-11.34,13.79c0,1.49,.29,2.67,.89,3.56,.58,.9,1.47,1.34,2.66,1.34s2.1-.44,2.72-1.33c.62-.89,.93-2.03,.93-3.44,0-1.97-.5-3.38-1.49-4.22-.61-.51-1.32-.77-2.13-.77-1.23,0-2.13,.46-2.71,1.4-.58,.93-.86,2.08-.86,3.46Z"/><path d="M822.79,269.32c-.11,.96-.61,1.92-1.49,2.91-1.38,1.57-3.31,2.35-5.79,2.35-2.05,0-3.85-.66-5.42-1.98s-2.35-3.47-2.35-6.44c0-2.79,.71-4.92,2.12-6.41,1.41-1.49,3.25-2.23,5.5-2.23,1.34,0,2.54,.25,3.62,.75,1.07,.5,1.96,1.29,2.66,2.38,.63,.96,1.04,2.06,1.23,3.32,.11,.74,.15,1.8,.13,3.19h-11.02c.06,1.61,.57,2.75,1.52,3.4,.58,.4,1.28,.61,2.1,.61,.87,0,1.57-.25,2.11-.74,.3-.27,.56-.64,.78-1.11h4.3Zm-4.17-4.93c-.07-1.11-.41-1.96-1.01-2.53-.61-.58-1.36-.86-2.25-.86-.97,0-1.73,.31-2.27,.92-.54,.61-.87,1.44-1.01,2.48h6.54Z"/><path d="M825.92,252.27h4.21v21.77h-4.21v-21.77Z"/></g><g><path d="M613.08,113.31h-10.57v5.6h12.05v3.91h-16.5v-21.77h15.96v3.85h-11.52v4.62h10.57v3.78Z"/><path d="M625.33,109.84c-1.43,0-2.41,.61-2.94,1.82-.28,.64-.41,1.46-.41,2.45v8.71h-4.19v-16.07h4.06v2.35c.54-.83,1.05-1.42,1.54-1.79,.87-.65,1.96-.97,3.29-.97,1.66,0,3.03,.44,4.08,1.31,1.06,.87,1.59,2.32,1.59,4.33v10.84h-4.31v-9.79c0-.85-.11-1.5-.34-1.95-.41-.83-1.2-1.24-2.36-1.24Z"/><path d="M650.16,112.5h-4.31c-.08-.6-.28-1.14-.61-1.62-.47-.65-1.21-.97-2.2-.97-1.42,0-2.39,.7-2.91,2.11-.28,.75-.41,1.74-.41,2.98s.14,2.13,.41,2.85c.5,1.34,1.45,2.01,2.83,2.01,.98,0,1.68-.27,2.1-.8,.41-.53,.66-1.22,.75-2.07h4.3c-.1,1.28-.56,2.49-1.39,3.63-1.32,1.84-3.27,2.76-5.86,2.76s-4.49-.77-5.71-2.3c-1.22-1.54-1.83-3.53-1.83-5.98,0-2.77,.67-4.92,2.02-6.45,1.35-1.54,3.21-2.3,5.58-2.3,2.02,0,3.67,.45,4.95,1.36,1.29,.91,2.05,2.51,2.28,4.8Z"/><path d="M653.14,101.05h4.21v21.77h-4.21v-21.77Z"/><path d="M662.06,108.46c1.11-1.42,3.02-2.13,5.73-2.13,1.76,0,3.33,.35,4.7,1.05,1.37,.7,2.05,2.02,2.05,3.96v7.38c0,.51,0,1.13,.03,1.86,.03,.55,.11,.93,.25,1.12s.34,.36,.62,.49v.62h-4.58c-.13-.32-.22-.63-.27-.92s-.09-.61-.12-.97c-.58,.63-1.25,1.17-2.01,1.61-.91,.52-1.93,.78-3.07,.78-1.46,0-2.66-.42-3.61-1.25-.95-.83-1.43-2.01-1.43-3.54,0-1.98,.76-3.41,2.29-4.3,.84-.48,2.07-.83,3.69-1.03l1.43-.18c.78-.1,1.33-.22,1.67-.37,.6-.26,.9-.65,.9-1.2,0-.66-.23-1.12-.69-1.37s-1.13-.38-2.02-.38c-1,0-1.7,.25-2.11,.74-.29,.36-.49,.86-.59,1.48h-4.06c.09-1.41,.48-2.56,1.18-3.47Zm3.13,11.31c.39,.32,.88,.49,1.45,.49,.91,0,1.74-.27,2.5-.8,.76-.53,1.16-1.5,1.19-2.91v-1.57c-.27,.17-.53,.3-.8,.41-.27,.1-.64,.2-1.12,.29l-.95,.18c-.89,.16-1.52,.35-1.91,.58-.65,.38-.97,.98-.97,1.79,0,.72,.2,1.24,.61,1.55Z"/><path d="M676.7,106.72h4.73l3.35,11.87,3.43-11.87h4.52l-5.8,16.1h-4.45l-5.77-16.1Z"/><path d="M708.88,118.09c-.11,.96-.61,1.92-1.49,2.91-1.38,1.57-3.31,2.35-5.79,2.35-2.05,0-3.85-.66-5.42-1.98s-2.35-3.47-2.35-6.44c0-2.79,.71-4.92,2.12-6.41,1.41-1.49,3.25-2.23,5.5-2.23,1.34,0,2.54,.25,3.62,.75,1.07,.5,1.96,1.29,2.66,2.38,.63,.96,1.04,2.06,1.23,3.32,.11,.74,.15,1.8,.13,3.19h-11.02c.06,1.61,.57,2.75,1.52,3.4,.58,.4,1.28,.61,2.1,.61,.87,0,1.57-.25,2.11-.74,.3-.27,.56-.64,.78-1.11h4.3Zm-4.17-4.93c-.07-1.11-.41-1.96-1.01-2.53-.61-.58-1.36-.86-2.25-.86-.97,0-1.73,.31-2.27,.92-.54,.61-.87,1.44-1.01,2.48h6.54Z"/><path d="M739.95,122.82h-5.85l-6.72-9.51-2.17,2.23v7.28h-4.47v-21.77h4.47v8.96l8.4-8.96h5.88l-8.92,8.96,9.38,12.8Z"/><path d="M755.94,118.09c-.11,.96-.61,1.92-1.49,2.91-1.38,1.57-3.31,2.35-5.79,2.35-2.05,0-3.85-.66-5.42-1.98s-2.35-3.47-2.35-6.44c0-2.79,.71-4.92,2.12-6.41,1.41-1.49,3.25-2.23,5.5-2.23,1.34,0,2.54,.25,3.62,.75,1.07,.5,1.96,1.29,2.66,2.38,.63,.96,1.04,2.06,1.23,3.32,.11,.74,.15,1.8,.13,3.19h-11.02c.06,1.61,.57,2.75,1.52,3.4,.58,.4,1.28,.61,2.1,.61,.87,0,1.57-.25,2.11-.74,.3-.27,.56-.64,.78-1.11h4.3Zm-4.17-4.93c-.07-1.11-.41-1.96-1.01-2.53-.61-.58-1.36-.86-2.25-.86-.97,0-1.73,.31-2.27,.92-.54,.61-.87,1.44-1.01,2.48h6.54Z"/><path d="M765.53,118.59l3.32-11.87h4.47l-5.52,15.83c-1.06,3.05-1.9,4.94-2.53,5.68-.62,.73-1.86,1.1-3.72,1.1-.38,0-.67,0-.9,0s-.57-.02-1.02-.05v-3.37l.53,.03c.41,.02,.81,0,1.18-.04s.69-.16,.95-.34c.25-.17,.47-.52,.69-1.05s.3-.86,.26-.97l-5.91-16.81h4.68l3.52,11.87Z"/><path d="M789.29,108.45c1.3,1.39,1.95,3.43,1.95,6.11,0,2.84-.64,5-1.91,6.48-1.28,1.49-2.92,2.23-4.92,2.23-1.28,0-2.34-.32-3.19-.96-.46-.35-.92-.87-1.36-1.55v8.39h-4.17v-22.43h4.03v2.38c.45-.7,.93-1.25,1.45-1.65,.93-.72,2.05-1.08,3.34-1.08,1.88,0,3.48,.69,4.79,2.08Zm-2.39,6.32c0-1.24-.28-2.34-.85-3.29-.57-.96-1.48-1.43-2.75-1.43-1.53,0-2.57,.72-3.15,2.17-.29,.77-.44,1.74-.44,2.92,0,1.87,.5,3.19,1.49,3.94,.59,.44,1.29,.66,2.1,.66,1.17,0,2.07-.45,2.68-1.36s.92-2.11,.92-3.62Z"/><path d="M794.89,108.46c1.11-1.42,3.02-2.13,5.73-2.13,1.76,0,3.33,.35,4.7,1.05,1.37,.7,2.05,2.02,2.05,3.96v7.38c0,.51,0,1.13,.03,1.86,.03,.55,.11,.93,.25,1.12s.34,.36,.62,.49v.62h-4.58c-.13-.32-.22-.63-.27-.92s-.09-.61-.12-.97c-.58,.63-1.25,1.17-2.01,1.61-.91,.52-1.93,.78-3.07,.78-1.46,0-2.66-.42-3.61-1.25-.95-.83-1.43-2.01-1.43-3.54,0-1.98,.76-3.41,2.29-4.3,.84-.48,2.07-.83,3.69-1.03l1.43-.18c.78-.1,1.33-.22,1.67-.37,.6-.26,.9-.65,.9-1.2,0-.66-.23-1.12-.69-1.37s-1.13-.38-2.02-.38c-1,0-1.7,.25-2.11,.74-.29,.36-.49,.86-.59,1.48h-4.06c.09-1.41,.48-2.56,1.18-3.47Zm3.13,11.31c.39,.32,.88,.49,1.45,.49,.91,0,1.74-.27,2.5-.8,.76-.53,1.16-1.5,1.19-2.91v-1.57c-.27,.17-.53,.3-.8,.41-.27,.1-.64,.2-1.12,.29l-.95,.18c-.89,.16-1.52,.35-1.91,.58-.65,.38-.97,.98-.97,1.79,0,.72,.2,1.24,.61,1.55Z"/><path d="M815.43,100.92v3.88h-4.27v-3.88h4.27Zm0,5.8v16.1h-4.27v-16.1h4.27Z"/><path d="M827.6,110.6c-1.69,0-2.83,.55-3.41,1.65-.33,.62-.49,1.58-.49,2.86v7.69h-4.24v-16.1h4.02v2.81c.65-1.07,1.22-1.81,1.7-2.2,.79-.66,1.81-.99,3.07-.99,.08,0,.14,0,.2,0,.05,0,.17,.01,.36,.02v4.31c-.27-.03-.5-.05-.71-.06-.21,0-.38-.02-.5-.02Z"/><path d="M832.74,111.76v-4.4h4.48v4.4h-4.48Zm4.48,6.66v4.4h-4.48v-4.4h4.48Z"/><path d="M675.35,165.21l-1.05-1.43c-.68-.87-1.4-2.16-2.17-3.87-1.37-3.06-2.05-6.07-2.05-9.04,0-2.7,.58-5.38,1.73-8.03,.78-1.81,1.92-3.76,3.41-5.85h3.17l-.9,1.65c-1.24,2.27-2.1,4.66-2.58,7.15-.32,1.63-.47,3.42-.47,5.35,0,3.01,.44,5.78,1.31,8.31,.51,1.5,1.42,3.42,2.72,5.76h-3.12Z"/><path d="M691.89,143.75c1.26,.81,1.98,2.2,2.17,4.16h-4.21c-.06-.54-.21-.97-.46-1.28-.46-.57-1.25-.86-2.36-.86-.92,0-1.57,.14-1.96,.43s-.58,.62-.58,1c0,.48,.21,.83,.62,1.05,.41,.23,1.88,.62,4.39,1.17,1.67,.39,2.93,.99,3.77,1.79,.83,.81,1.24,1.82,1.24,3.03,0,1.6-.59,2.9-1.78,3.91-1.19,1.01-3.02,1.51-5.5,1.51s-4.4-.53-5.6-1.6c-1.21-1.07-1.81-2.43-1.81-4.08h4.27c.09,.75,.28,1.28,.58,1.59,.52,.56,1.49,.84,2.89,.84,.83,0,1.48-.12,1.97-.37s.73-.62,.73-1.11-.2-.83-.59-1.08c-.39-.25-1.86-.67-4.39-1.27-1.82-.45-3.11-1.02-3.85-1.7-.75-.67-1.12-1.63-1.12-2.89,0-1.49,.58-2.76,1.75-3.83s2.81-1.6,4.92-1.6,3.65,.4,4.92,1.2Z"/><path d="M712.39,159.11h-5.08l-3.85-6.88-1.74,1.82v5.07h-4.13v-21.69h4.13v11.73l5.24-6.06h5.21l-5.63,6.16,5.85,9.87Z"/><path d="M718.5,160.62c-.18,.73-.51,1.36-.99,1.89-.52,.57-1.13,1-1.84,1.29-.7,.29-1.19,.44-1.46,.44v-1.62c.85-.24,1.47-.63,1.87-1.18,.4-.55,.63-1.32,.69-2.32h-2.56v-4.4h4.55v3.81c0,.67-.09,1.37-.27,2.1Z"/><path d="M736.32,144.74c1.3,1.39,1.95,3.43,1.95,6.11,0,2.84-.64,5-1.91,6.48-1.28,1.49-2.92,2.23-4.92,2.23-1.28,0-2.34-.32-3.19-.96-.46-.35-.92-.87-1.36-1.55v8.39h-4.17v-22.43h4.03v2.38c.45-.7,.93-1.25,1.45-1.65,.93-.72,2.05-1.08,3.34-1.08,1.88,0,3.48,.69,4.79,2.08Zm-2.39,6.32c0-1.24-.28-2.34-.85-3.29-.57-.96-1.48-1.43-2.75-1.43-1.53,0-2.57,.72-3.15,2.17-.29,.77-.44,1.74-.44,2.92,0,1.87,.5,3.19,1.49,3.94,.59,.44,1.29,.66,2.1,.66,1.17,0,2.07-.45,2.68-1.36s.92-2.11,.92-3.62Z"/><path d="M756.08,159.11h-5.08l-3.85-6.88-1.74,1.82v5.07h-4.13v-21.69h4.13v11.73l5.24-6.06h5.21l-5.63,6.16,5.85,9.87Z"/><path d="M760.65,163.78l-1.05,1.43h-3.12c1.3-2.34,2.21-4.26,2.72-5.76,.88-2.53,1.31-5.3,1.31-8.31,0-1.93-.16-3.71-.47-5.35-.48-2.49-1.34-4.87-2.58-7.15l-.9-1.65h3.18c1.5,2.09,2.63,4.04,3.41,5.85,1.15,2.66,1.73,5.34,1.73,8.03,0,2.96-.68,5.98-2.05,9.04-.77,1.71-1.49,3-2.17,3.87Z"/></g><polygon class="d" points="492.12 143.19 394.66 143.19 394.66 133.51 378.63 149.54 394.66 165.56 394.66 155.88 492.12 155.88 492.12 143.19"/><g><path d="M403.89,113.04c-.97,.32-2.14,.49-3.5,.49-2.84,0-5.18-.85-7.03-2.54-2.24-2.04-3.37-5.03-3.37-8.98s1.15-6.99,3.46-9.02c1.88-1.66,4.22-2.5,7.01-2.5s5.18,.88,7.09,2.64c2.21,2.04,3.31,4.89,3.31,8.55,0,1.94-.24,3.56-.71,4.87-.38,1.25-.95,2.29-1.7,3.12l2.51,2.35-2.38,2.48-2.63-2.48c-.8,.48-1.49,.82-2.07,1.02Zm-.97-3.93l-2.2-2.1,2.35-2.45,2.2,2.1c.34-.71,.59-1.33,.72-1.86,.22-.8,.33-1.73,.33-2.79,0-2.44-.5-4.33-1.5-5.66-1-1.33-2.46-2-4.38-2-1.8,0-3.24,.64-4.31,1.92s-1.61,3.19-1.61,5.74c0,2.98,.77,5.12,2.3,6.41,.99,.84,2.19,1.26,3.57,1.26,.52,0,1.02-.06,1.51-.19,.27-.07,.61-.19,1.02-.37Z"/><path d="M424.31,110.65s-.14,.2-.3,.44c-.16,.25-.34,.46-.56,.65-.66,.59-1.3,.99-1.91,1.21-.62,.22-1.34,.33-2.16,.33-2.38,0-3.99-.86-4.81-2.57-.46-.94-.69-2.34-.69-4.18v-9.7h4.31v9.7c0,.92,.11,1.6,.33,2.07,.38,.82,1.14,1.23,2.26,1.23,1.44,0,2.42-.58,2.95-1.74,.28-.63,.41-1.46,.41-2.5v-8.76h4.27v16.1h-4.09v-2.27Z"/><path d="M446.24,108.2c-.11,.96-.61,1.92-1.49,2.91-1.38,1.57-3.31,2.35-5.79,2.35-2.05,0-3.85-.66-5.42-1.98s-2.35-3.47-2.35-6.44c0-2.79,.71-4.92,2.12-6.41,1.41-1.49,3.25-2.23,5.5-2.23,1.34,0,2.54,.25,3.62,.75,1.07,.5,1.96,1.29,2.66,2.38,.63,.96,1.04,2.06,1.23,3.32,.11,.74,.15,1.8,.13,3.19h-11.02c.06,1.61,.57,2.75,1.52,3.4,.58,.4,1.28,.61,2.1,.61,.87,0,1.57-.25,2.11-.74,.3-.27,.56-.64,.78-1.11h4.3Zm-4.17-4.93c-.07-1.11-.41-1.96-1.01-2.53-.61-.58-1.36-.86-2.25-.86-.97,0-1.73,.31-2.27,.92-.54,.61-.87,1.44-1.01,2.48h6.54Z"/><path d="M457.38,100.71c-1.69,0-2.83,.55-3.41,1.65-.33,.62-.49,1.58-.49,2.86v7.69h-4.24v-16.1h4.02v2.81c.65-1.07,1.22-1.81,1.7-2.2,.79-.66,1.81-.99,3.07-.99,.08,0,.14,0,.2,0,.05,0,.17,.01,.36,.02v4.31c-.27-.03-.5-.05-.71-.06-.21,0-.38-.02-.5-.02Z"/><path d="M465.38,91.02v3.88h-4.27v-3.88h4.27Zm0,5.8v16.1h-4.27v-16.1h4.27Z"/><path d="M483.24,108.2c-.11,.96-.61,1.92-1.49,2.91-1.38,1.57-3.31,2.35-5.79,2.35-2.05,0-3.85-.66-5.42-1.98s-2.35-3.47-2.35-6.44c0-2.79,.71-4.92,2.12-6.41,1.41-1.49,3.25-2.23,5.5-2.23,1.34,0,2.54,.25,3.62,.75,1.07,.5,1.96,1.29,2.66,2.38,.63,.96,1.04,2.06,1.23,3.32,.11,.74,.15,1.8,.13,3.19h-11.02c.06,1.61,.57,2.75,1.52,3.4,.58,.4,1.28,.61,2.1,.61,.87,0,1.57-.25,2.11-.74,.3-.27,.56-.64,.78-1.11h4.3Zm-4.17-4.93c-.07-1.11-.41-1.96-1.01-2.53-.61-.58-1.36-.86-2.25-.86-.97,0-1.73,.31-2.27,.92-.54,.61-.87,1.44-1.01,2.48h6.54Z"/><path d="M497.37,97.57c1.26,.81,1.98,2.2,2.17,4.16h-4.21c-.06-.54-.21-.97-.46-1.28-.46-.57-1.25-.86-2.36-.86-.92,0-1.57,.14-1.96,.43s-.58,.62-.58,1c0,.48,.21,.83,.62,1.05,.41,.23,1.88,.62,4.39,1.17,1.67,.39,2.93,.99,3.77,1.79,.83,.81,1.24,1.82,1.24,3.03,0,1.6-.59,2.9-1.78,3.91-1.19,1.01-3.02,1.51-5.5,1.51s-4.4-.53-5.6-1.6c-1.21-1.07-1.81-2.43-1.81-4.08h4.27c.09,.75,.28,1.28,.58,1.59,.52,.56,1.49,.84,2.89,.84,.83,0,1.48-.12,1.97-.37s.73-.62,.73-1.11-.2-.83-.59-1.08c-.39-.25-1.86-.67-4.39-1.27-1.82-.45-3.11-1.02-3.85-1.7-.75-.67-1.12-1.63-1.12-2.89,0-1.49,.58-2.76,1.75-3.83s2.81-1.6,4.92-1.6,3.65,.4,4.92,1.2Z"/></g><path class="d" d="M883.77,698.72c-11.83-9.54-22.45-20.7-31.66-32.89-9.22-12.22-16.88-25.51-23.19-39.53-6.28-14.03-11.29-28.66-14.63-43.6-1.64-7.46-2.93-15.01-3.51-22.48-.09-.95-.13-1.83-.18-2.74l-.07-1.35v-1.46l-.05-5.86-.06-11.78c-.13-31.52,.11-63.06,.22-94.64l.06-23.69-.03-23.62-.02-3.72,9.68-.05-16.13-15.95-15.92,16.1,9.68-.05,.02,3.71,.03,23.56-.06,23.65c-.12,31.55-.35,63.13-.22,94.74l.07,11.89,.05,5.98v1.49l.09,1.6c.06,1.07,.11,2.15,.21,3.17,.65,8.27,2.03,16.31,3.78,24.26,3.55,15.88,8.83,31.26,15.43,46.03,6.64,14.76,14.83,28.98,24.63,41.97,4.9,6.5,10.18,12.71,15.83,18.59,5.64,5.88,11.64,11.43,18.02,16.56l7.94-9.9Z"/></g></g></svg>