  <svg
      id="Layer_2"
      data-name="Layer 2"
      xmlns="http://www.w3.org/2000/svg"
      viewBox="0 0 1102.88 1101.68"
    >
      <defs>
        <style>
          {`.cls-1 {
        stroke-width: 0px;
      }`}
        </style>
      </defs>
      <g id="Layer_1-2" data-name="Layer 1">
        <g id="s3pJU4">
          <g>
            <path
              className="cls-1"
              d="M42.13,515.1c11.75-1.79,22.65,2.96,33.56,5.71,9.39,2.37,19.01,3.85,28.27,6.7,3.52,1.09,4.56-.14,5.19-3.62.95-5.25.84-11.82,6.6-14.23,6.02-2.52,12.09-5.86,19.35-3.97,7.38,1.92,8.43.69,8.86-6.72.6-10.45,1.98-20.79,5.51-30.72.17-.47.34-.96.35-1.45.42-13.2,5.61-25.31,9.64-37.48,5.85-17.65,11.96-35.25,20.41-52.05,5.8-11.53,11.5-23.14,17.88-34.32,7.8-13.66,16.94-26.54,26.91-38.77,2.13-2.61,2.43-3.93-.62-6.73-7.81-7.18-15.56-14.76-14.29-27.02.4-3.9,2.05-7.31,3.21-10.9.64-1.96,1.18-3.48-1-4.64-10.67-5.7-21.06-11.92-31.66-17.7-8.8-4.8-15.92-11.14-22.34-18.46-4.73-5.4-7.06-11.94-8.13-19.15-1.71-11.5.27-21.87,7.65-30.97,7.42-9.14,22.6-16.38,36.96-9.08,12.63,6.42,23.36,14.38,31.25,25.88,3.5,5.1,6.47,10.7,8.74,16.66,2.52,6.61,5.99,12.86,9.03,19.27,1.16,2.44,2.49,2.11,4.58.82,3.93-2.42,7.8-4.97,12.82-5.06,13.14-.23,21.33,7.27,27.23,17.7,2.08,3.67,3.36,3.25,5.86,1.16,15.96-13.37,33.93-23.67,51.82-34.14,18.2-10.65,37.45-18.98,57.01-26.6,13.54-5.28,27.22-10.48,41.23-14.2,9.51-2.52,19.32-4.43,29.04-6.37,9.57-1.91,19.26-2.88,28.8-4.8,2.38-.48,3.73-1.38,3.62-4.29-.2-5.29.22-10.61.23-15.92.01-7.43,4.57-11.91,10.25-15.38,2.78-1.7,5.53-3.65,8.89-4.41,3.04-.69,2.36-3.34,1.91-5.36-2.74-12.38-5.79-24.7-8.38-37.12-2.38-11.41-4.25-23.15-2.15-34.6,2.68-14.64,10.7-26.96,27.67-31.85,8.38-2.41,14.79.42,21.33,3.23,7.22,3.11,13.78,8.89,16.01,16.27,2.97,9.83,6.53,20.09,4.67,30.7-1.83,10.41-4.64,20.65-6.67,31.03-1.4,7.15-3.7,14.12-4.09,21.47-.16,2.93.45,5.14,3.63,6.25,10.64,3.73,17.37,10.97,17.52,22.52.05,3.98-.53,8.17-.85,12.26-.25,3.16,1.04,4.65,4.08,4.97,4.95.52,9.89,1.5,14.85,1.59,10.32.2,20.02,3.78,30.15,5.16,10.2,1.39,20.03,5.43,30.02,8.33,8.89,2.58,17.5,5.92,26.1,9.31,11.82,4.66,23.39,9.84,34.96,15.09,8.94,4.06,17.39,8.91,25.82,13.73,12.92,7.39,25.75,15.06,37.59,24.19,4.06,3.13,8.28,6.05,12.36,9.15,1.87,1.43,2.97.89,3.8-1.07,3.88-9.17,11.79-13.74,20.4-17.11,5.91-2.31,11.88-.48,17.42,2.03,4.42,2,5.81,1.13,8.03-3.3,8.61-17.23,15.66-35.59,31.42-48.11,8.24-6.55,17.34-11.98,28.13-12.36,12.54-.44,21.54,6.17,28.19,16.42,6.37,9.83,6.66,21.02,3.65,31.22-3.25,11.03-10.04,20.75-20.34,27.34-12.82,8.21-26.37,15.14-39.44,22.9-2.19,1.3-2.68,2.47-1.65,4.79,6.86,15.4,3.4,22.34-9.46,35.05-6.03,5.96-6.44,5.42-1.37,12.65,8.18,11.68,17.12,22.95,24.11,35.31,7.48,13.23,15.34,26.34,21.16,40.5,4.7,11.43,8.97,23.02,13.44,34.53,5.01,12.89,7.98,26.21,11.44,39.47,3.72,14.25,6.5,28.63,8.11,43.25.4,3.62,2.42,5.69,6.38,5.45,2.49-.15,5-.15,7.5-.03,10.9.49,22.53,5.99,20.94,18.9-.33,2.63.76,4.04,3.81,3.56,9.48-1.49,18.72-3.82,28.01-6.26,15.19-3.99,30.61-8.77,46.57-6.05,12.13,2.07,21.69,8.39,27.67,19.96,7.91,15.31,1.48,30.37-7.41,40-5.41,5.85-13.03,8.48-21.07,10.19-15.09,3.21-29.05-1.79-43.28-4.8-10.04-2.13-20.07-4.16-30.22-5.71-2.27-.35-2.01,1.04-2.18,2.32-1.4,10.69-10.65,20.11-22.59,19.34-13.88-.89-14.28-.27-15.43,13.57-.77,9.28-2.39,18.63-4.82,27.27-3.16,11.25-5.31,22.8-9.03,33.97-2.65,7.97-5.26,16.05-8.42,23.77-6.5,15.89-12.86,31.85-21.07,47.05-7.57,14.01-16.32,27.24-24.66,40.74-3.19,5.16-6.29,10.54-10.89,14.76-2.55,2.34-2.77,4.56.7,6.58,5.76,3.34,9.56,8.66,13.33,13.96,2.78,3.91,2.46,8.33,1.44,12.49-.97,3.97-1.78,8.13-4.13,11.66-2.11,3.17-1.18,4.81,2.28,6.36,9.64,4.3,19.23,8.75,28.59,13.62,8.93,4.64,17.73,9.72,24.5,17.39,7.05,7.99,9.47,17.67,9.14,28.17-.54,17.3-9.87,29.25-25.62,36.09-14.14,6.14-24.68-.39-34.65-8.07-9.82-7.56-15.64-18.44-20.66-29.82-3.51-7.95-8.58-15.24-13.33-22.58-1.29-1.99-3.09-3.36-6.72-1.52-14.5,7.38-27.3,1.54-35.39-10.99-3.16-4.9-2.92-4.62-7.85-.91-8.85,6.66-17.15,13.96-26.8,19.73-7.11,4.25-13.69,9.71-20.93,13.9-7.41,4.29-15.26,7.82-22.91,11.7-17.03,8.63-34.26,16.82-52.46,22.68-11.67,3.76-23.37,7.45-35.2,10.66-7.32,1.99-14.88,3.18-22.37,4.44-10.09,1.69-19.97,4.63-30.39,4.47-4.43-.07-3.77,3.47-2.54,6.21,5.04,11.22-.05,24.52-11.31,29.85-2.36,1.12-4.44,2.72-7.12,3.26-2.28.45-2.57,2.24-2.15,4.3,1.16,5.68,2.46,11.35,3.32,17.08,1.02,6.83,3.15,13.43,3.64,20.41.37,5.3,2.1,10.49,3.17,15.75.74,3.63.98,7.48-.11,10.88-1.18,3.68-1.65,7.45-2.63,11.13-3.49,13.13-12.01,20.45-25.04,24.08-19.18,5.34-37.5-10.9-40.54-26.81-2.59-13.55-.4-26.13,1.97-39.21,2.04-11.27,4.73-22.34,7.29-33.46.49-2.12-.11-3.71-2.55-3.89-2.67-.2-4.43-2.13-6.63-3.21-8.84-4.31-11.29-12.02-11.66-20.92-.15-3.49-.03-7-.02-10.5,0-3.27-1.68-4.81-4.87-5.1-17-1.57-33.41-6.11-50.05-9.58-17.29-3.61-33.72-9.85-50.04-16.08-19.62-7.49-38.32-17.17-56.42-28.12-11.62-7.03-22.72-14.81-34.25-21.95-5.69-3.52-10.5-8.48-15.66-12.84-4.05-3.41-6.23-3.09-9.22,1.36-5.07,7.55-11.8,12.8-20.76,15.02-5.81,1.44-11.02.06-15.4-3.69-2.71-2.33-4.46-1.79-5.99.84-4.74,8.15-8.82,16.62-12.91,25.12-7.4,15.4-17.03,29.27-34.07,35.69-2.89,1.09-5.47,2.81-8.85,2.97-14.05.63-26.81-7.07-33.53-19.63-6.13-11.47-5.61-23.77-1.97-34.84,3.66-11.16,13.28-18.96,23.74-25.14,6.42-3.79,13.16-6.92,19.74-10.31,5.23-2.69,10.62-5.29,16.02-7.72,4.41-1.98,4.56-4.14,2.21-7.96-2.15-3.49-3.86-7.29-4.35-11.55-1.1-9.48,4.8-15.54,10.6-21.46,1.73-1.76,3.58-3.83,6.38-4.59,2.87-.78.53-2.76-.01-3.36-5.82-6.47-9.41-14.5-14.72-21.24-8.57-10.9-15.62-22.7-21.94-34.93-8.73-16.88-16.44-34.22-23.22-52.03-5.07-13.31-8.94-26.85-12.7-40.53-3.7-13.46-7.34-26.82-7.97-40.89-.16-3.67-1.92-7.29-1.94-11.17-.01-2.23-1.93-2.43-3.66-2.43-4.33,0-8.67.14-13,.04-10.48-.25-18.89-8.12-19.91-18.51-.48-4.89-1.25-5.28-5.93-3.07-.9.42-1.86,1.05-2.78,1.02-10.82-.35-20.83,3.81-31.21,5.78-6.65,1.26-13.2,3.25-19.94,4.15-7.81,1.04-15.5.41-22.93-2.46-13.96-5.4-23.44-14.86-24.27-30.27-.66-12.34,4.21-22.65,14.56-30.43,8.35-6.28,17.28-8.86,27.52-7.63ZM576.23,791.98c0,2.66-.11,5.34.03,7.99.23,4.37,4.56,2.31,6.52,4.01.13.11.27.2.41.29,7.83,5.08,13.31,11.46,12.26,21.61-.21,1.98,0,3.99.02,5.99.08,6.38.51,7.15,6.96,5.92,8.58-1.64,17.17-3.32,25.7-5.34,11.09-2.63,21.44-6.9,31.75-11.17,12.04-4.98,23.45-11.49,34.93-17.77,8.62-4.71,16.73-10,24.19-16.29,6.44-5.43,6.44-5.67-.26-10.51-1.92-1.39-2.42-3.51-3.93-5.02-6.24-6.23-7.01-13.9-4.63-21.73,1.14-3.76.08-5.6-2.57-7.49-4.71-3.36-9.73-6.37-14.07-10.15-12.88-11.22-24.51-23.74-36.5-35.88-3.74-3.78-7.31-7.8-9.87-12.3-2.07-3.64-4.04-4.26-7.55-3.15-12.73,4.03-20.89,1.02-28.18-9.87-3.37-5.04-7.27-9.72-10.91-14.58-.76-1.01-1.64-1.63-2.97-1.32-1.31.31-2.14,1.22-2.12,2.45.08,5.15-.71,10.59.68,15.39,2.91,10.06.52,20.32-7.36,27.1-2.09,1.8-4.46,2.79-6.82,4-1.71.87-4.15,1.99-2.89,4.44,2.3,4.48,1.28,9.09,1.23,13.68-.11,9.99.49,20.07-.61,29.96-1.46,13.22-.99,26.59-3.41,39.72ZM505.74,659.35c-.05-1.67.22-3.16-1.45-3.7-1.24-.41-2.12.26-3.04,1.16-4.44,4.32-7.83,9.53-10.96,14.68-6.05,9.97-16.44,14.01-27.88,9.87-3.8-1.38-6.29-.08-7.37,2.77-2.42,6.39-7.89,10.14-12.15,14.77-7.69,8.37-15.45,16.69-24.05,24.25-7.35,6.46-14.65,12.75-23.26,17.4-4.72,2.56-5.67,4.83-4.14,10.1,3.31,11.34-1.35,24.33-12.95,28.86-.93.36-2.07.44-2.3,1.59-.32,1.57,1.12,1.78,2.08,2.37,1.13.69,2.23,1.44,3.29,2.24,10.13,7.71,20.52,15.04,31.98,20.69,11,5.42,22.07,10.72,33.1,16.08,17.14,8.33,35.82,11.34,54.15,15.49,3.51.79,5.3-.67,5.06-4.56-.23-3.65-.36-7.37.08-10.98.8-6.53,3.41-12.48,9.75-15.2,11.79-5.07,9.18-5.05,9.31-15.11.02-1.32-.25-2.65-.43-3.97-1.42-10.06-1.64-20.22-2.99-30.34-2.01-15.06-.83-30.59-.55-45.91.08-4.26-1.38-6.43-4.75-8.79-7.38-5.18-11.1-12.54-11.65-21.78-.45-7.53-.59-14.94,1.12-21.97ZM605.21,267.4q-9.8-.75-9.83,5.83c-.01,2.5-.39,5.05-.01,7.49,1.48,9.62-7.54,16.55-14.78,17.54-4.77.65-5.54,2.73-5.11,7.04.94,9.37,1.46,18.78,2.37,28.17,1.04,10.68,1.3,21.48,2.08,32.22.47,6.43,1.52,13.15-.48,19.35-1.4,4.35-.09,6.08,3.41,7.67,4.35,1.98,7.44,5.12,9.88,9.39,3.29,5.76,2.25,12.54,5.21,18.33.81,1.58.44,4.03-.81,5.75-2.85,3.93-1.48,8.36-1.58,12.59-.05,2.35,1.97,3.38,3.93,3.94,2.01.58,2.81-.93,3.82-2.39,3.4-4.91,6.67-9.98,10.6-14.44,7.51-8.53,14.83-13.32,27.06-8.38,1.74.7,3.79,1.11,4.76-1.12,3.06-7.06,8.7-12.13,13.98-17.24,15.34-14.87,31.7-28.62,49.45-40.57,3.75-2.52,4.6-5.28,3.17-9.29-4.41-12.34-1.2-21.52,9.98-28.26,2.79-1.68,3.03-2.86.01-4.37-7.12-3.57-13.18-8.78-20.2-12.63-9.99-5.47-20.17-10.55-30.37-15.58-6.62-3.26-13.73-5.64-20.56-8.47-15.89-6.57-32.45-9.98-45.97-12.58ZM835.11,602.56c.56-4.27-.87-6-5.43-6.19-8.18-.34-16.27-3.73-19.11-11.14-3.32-8.68-7.81-11.21-16.11-9.03-.31.08-.66.01-1,.02-25.97.35-51.93.75-77.9,1.01-3.36.03-5.2,1.08-6.99,4.2-5.62,9.82-13.72,15.89-25.83,15.04-5.82-.41-11.62-.64-17.22-2.45-2.21-.71-4.47-.97-5.71,1.4-1.25,2.37.69,3.49,2.35,4.74,4.62,3.47,9.89,5.88,14.29,9.84,11.45,10.32,12.77,14.88,6.86,29.69-.62,1.56.39,2.06,1.04,2.95,2.6,3.55,6.59,5.47,9.75,8.36,8.78,8.02,17.68,15.89,26.5,23.85,10.48,9.46,21.71,18.08,27.79,31.39,1.26,2.75,2.82,3.37,5.89,1.55,5.3-3.15,11.68-3.15,16.66-.3,5.3,3.04,10.59,6.86,14.12,12.26,1.1,1.69,2.06,1.45,3.12.26,1.2-1.36,2.36-2.79,3.35-4.3,4.97-7.6,9.04-15.68,13.28-23.7,7.22-13.64,13.25-27.68,18.41-42.2,1.66-4.68,2.56-9.62,4.47-14.05,4.61-10.71,4.59-22.25,7.41-33.18ZM318.52,577.25c0-.33,0-.65,0-.98-6,0-12,.14-17.99-.05-4.25-.13-6.68,1.15-6.53,5.88.08,2.55-1.4,4.43-3.07,6.5-4.07,5.03-9.35,6.71-15.32,8.2-3.04.76-9.29.16-8.25,6.07,1.06,6.01,1.97,12.18,3.84,17.95,2.14,6.61,3.84,13.37,5.54,20.04,3.13,12.28,8.39,23.72,13.19,35.25,4.72,11.34,11.81,21.7,17.88,32.49,6.73,11.97,6.88,11.99,17.53,3.22.38-.32.63-.87,1.05-1.05,6.98-3.07,13.62-7.98,21.74-2.17,2.57,1.84,5.66,1.68,7.56-2.52,3.94-8.7,10.1-16.06,16.96-22.53,7.59-7.16,14.97-14.52,22.46-21.79,6.13-5.94,13.07-11.06,19.8-16.37,2.31-1.83,3.5-3.45,2.74-6.67-1.79-7.54-1.87-14.61,3.37-21.54,5.77-7.62,13.96-12.03,20.83-18.14,1.2-1.07,3.18-1.45,2.71-3.64-.54-2.5-2.67-2.04-4.43-2.21-4.65-.45-8.62,2.25-13.09,2.74-15.99,1.76-26.04.45-33.35-15.97-1.25-2.81-3.48-2.71-5.81-2.71-23.12-.01-46.24,0-69.36,0ZM526.72,301.1c-.06-1.95-.27-2.23-3.43-2.64-7.78-.99-12.93-4.79-15.88-12.39-1.99-5.13-1.44-10.15-1.54-15.24-.06-3.08-.98-4.07-4.12-3.72-9.41,1.02-18.42,3.8-27.61,5.81-10.24,2.24-20.08,6.11-29.51,10.24-10.66,4.67-21.8,8.27-32.08,14.01-10.56,5.89-21.12,11.62-30.7,19.06-2.68,2.08-1.99,3,.2,4.78,10.39,8.42,12.21,16.68,6.71,29.23-1.01,2.3-.6,4.18,1.64,5.58,3.92,2.46,7.62,5.43,11,8.4,11.67,10.25,24.64,18.93,35.67,29.92,6.87,6.85,15.12,12.49,19.21,21.8,1.24,2.83,3.31,2.2,5.42,1.27,4.97-2.2,10.48-2.57,15.05-.47,9.1,4.17,14.7,12.51,20.41,20.34,1.66,2.27,2.45,4.87,5.81,3.94,3.56-.99,3.41-4.24,2.61-6.58-1.28-3.74-1.45-7.5-1.39-11.25.17-11.74,2.22-22.72,13.78-29.15,1.81-1.01,2.98-2.25,2.96-4.69-.07-11.82.04-23.65.15-35.47.04-3.82-.49-7.88.58-11.43,4.11-13.55.94-27.92,5.06-41.34ZM269.24,498.58c.43,2.29-2.49,6.44,3.74,6.54,9.32.14,19.67,7.88,22.14,17.03,1.38,5.09,4.33,5.37,8.13,4.62,13.57-2.69,27.39-2.49,41.08-3.33,14.45-.89,28.98-.34,43.48-.29,3.23.01,5.41-.5,7.14-3.86,3.19-6.22,7.64-12.61,14.73-13.55,8.49-1.13,17.49-2.71,25.9,1.63,1.71.88,4.21,1.49,5.56-.35,1.41-1.92,1.35-4.43-.22-6.52-.69-.92-1.51-1.83-2.47-2.45-5.13-3.34-9.9-7.1-14.37-11.3-6.56-6.17-10.77-12.98-7.71-22.48.79-2.46,1.48-5.15-1.36-7.23-6.8-4.95-12.84-10.72-18.75-16.73-10.07-10.26-20.21-20.42-29.31-31.58-3.23-3.97-6.3-8.15-10.02-11.61-2.25-2.09-3.84-6.21-8.82-3.85-9.45,4.48-17.72,2.43-25.1-5.37-7.01-7.4-6.82-7.29-12,1.64-4.16,7.17-7.94,14.51-11.86,21.78-5.57,10.31-10.55,20.85-14.43,31.81-2.81,7.93-6.37,15.57-8.46,23.86-2.62,10.33-6.65,20.29-7.02,31.59ZM787.04,382.95c-2.57,1.88-5.03,3.17-6.81,5.09-6.67,7.16-18.51,10.56-27.16,5.73-2.5-1.39-3.96-.41-5.19,1.85-4.72,8.67-11.59,15.7-17.92,23.11-4.93,5.77-10.51,10.96-15.6,16.6-5.56,6.16-11.64,11.62-18.49,16.37-5.36,3.72-10.33,7.65-8.88,15.96,1.36,7.75-3.18,13.61-8.74,18.95-5.49,5.28-11.22,10.25-16.96,15.23-1.06.92-2.16,1.71-1.39,3.29.67,1.38,1.6,2.64,3.24,2.86,1.99.26,4.19.41,5.74-1,2.09-1.91,4.51-1.91,7.01-1.93,4-.03,8,0,12-.04,8.53-.08,15.83,3.64,19.28,10.85,3.27,6.84,7.41,7.5,13.83,7.25,23.83-.92,47.6,1.33,71.41,1.97,4.16.11,8.36-.13,12.47.38,2.55.32,2.86-.38,3.34-2.64,1.99-9.46,11-17.31,19.95-17.78,7.21-.38,8.32-1.31,6.31-8.39-2.66-9.38-3.73-19.06-7.01-28.4-4.65-13.25-8.63-26.64-14.81-39.36-7.82-16.09-16.37-31.69-25.62-45.95ZM839.83,431.45c1.14,3.5,2.07,7.08,3.46,10.48,4.65,11.31,7.96,23.18,10.67,34.9,4.63,20,7.18,40.53,7.39,61.18.2,19.77.84,39.58-2.26,59.22-.81,5.09-1.61,10.21-2.98,15.16-3.04,10.92-5.85,21.9-9.21,32.75-3.47,11.22-7.23,22.29-11.98,33.03-2.48,5.6-5,11.18-7.53,16.76-2.94,6.47-6.36,12.68-10.21,18.63-6.02,9.31-13.3,17.87-18.87,27.35-6.96,11.85-16.65,20.99-26.26,30.15-8.46,8.06-17.6,15.53-26.7,22.98-12.22,10-25.55,18.14-38.76,26.48-7.65,4.83-16.07,8.61-24.03,12.93-10.26,5.57-20.94,9.79-31.76,13.64-10.54,3.75-21.33,6.84-32.18,9.79-14.7,3.99-29.68,6.14-44.63,6.98-22.16,1.25-44.38,1.03-66.5-3.06-13.46-2.49-26.98-4.29-40.06-8.64-8.95-2.97-17.82-6.23-26.62-9.49-13.13-4.87-25.94-10.88-38.15-17.92-7.3-4.21-14.68-8.33-21.68-13.01-8.78-5.87-16.89-12.7-25.38-18.97-14.33-10.58-27-22.87-38.99-35.9-6.57-7.14-12.05-15.22-17.95-22.95-12.19-15.98-22.29-33.11-30.28-51.51-3.02-6.97-5.72-14.15-8.81-21.01-3.7-8.21-6.87-16.7-9.17-25.14-3.48-12.74-7.39-25.45-9.8-38.52-.66-3.58-1.64-7.08-1.82-10.75-.06-1.31-.15-3.01-1.96-2.92-1.83.09-1.51,1.89-1.65,3.13-.11.99.06,2.01-.05,2.99-.83,7.19,3.32,13.48,3.64,20.49.12,2.58.6,5.19,1.43,7.79,3.19,9.94,6.25,19.99,8.56,30.11,2.03,8.87,3.05,17.73,7.62,25.96,5.9,10.62,9.78,22.18,16.03,32.8,5.52,9.38,11.07,18.83,17.35,27.59,9,12.55,17.71,25.39,29.32,36.08,9.85,9.07,19.71,18.16,29.79,26.97,10.34,9.04,22.49,15.66,33.85,23.36,13.06,8.85,27.5,15,41.56,21.9,12.3,6.03,25.28,10.5,38.29,14.61,15.85,5.01,32.19,8.3,48.56,11.28,6.73,1.22,13.72.96,20.26,2.55,12.05,2.93,24.17,2.15,35.93.53,9.31-1.29,18.85-.97,28.21-4.43,7.23-2.67,15.75-2.3,23.73-4.05,14.91-3.26,29.29-7.63,43.4-13.34,9.84-3.98,20.13-7.14,29.09-12.76,10.47-6.56,22.57-9.89,32.43-17.73,6.81-5.41,14.88-9.46,21.69-14.7,11.32-8.72,22.6-17.63,32.5-28.29,9.22-9.92,19.17-18.95,26.26-30.79,8.02-13.39,18.45-25.29,25-39.64,4.25-9.32,8.85-18.48,12.95-27.87,3.83-8.77,6.85-17.89,10.86-26.57,5.3-11.48,8.08-23.76,11.25-35.8,3.47-13.21,5.43-26.86,5.3-40.76-.02-2.09-1.39-5.61,1.03-7.73,1.77-1.55,1.54-3.48,1.78-5.45,1.17-9.66-1.67-18.97-2.43-28.45-1.58-19.63-2.65-39.35-8.77-58.31-.35-1.09-.49-2.3-.47-3.45.11-7.62-4.05-13.69-8-19.44-2.53-3.69-4.88-7.37-6.94-11.33-1.78-3.43-2.72-7.4-6.36-9.88ZM832.99,285.31c-.62-3.43-2.86-4.58-4.34-6.25-6.74-7.59-15.22-13.25-22.63-20.11-4.2-3.89-8.72-7.49-13.45-10.72-9.96-6.81-19.88-13.67-30.06-20.2-14.4-9.24-29.58-16.91-44.79-24.5-11.05-5.51-22.63-10-34.43-13.96-15.97-5.36-31.88-10.67-48.37-14.31-12.14-2.68-24.64-2.82-36.7-6.4-6.67-1.98-14.23-1.4-21.37-1.25-30.76.63-61.74-2.89-92.17,4.53-3.06.75-6.27.88-9.36,1.54-11.97,2.55-23.6,6.33-35.39,9.5-8.65,2.32-16.89,5.73-25.37,8.41-15.61,4.92-30.47,12.06-44.94,19.69-16.32,8.61-32.17,18.12-47.34,28.68-10.19,7.1-20.68,13.78-29.86,22.28-6.89,6.38-14.06,12.41-20.82,18.97-9.15,8.87-17.68,18.29-25.57,28.21-7.39,9.29-13.62,19.51-20.42,29.28-9.85,14.16-18.2,29.2-25.88,44.59-5.99,12-11.59,24.23-15.69,37.09-2.97,9.31-6.53,18.45-9.35,27.8-2.24,7.42-3.84,15.04-5.57,22.61-1.76,7.73-3.75,15.44-4.85,23.27-1.2,8.55-1.78,17.19-1.8,25.87-.04,23.32-1.08,46.65.8,69.95.86,10.72,2.31,21.34,4.76,31.8,1.81,7.73,4.24,15.37,5.87,23.05,2.2,10.34,5.96,20.01,9.67,29.72,2.08,5.45,3.93,11.29,8.34,15.69-2.47-9.07-5.65-17.88-7.95-26.96-2.71-10.73-4.73-21.59-7.18-32.36-1.32-5.81-.97-12.14-3.43-17.38-2.07-4.4-2.38-8.55-2.2-12.97,1.41-34.44-3.39-69.02,2.65-103.39,1.23-6.99,2.06-14.09,3.63-21.03,4.83-21.34,12.57-41.82,19.36-62.55,7.31-22.28,18.94-42.77,30.87-62.87,6.31-10.64,13.22-21,20.93-30.87,11.72-15.01,24.16-29.28,38.01-42.25,12.65-11.85,26.74-21.99,41.31-31.39,12.94-8.35,26.02-16.48,39.71-23.54,6.15-3.17,11.93-7.01,18.38-9.67,9.54-3.93,18.82-8.5,28.3-12.6,7.4-3.2,14.7-7.11,22.46-8.87,7.72-1.75,15.21-4.32,22.99-5.84,9.98-1.94,19.48-6,29.72-6.9,2.82-.25,5.72-.06,8.44-.69,12.86-2.99,26.04-3.49,39.02-3.31,22.22.31,44.45,1.02,66.66,3.11,13.68,1.29,26.56,5.39,39.91,7.53,5.59.9,10.61,3.81,16.04,4.62,8.42,1.26,16.21,4.49,24.23,6.86,8.81,2.6,17.16,6.76,25.7,10.28,13.93,5.75,27.31,12.73,40.44,20,9.32,5.16,18.28,11.19,27.03,17.51,11.27,8.15,22.11,16.84,33.46,24.87,7.27,5.14,13.62,11.61,22.57,15.83ZM551.14,611.14c20.36,1.31,31.47-5.11,42.44-14.68,15.25-13.3,20.93-31.47,23.11-50.84.83-7.38-2.73-14.24-5.28-20.93-4.34-11.41-13.26-19.53-22.14-27.5-8.87-7.98-19.82-11.82-31.06-14.42-10.16-2.35-19.98,1.56-29.52,4.42-12.63,3.78-22.37,12.63-30.32,22.49-11.01,13.65-14.15,30.07-11.79,47.48,1.25,9.25,5.47,17.18,10.26,25.01,4.12,6.73,9.28,12.58,15.42,17.15,11.63,8.65,24.85,13.16,38.88,11.82ZM479.16,608.28c-1-1.82-2.13-3.58-2.97-5.47-2.5-5.58-5.19-11.11-7.23-16.86-2.7-7.64-4.24-15.54-5.6-23.59-2.27-13.45-2.25-26.65,2.19-39.33,5.21-14.89,13.38-27.77,25.27-39.05,11.92-11.3,26.1-16.73,40.74-21.17,7.38-2.24,15.68-3.5,24.16-2.16,7.93,1.24,15.79,1.81,23.67,4.19,12.5,3.78,22.7,10.87,32.1,19.21,14.74,13.08,23.32,30.06,28.57,48.82.66,2.34,1.37,4.49,4.11,3.8,2.73-.69,1.84-3.41,1.47-5.11-2.12-9.64-4.85-19.12-9.01-28.1-6.39-13.77-16.22-24.72-28.34-33.7-6.24-4.63-12.83-8.64-20.03-11.69-8.67-3.67-18.05-4.32-27.06-6.23-14.23-3.01-28.68.52-42.2,4.52-21,6.21-36.94,20.58-49.48,38.1-9.01,12.59-14.82,26.87-15.65,42.77-1,19.12-.29,37.88,10.34,54.74,3.92,6.23,7.78,12.6,14.94,16.3ZM665.21,430.06c.68-.47,1.32-.74,1.71-1.21,4.57-5.63,10.04-10.37,15.11-15.5,4.88-4.93,9.5-10.27,15.28-14.02,10.34-6.71,19.37-14.94,28.68-22.87,1.84-1.57,2.88-3.53,1.36-5.65-1.42-1.99-3.36-.56-4.97.09-1.37.56-2.68,1.36-3.89,2.22-10.69,7.68-20.51,16.46-30.85,24.58-8.83,6.93-15.09,16.4-23.88,23.32-.85.67-1.52,1.86-1.78,2.93-.67,2.82.97,4.56,3.22,6.11ZM925.93,180.48c-.1-1.78-7.11-4.64-9.39-3.53-7.86,3.84-15.32,8.54-20.9,15.24-8.98,10.8-14.34,24-22.28,35.53-.76,1.11-3.39,2.85-.72,4.54,2.24,1.42,3.36-.84,4.86-2.04,6.61-5.28,9.7-13.16,14.71-19.6,5.97-7.67,11.41-15.72,19.55-21.51,3.72-2.65,7.99-3.98,11.7-6.44.92-.61,2.32-.69,2.45-2.19ZM428.27,657.66c-1.99.53-3.93,1.48-5.69,3.24-6.91,6.88-13.54,14.15-21.14,20.2-11.61,9.25-21.17,20.31-30.49,31.66-1.25,1.52-2.19,3.32-3.08,5.09-.61,1.22.01,2.29,1.16,2.93.96.54,1.45-.16,1.98-.85,8.26-10.63,18.67-19.2,27.84-28.95,4.08-4.34,8.12-9.53,13.3-11.78,4.79-2.08,8.14-4.93,11.47-8.45,2.15-2.28,4.38-4.57,6.92-6.36,1.4-.98,3.86-.7,3.09-3.43-.7-2.47-2.7-3.18-5.35-3.3ZM547.03,344.89c0-12.14,0-24.27,0-36.41,0-1.33-.09-2.65-.2-3.98-.06-.71-.49-1.31-1.23-1.28-.37.02-1.05.59-1.02.84.46,3.88-2.88,6.53-3.14,10.25-1.51,22.07-1.45,44.16-1.34,66.26.01,2.56-1.13,6.26,3.38,6.38,4.62.12,3.49-3.6,3.52-6.17.1-11.97.04-23.94.04-35.91ZM996.99,545.33c11.77,2.72,22.52-.34,33.22-1.99,7.97-1.22,15.7-3.44,23.92-3.77,3.82-.16,7.5,1.73,11.11.46,4.18-1.47,7.41,1.36,11.13,1.88,1.63.23,3.44,2.87,4.66,1.21,1.18-1.59-.68-3.74-2.14-5.07-1.7-1.54-3.15-3.41-5.41-4.32-13.23-5.33-26.36-1.49-39.03,1.62-7.22,1.78-14.63,3.51-21.77,5.93-4.93,1.67-10.69.02-15.69,4.04ZM545.02,730.56c0-5.49.05-10.97-.03-16.46-.02-1.79-.69-3.37-2.86-3.36-2.55.02-2.2,1.93-2.17,3.59.04,2.33.06,4.65.07,6.98.16,25.08-.65,50.18,1.47,75.23.18,2.08-.44,4.71,2.57,5.19,3.86.62,1.18-2.97,2.42-4.24.66-.67.48-2.2.59-3.35,1.22-13.29-1.04-26.52-.91-39.83.08-7.81-.94-15.82-1.14-23.76ZM201.4,202.81c.14-2.93-1.75-3.79-2.85-5.13-1.06-1.29-2.34-2.42-2.47-4.22-.06-.93-.57-2.15.77-2.55.91-.27,1.39.59,1.95,1.23,8.86,10.09,16.83,20.83,24.36,31.96,1.99,2.94,2.73,7.51,8.09,8.9-4.1-7.79-9.35-13.94-12.4-21.3-5.01-12.06-12.67-22.04-22.99-30.02-3.42-2.65-11.22-3.05-14.2-.33-.72-4.97-2.52-6.29-5.69-1.66-.16.24-.58.31-.89.43-3.43,1.26-1.66,2.75.08,3.57,9.29,4.39,17,10.8,24.02,18.17.4.42,1.15.51,2.22.97ZM108.1,545.72c-4.78-3.5-9.94-2.77-14.69-3.88-11.01-2.58-21.93-5.55-32.99-7.93-7.26-1.56-14.55-3.54-22.13-2.58-4.28.54-8.63,1.08-11.86,4.3-.93.92-2.52,2.17-1.63,3.85.91,1.73,2.76,1.04,4.06.66,3.99-1.16,7.94-1.88,12.15-2.1,11.82-.6,22.89,3.26,34.19,5.44,10.82,2.09,21.51,3.19,32.91,2.24ZM533.14,45.58c.17,3.15-.67,6.86.7,9.36,3.8,6.94,2.23,14.62,4.03,21.83,2.27,9.08,3.3,18.46,7.2,27.11.42.94.8,2.05,2.02,1.78,1.54-.34.6-1.56.57-2.43-.24-9.11-3.3-17.75-4.48-26.75-1.43-10.83-3.09-21.65-3.9-32.55-.54-7.21,1.91-13.29,7.96-17.77,1.46-1.08,5.18-.51,4.2-2.97-.86-2.16-4.18-.82-6.41-.6-2.08.2-3.61,1.44-4.97,3.03-4.93,5.76-8.33,12-6.92,19.95ZM377.53,370.56c-.43.22-1.1.35-1.21.66-.37,1.05.12,1.92.95,2.61,5.83,4.89,11.5,9.99,17.54,14.61,8.52,6.52,16.87,13.2,24.16,21.11,5.13,5.56,10.09,11.28,15.34,16.72,1.15,1.19,2.48,3.49,5.22,1.05,2.5-2.22,1.12-3.16-.29-4.67-4.41-4.72-8.6-9.67-13.19-14.2-11.82-11.65-25.1-21.57-38.39-31.45-3.17-2.36-6.68-4.27-10.12-6.44ZM733.42,717.46c-6.21-10.2-14.77-18.25-22.51-27-6.04-6.82-13.96-11.54-20.01-18.28-4.47-4.98-10.29-8.32-15-12.99-1.3-1.29-3.15-2.53-4.77-.65-1.68,1.96-.6,3.68,1.25,5.01,1.47,1.06,3.05,2.03,4.36,3.27,13.04,12.38,27.22,23.49,40.08,36.09,5.24,5.13,10.14,10.77,16.59,14.54ZM805.58,544.25c-1.96-2.21-3.2-1.82-4.3-1.99-10.09-1.48-20.27-.66-30.39-1.11-8.45-.38-16.95-.61-25.3-1.78-9.64-1.35-19.23-.47-28.84-.69-1.58-.04-2.38,1.01-2.38,2.6,0,1.58.79,2.51,2.35,2.67,1.16.12,2.32.14,3.49.15,17.64.06,35.28.12,52.92.15,10.45.02,20.9,0,32.47,0ZM546.21,1001.76c-2.54.9-4.2,2.44-4.62,4.75-1.28,6.99-1.74,14.18-3.62,20.99-2.12,7.66-.16,15.93-4.12,23.29-.91,1.69-1.09,4.79-.12,6.28,2.59,4,2.14,8.59,3.54,12.76.23.69.25,1.68,2.05,1.46,1.5-23.04,3.67-46.13,6.9-69.53ZM168.46,903.17c2.65-2.25,5.52-3.84,8.68-4.91,1.62-.55,2.82-1.47,4.01-2.75,9.04-9.66,19.35-17.77,30.54-24.8.93-.59,2.49-1.14,1.44-2.53-.91-1.21-2-.13-3.01.48-3.49,2.1-6.82,4.76-10.61,5.97-6.25,1.99-11.88,4.92-17.26,8.54-7.21,4.86-12.22,11.19-13.79,20ZM297.8,543.98c1.99,2.07,4.6,2.01,7.22,1.83,5.45-.38,10.77-1.67,16.33-1.62,20.5.16,41-.02,61.49-.15,1.68-.01,4.39.79,4.59-1.65.24-2.89-2.66-1.61-4.2-1.9-1.62-.31-3.32-.27-4.98-.23-14.12.32-28.25,1.02-42.37.93-11.68-.08-23.28,1.39-34.94,1.25-1.11-.01-2.4-.19-3.13,1.54ZM900.06,541.33c-4.97-.02-9.66,4.15-9.81,8.72-.16,5.21,4.9,10.84,9.65,10.74,4.74-.1,9.05-4.91,9.02-10.08-.03-5.37-3.79-9.36-8.86-9.38ZM446.97,446.48c4.42,1.67,7.33-.51,10.41-2.07,7.08-3.59,7.07-3.56,12.65,2.02,2.11,2.11,4.36,4.04,6.09,6.54,1.34,1.95,3.42,2.51,5.75,2.09,1.15-.21,2.41-.26,2.76-1.68.29-1.14-.55-1.77-1.24-2.51-3.27-3.5-6.51-7.04-9.71-10.6-4.4-4.89-9.22-6.8-12.96-4.76-5.06,2.76-9.72,6.09-13.74,10.96ZM554.14,131.76c3.97-.22,7.95-.33,11.91-.71,1.42-.14,3.27-.86,3.21-2.49-.05-1.27-1.82-1.66-3.09-2.11-7.4-2.61-15.12-2.47-22.64-1.62-4.45.5-9.24.96-13.35,3.44-2.13,1.29-2.3,3.28-1.63,5.21.74,2.12,2.59,1.79,4.17.95,6.8-3.6,14.17-2.74,21.43-2.67ZM933.12,910.77c1.61-8.63-.02-15.56-6.81-21.54-5.04-4.44-10.86-7.45-16.25-11.18-2.12-1.46-4.72-4.18-8.52-2.57,10.53,12.14,25.21,19.92,31.59,35.29ZM558.99,202.13c-.02-4.53-4.73-9.75-8.83-9.78-3.88-.03-8.79,5.52-8.76,9.89.03,3.88,5.94,10.52,9.26,10.39,3.12-.12,8.34-6.71,8.33-10.51ZM208,549.61c-.04-5.45-2.71-8.34-7.67-8.27-4.88.07-8.91,4.32-8.93,9.42-.02,5.2,3.63,9.27,8.25,9.19,4.73-.08,8.39-4.6,8.35-10.34ZM292.17,304c-.01,5.16,2.42,8.77,5.98,8.85,4.15.09,12.25-6.56,12.38-10.15.1-3.07-5.57-8.42-8.9-8.4-5.81.03-9.44,3.76-9.46,9.71ZM657.54,448.58c-.36-.49-.63-.9-.92-1.28-4.5-5.76-10.53-9.5-17.07-12.36-3.08-1.35-6.18-.44-8.5,2.35-3.5,4.19-7.05,8.34-10.63,12.47-1.07,1.23-3.77,1.93-1.41,4.14,2.03,1.91,3.84.38,5.16-1.04,2.95-3.17,6.3-5.81,9.79-8.34,4.29-3.12,8.5-4.33,13.07-.53,2.41,2.01,5.67,2.74,7.87,5.13.37.4,1.18.52,1.78.5.29-.01.56-.65.86-1.04ZM569.94,408.45c-4.35-.99-7.84-4.05-12.78-3.96-8.08.15-16.07-.08-23.85,2.9-4.04,1.55-5.4,4.01-5.02,7.94.1,1.09-.25,2.57,1.39,2.74,1.43.14,2.09-.98,2.19-2.22.28-3.41,2.56-3.76,5.29-3.76,10.1-.01,20.01-2.88,30.18-2.01.92.08,2.06.16,2.59-1.63ZM311.04,794.37c.13-5.03-3.81-9.43-8.59-9.59-4.31-.14-8.09,3.91-8.27,8.88-.18,4.9,3.66,9.09,8.47,9.26,4.62.16,8.27-3.55,8.39-8.54ZM792.19,303.58c.04,5.99,2.78,9.45,7.31,9.27,4.23-.17,8.59-5.44,8.6-10.39.02-6.25-1.76-8.22-7.32-8.14-5.57.09-8.63,3.38-8.58,9.26ZM550.25,905.28c5.9.09,8.7-2.53,8.77-8.19.06-4.6-3.97-9.26-8.17-9.48-3.57-.19-9.33,5.69-9.33,9.53,0,3.97,4.4,8.07,8.73,8.14ZM789.36,793.66c.02,4.53,4.27,9,8.66,9.07,4.51.08,8.6-4.15,8.64-8.91.04-4.92-3.48-8.55-8.27-8.53-5.29.03-9.05,3.51-9.03,8.37ZM260.93,237.38c-6.44.1-9.84,3.62-13.59,6.57-5.06,3.98-9.48,8.59-13.38,13.66-.98,1.28-2.07,3.5.02,4.87,1.89,1.23,2.94-.59,4.02-1.83,6.57-7.53,14.36-13.43,23.42-17.7,1.95-.92,5.81-.61,5.29-3.37-.44-2.34-4.46-.95-6.53-2.29-.13-.08-.32-.05.76.09ZM540.48,974.06s0,.02,0,.02c3.15,0,6.29.05,9.44-.01,4.08-.09,3.02-4.06,3.71-6.04.83-2.37-2.28-1.41-3.58-1.41-5.49-.03-11.02-.02-16.2-1.91-4.68-1.71-4.52,1.9-5.19,4.3-.87,3.09.1,5.22,3.88,5.07,2.65-.1,5.3-.02,7.95-.02ZM829.06,245.69c2.4.61,4.08-.16,5.81-.7,2.92-.92,6-1.36,8.81-.07,4.93,2.27,10.24,3.88,14.17,8.02,1.48,1.56,3.49,2.31,5.91,1.84-8.76-15.14-23.29-23.88-34.69-9.08ZM542.11,281.96s0,.07,0,.11c2.15,0,4.31.04,6.46-.01,2.01-.05,4.44.02,4.14-2.9-.23-2.27-.22-4.65-3.95-5.14-4.61-.6-9.52.45-13.75-1.2-4.93-1.92-4.89.4-4.93,3.9-.04,3.57,1.62,5.2,5.07,5.23,2.32.02,4.64,0,6.96,0ZM556.79,681.51c-4.52-2.57-8.95-4.67-13.87-5.65-2.41-.48-4.87-1.3-6.37-4.12-1.19-2.24-4.03-3.91-6.5-4.12-2.78-.24-1.82,2.84-1.55,4.19.66,3.23-2.69,8.77,2.08,9.39,8.61,1.11,17.47.31,26.22.31ZM530.83,829.28c3.09-5.48,25.1-6.08,30.44-1.27,2.12-5.64,1.06-7.56-4.54-7.65-6.81-.11-13.62-.08-20.43.08-6.13.14-7.38,2.09-5.47,8.85ZM681.45,527.41c-2.81,0-5.63.01-8.44,0-1.93-.01-3.35.44-2.78,2.84.44,1.86.74,3.06,3.53,2.76,5.94-.62,11.99-.74,17.42,2.79,1.2.78,2.81,2.63,4.29.86,1.06-1.26.68-3.26-.11-4.74-1.46-2.73-3.37-4.87-6.96-4.57-2.3.19-4.63.04-6.95.05ZM422.09,527.57s0,.08,0,.11c-3.97,0-7.93-.08-11.9.04-1.64.05-2.74,1.2-3.1,2.77-.31,1.36.86,1.59,1.83,1.81,7.75,1.74,15.45-.09,23.17-.37,1.75-.07,2.42-1.99,2.31-3.38-.13-1.59-1.85-.91-2.88-.95-3.14-.09-6.28-.03-9.42-.03ZM739.89,743.65c1.03,0,1.68.2,1.93-.03,4.87-4.58,11.62-6.21,16.6-10.68,1.53-1.37,4.56-1.66,3.03-4.49-1.43-2.64-4.47-2.68-6.58-1.24-6.13,4.17-10.88,9.71-14.98,16.44ZM361.89,743.49c-3.76-5.26-6.95-10.81-12.63-14.33-5.6-3.47-10.74-2.66-14.79,3.55,13.05-5.41,18.89,5.59,27.41,10.78ZM753.2,350.13c-3.14-6.01-7.83-10.74-12.31-15.63-.25-.27-1.36-.13-1.8.19-2.56,1.87-4.88,4.02-6.32,6.89-.32.64-.32,1.77.04,2.36.7,1.14,1.71.53,2.56-.06,4.61-3.18,8.52-2.76,12.13,1.82,1.44,1.83,3.77,2.97,5.7,4.43ZM452.65,619.44c-.46-1.94-2.22-1.18-3.19-.5-3.35,2.33-7.09,4.1-9.64,7.56-1.53,2.08-3.79,4.34-1.77,6.48,2.69,2.84,4.61-.97,5.9-2.34,3.11-3.31,7.31-5.89,8.7-11.2ZM837.75,536.03c-.16-3.2,2.51-6.57-1.32-8.36-6.55-3.05-12.58,1.33-12.12,8.48.08,1.25-.38,3.09,1.31,3.36,2.16.35,1.41-1.7,1.68-2.83.94-3.93,5.09-2.11,7.38-3.99,1.25-1.02.79,2.46,3.06,3.35ZM266.89,541.13c2.45-1.93-.25-6.77,3.79-6.36,3.68.38,1.91,4.27,2.5,6.62.29,1.17.51,2.42,2.08,2.26,1.23-.12,1.52-1.19,1.53-2.22.04-2.66.08-5.32-.03-7.97-.15-3.71-3.25-4.68-5.89-5.01-2.98-.37-4.15,2.37-4.49,4.9-.33,2.42-.6,4.94.51,7.77Z"
            />
            <path
              className="cls-1"
              d="M607.26,547.13c0,34.32-26.85,57-54.55,57-33.56,0-57.76-24.84-58.52-55.06-.9-35.79,26.06-56.49,52.52-58,32.83-1.87,61.32,25.13,60.54,56.06ZM516.98,547.77c9.76-20.51,23.84-33.87,48.82-29.19-8.34-6.76-25.39-6.1-36.84,1.32-8.76,5.67-14.39,18.79-11.98,27.87Z"
            />
          </g>
        </g>
      </g>
    </svg>