<?xml version="1.0" encoding="UTF-8"?><svg xmlns="http://www.w3.org/2000/svg" viewBox="0 0 98.5 112.75"><g id="a"/><g id="b"><g id="c"><g><path d="M.04,56.4C.04,47.68,.1,38.96,0,30.25c-.02-1.78,.62-2.69,2.11-3.54C17.15,18.09,32.15,9.42,47.13,.71c1.46-.85,2.55-1,4.11-.09,15.1,8.82,30.25,17.56,45.43,26.25,1.38,.79,1.84,1.68,1.83,3.22-.05,17.59-.05,35.19,0,52.78,0,1.49-.52,2.25-1.79,2.98-15.17,8.7-30.32,17.44-45.43,26.25-1.53,.89-2.61,.83-4.1-.03-15.11-8.81-30.26-17.55-45.43-26.25-1.31-.75-1.72-1.59-1.72-3.03,.06-8.8,.03-17.59,.03-26.39h0ZM53.71,12.81V45.2c-3.12-3.34-5.96-2.79-9.15-.06V12.93c-11.58,6.69-22.81,13.12-33.95,19.68-.71,.42-1.21,1.79-1.21,2.73-.08,12.08-.06,24.15-.05,36.23,0,.67,.1,1.34,.18,2.36,9.22-5.35,18.14-10.53,27.31-15.85,.15,2.02-.22,3.96,.54,5.22,.77,1.28,2.65,1.9,4.21,2.92-9.22,5.3-18.29,10.51-27.41,15.75,.32,.37,.41,.53,.54,.61,11.13,6.44,22.25,12.9,33.43,19.25,.66,.37,1.98,.14,2.73-.29,10.55-6.01,21.06-12.1,31.57-18.18,.51-.29,.96-.69,1.61-1.16-9.23-5.34-18.22-10.53-27.86-16.11,4.46-1.18,6.18-3.63,5.27-7.9,9.46,5.55,18.39,10.78,27.51,16.13,.11-.6,.21-.88,.21-1.17,0-12.8,.04-25.59-.06-38.39,0-.84-.9-1.98-1.69-2.45-7.21-4.28-14.49-8.44-21.76-12.64-3.79-2.19-7.58-4.36-11.95-6.87Z"/><path d="M42.94,35.24c0,3.48,.09,6.36-.06,9.23-.04,.77-.74,1.61-1.35,2.2-.61,.6-1.44,1.04-2.25,1.34-1.87,.7-2.6,2.01-2.26,3.89,.55,3.05-.63,4.91-3.52,6.06-1.88,.75-3.57,1.99-5.76,3.26,0-5.76-.02-11.01,.03-16.25,0-.46,.34-1.12,.72-1.34,4.65-2.75,9.34-5.44,14.45-8.39Z"/><path d="M55.98,35.46c4.87,2.82,9.29,5.35,13.66,7.95,.51,.31,1.08,1.04,1.09,1.59,.08,5.32,.05,10.65,.05,16.5-3.17-1.82-6.05-3.3-8.69-5.13-.61-.42-.67-2.06-.54-3.08,.35-2.89-.47-4.95-3.38-5.91-1.88-.62-2.35-1.96-2.23-3.86,.16-2.52,.04-5.06,.04-8.07Z"/><path d="M63.97,72.66c-4.86,2.82-9.25,5.39-13.69,7.89-.48,.27-1.32,.39-1.75,.15-4.72-2.64-9.39-5.37-14.27-8.19,2.87-1.65,5.44-3.26,8.15-4.6,.71-.35,2.1-.2,2.74,.3,2.75,2.15,5.28,2.32,8.1,.1,.62-.49,2.1-.45,2.9-.07,2.55,1.25,4.97,2.77,7.83,4.42Z"/><path d="M54.16,63.48h-9.27c.38-1.36,.7-2.58,1.08-3.78,.63-2.01,1.5-3.86,.01-6.06-.94-1.39-.28-3.43,1.29-4.12,1.26-.56,3.1-.58,4.4-.09,1.65,.63,2.29,2.69,1.41,4.07-1.64,2.55-.35,4.69,.23,6.99,.23,.92,.52,1.82,.86,3Z"/><path d="M76.47,35.69c3.01,.03,5.47,2.54,5.42,5.53-.05,2.94-2.69,5.51-5.58,5.44-3-.07-5.4-2.58-5.37-5.59,.03-3.06,2.45-5.4,5.53-5.37Z"/><path d="M54.59,87.26c-.03,3.08-2.42,5.42-5.5,5.38-3.12-.05-5.38-2.37-5.36-5.5,.02-3.07,2.42-5.41,5.49-5.38,3.07,.03,5.41,2.43,5.38,5.5Z"/><path d="M22.18,35.68c3.07,.04,5.42,2.44,5.39,5.51-.02,2.99-2.56,5.49-5.52,5.45-2.95-.04-5.48-2.64-5.43-5.57,.05-3.01,2.53-5.42,5.56-5.38Z"/></g></g></g></svg>