<?xml version="1.0" encoding="UTF-8"?><svg xmlns="http://www.w3.org/2000/svg" viewBox="0 0 335.16 356.99"><defs><style>.d{fill:none;stroke:#000;stroke-miterlimit:10;stroke-width:3px;}</style></defs><g id="a"/><g id="b"><g id="c"><g><path d="M4.5,356.96v-8.79h2.77c29.11,0,58.22,0,87.33,0,7.13,0,13.89-1.6,20.31-4.64,10.61-5.02,16.97-13.41,19.15-24.89,1.47-7.75,1.3-15.52-.97-23.12-3.73-12.53-12.58-19.84-24.73-23.45-4.04-1.2-8.28-1.75-12.58-2.64v-8.36c6.61-.13,12.76-1.63,18.59-4.33,12.44-5.76,18.88-15.7,20.25-29.17,.83-8.17,.18-16.17-3.24-23.69-4.89-10.74-13.82-16.53-24.89-19.38-3.47-.89-7.06-1.31-10.73-1.97v-8.02c3.98-.77,7.85-1.25,11.57-2.28,17.49-4.85,26.91-16.87,27.57-35,.29-8.04-.78-15.84-4.83-22.96-5.31-9.36-13.8-14.35-23.92-16.89-3.33-.84-6.78-1.19-10.38-1.8v-8.12c3.67-.68,7.39-1.14,10.98-2.09,10.9-2.86,19.69-8.6,24.56-19.18,3.37-7.32,4.08-15.08,3.39-23.04-.65-7.51-2.8-14.43-7.63-20.34-5.97-7.31-13.99-11.14-23.02-12.95-3.37-.68-6.88-.99-10.32-1-28.76-.08-57.51-.04-86.27-.04h-2.89V.03c.8,0,1.55,0,2.31,0,29.18,0,58.36-.08,87.54,.04,10.91,.04,21.15,2.88,30.29,9,10.15,6.8,15.97,16.45,17.97,28.4,1.74,10.37,1.26,20.6-2.69,30.49-4.08,10.22-11.34,17.43-21.15,22.21-.81,.39-1.61,.79-2.33,1.15,3.15,1.88,6.35,3.53,9.27,5.57,8.48,5.94,13.82,14.13,16.16,24.15,2.71,11.57,2.4,23.04-2.07,34.2-4.07,10.15-11.35,17.26-21.09,22-.75,.36-1.5,.72-2.56,1.22,.9,.46,1.55,.8,2.21,1.12,14.67,7.07,22.75,18.83,24.67,34.9,1.12,9.42,.46,18.65-3.11,27.55-4.09,10.22-11.36,17.42-21.15,22.23-.79,.39-1.6,.75-2.51,1.18,2.67,1.48,5.28,2.74,7.69,4.3,11.09,7.2,17.15,17.62,18.95,30.55,1.32,9.45,.82,18.81-2.6,27.83-5.06,13.35-15.01,21.45-28.25,25.87-5.95,1.99-12.09,2.96-18.36,2.96-28.83,0-57.65,0-86.48,0-.84,0-1.68,0-2.78,0Z"/><path d="M243.73,87.47v8.21c-2.8,.4-5.59,.7-8.33,1.22-5.04,.96-9.79,2.73-14.2,5.4-7.42,4.48-12.45,10.84-14.8,19.19-2.53,8.99-2.61,18.08,.03,27.04,3.93,13.35,13.61,20.56,26.55,23.96,3.46,.91,7.07,1.31,10.73,1.96v8.08c-3.79,.69-7.53,1.12-11.12,2.07-18.51,4.93-28.09,17.95-27.98,37.69,.06,10.25,2.46,19.64,9.91,27.17,6.33,6.39,14.27,9.52,22.94,11.05,2,.35,4.05,.45,6.2,.68v8.27c-4.14,.84-8.34,1.42-12.38,2.58-10.16,2.91-18.62,8.42-22.87,18.41-5.83,13.69-5.74,27.52,1.86,40.61,5.14,8.85,13.65,13.36,23.33,15.64,3.82,.9,7.83,1.4,11.75,1.42,27.48,.12,54.96,.06,82.44,.06h2.85v8.79c-.82,0-1.51,0-2.2,0-27.84,0-55.67,.09-83.51-.04-10.91-.05-21.13-2.92-30.27-9.06-9.05-6.08-14.77-14.55-17.21-25.13-2.64-11.44-2.28-22.76,2.07-33.79,3.99-10.1,11.19-17.2,20.8-22,.87-.44,1.77-.83,2.83-1.33-2.6-1.42-5.12-2.61-7.44-4.1-11.99-7.71-18.06-18.98-19.5-32.93-.95-9.14-.16-18.08,3.3-26.7,4.08-10.15,11.31-17.29,21.01-22.08,.76-.37,1.52-.74,2.28-1.11,.04-.02,.04-.12,.03-.11-3.14-1.88-6.41-3.55-9.35-5.67-10.68-7.69-15.93-18.48-17.26-31.34-.95-9.14-.17-18.08,3.28-26.7,4.1-10.23,11.4-17.39,21.18-22.19,.76-.37,1.54-.7,2.66-1.21-.91-.43-1.58-.74-2.23-1.06-15.25-7.35-23.27-19.66-24.92-36.33-.99-9.97,.02-19.69,4.43-28.8,6.02-12.46,16.42-19.63,29.45-23.04,5.15-1.35,10.6-2.09,15.92-2.13,27.34-.21,54.68-.1,82.02-.1h2.65V8.82h-2.63c-27.76,0-55.53,0-83.29,0-7.57,0-14.73,1.78-21.43,5.26-9.2,4.77-15.09,12.19-17.42,22.33-1.88,8.15-1.89,16.32,.33,24.38,3.75,13.59,13.36,21.06,26.47,24.58,3.53,.95,7.2,1.39,11.04,2.1Z"/><path d="M178.58,.15h8.43V356.84h-8.43V.15Z"/><path d="M152.55,.13h8.32V356.8h-8.32V.13Z"/></g><path class="d" d="M331.73,332.48c-2.85-6.28-16.74-10.44-25.98-14.34-9.23-3.9-7.97-6.27-8.3-9.5-.04-.43-.07-.88-.09-1.35,2.77-2.6,5.04-5.98,6.56-9.82,0,0,.09-.22,.11-.28,.35-.92,.67-1.88,.94-2.86,2.12-.41,3.35-2.62,3.82-4.65,.48-.83,1.46-2.86,1.24-5.17-.28-2.84-1.43-4.21-2.76-4.83,.36-.83,.69-1.69,.95-2.54,1.37-4.36,.07-14.12-2.18-19.5-2.24-5.38-11.61-9.47-14.58-9.35-2.58,.1-3.51,1.23-4.66,2.02-.17-.81-.54-1.54-1.26-2.06-2.72-1.94-11.28-2.81-15.25,.16-3.97,2.98-4.91,4.59-7.96,8.86-3.06,4.27-4.05,14.74-3.75,16.97,.19,1.38,.76,3.58,1.42,5.46-1.31,.63-2.44,2.01-2.71,4.81-.23,2.31,.76,4.34,1.24,5.17,.48,2.07,1.75,4.32,3.93,4.67,.27,.98,.59,1.95,.95,2.88,.02,.06,.05,.12,.07,.18l.03,.08c1.55,3.93,3.89,7.37,6.74,9.98-.02,.41-.05,.8-.08,1.18-.33,3.24,.64,5.6-8.59,9.5-9.24,3.9-23.13,8.06-25.98,14.34-2.85,6.28-1.71,9.98-1.71,9.98h99.55s1.15-3.7-1.7-9.98h0Z"/><path class="d" d="M331.73,106.84c-2.85-6.4-16.74-10.64-25.98-14.62-9.23-3.98-7.97-6.39-8.3-9.69,0-.07-.01-.13-.02-.2,3.31-.96,8.73-3.15,11.54-7.33,3.97-5.91,2.9-13.56,3.15-17.59,.25-4.03,.44-13.15-1.3-20.17-1.74-7.02-3.94-13.57-8.05-17.2-4.1-3.63-7.38-3.38-9.37-2.79-.16-.59-.59-1.56-1.74-2.02-1.72-.69-10.97-2.68-19.7,1.94-8.73,4.62-12.38,13.87-14.57,22.37-2.2,8.49-3.32,17.75-1.29,28.3,1.79,9.32,9.92,12.63,14.14,13.72-.02,.33-.04,.66-.07,.98-.33,3.3,.64,5.71-8.59,9.69-9.23,3.98-23.13,8.21-25.98,14.62-2.85,6.4-1.71,10.17-1.71,10.17h99.55s1.15-3.77-1.7-10.17h0Z"/><g><path d="M316.99,164.42h-16.9c-.62,0-1.12,.5-1.12,1.12s.5,1.12,1.12,1.12h15.78v56.6h-43.1v-13.92c0-.62-.5-1.12-1.12-1.12s-1.12,.5-1.12,1.12v15.04c0,.3,.12,.58,.33,.79s.5,.33,.79,.33h45.35c.3,0,.58-.12,.79-.33s.33-.5,.33-.79v-58.85c0-.3-.12-.58-.33-.79s-.5-.33-.79-.33h0Z"/><path d="M295.59,144.87h-34.66s-.05,.01-.07,.01h0c-.1,0-.19,.02-.28,.05-.02,0-.05,0-.07,.02s-.02,.02-.04,.02h0c-.12,.05-.23,.13-.33,.22l-10.68,10.68h0c-.09,.1-.16,.21-.21,.33,0,.01-.02,.02-.02,.04,0,.01-.01,.06-.02,.08h0c-.03,.09-.05,.18-.05,.27,0,.03-.01,.05-.01,.08v48.16c0,.3,.12,.58,.33,.8,.21,.21,.5,.33,.79,.33h45.34c.3,0,.58-.12,.79-.33,.21-.21,.33-.5,.33-.8v-58.85c0-.3-.12-.58-.33-.79s-.5-.33-.79-.33h0Zm-39.21,7.26l3.42-3.42v6.84h-6.84l3.42-3.42Zm38.08,51.58h-43.09v-45.92h9.56c.3,0,.58-.12,.79-.33,.21-.21,.33-.5,.33-.79v-9.56h32.41v56.6Z"/><path d="M269.29,164.65h17.43c.62,0,1.12-.5,1.12-1.12s-.5-1.12-1.12-1.12h-17.43c-.62,0-1.12,.5-1.12,1.12s.5,1.12,1.12,1.12Z"/><path d="M286.73,167.95h-17.43c-.62,0-1.12,.5-1.12,1.12s.5,1.12,1.12,1.12h17.43c.62,0,1.12-.5,1.12-1.12s-.5-1.12-1.12-1.12Z"/><path d="M286.73,173.49h-27.61c-.62,0-1.12,.5-1.12,1.12s.5,1.12,1.12,1.12h27.61c.62,0,1.12-.5,1.12-1.12s-.5-1.12-1.12-1.12Z"/><path d="M259.12,181.28h22.17c.62,0,1.12-.5,1.12-1.12s-.5-1.12-1.12-1.12h-22.17c-.62,0-1.12,.5-1.12,1.12s.5,1.12,1.12,1.12h0Z"/><path d="M286.73,184.57h-27.61c-.62,0-1.12,.5-1.12,1.12s.5,1.12,1.12,1.12h27.61c.62,0,1.12-.5,1.12-1.12s-.5-1.12-1.12-1.12Z"/><path d="M286.73,190.12h-27.61c-.62,0-1.12,.5-1.12,1.12s.5,1.12,1.12,1.12h27.61c.62,0,1.12-.5,1.12-1.12s-.5-1.12-1.12-1.12Z"/><path d="M286.73,195.66h-27.61c-.62,0-1.12,.5-1.12,1.12s.5,1.12,1.12,1.12h27.61c.62,0,1.12-.5,1.12-1.12s-.5-1.12-1.12-1.12Z"/><path d="M286.73,219.62c.3,0,.58-.12,.79-.33s.33-.5,.33-.79v-5.59c0-.3-.12-.58-.33-.79s-.5-.33-.79-.33h-8.72c-.62,0-1.12,.5-1.12,1.12v5.59c0,.3,.12,.58,.33,.79,.21,.21,.5,.33,.79,.33h8.72Zm-7.59-5.59h6.47v3.34h-6.47v-3.34Z"/><path d="M291.19,212.9v5.59c0,.3,.12,.58,.33,.79s.5,.33,.79,.33h17.39c.3,0,.58-.12,.8-.33s.33-.5,.33-.79v-5.59c0-.3-.12-.58-.33-.79s-.5-.33-.8-.33h-17.39c-.62,0-1.12,.5-1.12,1.12Zm2.25,1.12h15.14v3.34h-15.14v-3.34Z"/><path d="M300.09,203.72c-.62,0-1.12,.5-1.12,1.12s.5,1.12,1.12,1.12h9.61c.3,0,.58-.12,.8-.33s.33-.5,.33-.79v-11.9c0-.3-.12-.58-.33-.79-.21-.21-.5-.33-.8-.33h-9.61c-.62,0-1.12,.5-1.12,1.12s.5,1.12,1.12,1.12h8.49v9.65h-8.49Z"/><path d="M300.09,188.79h9.61c.62,0,1.12-.5,1.12-1.12s-.5-1.12-1.12-1.12h-9.61c-.62,0-1.12,.5-1.12,1.12s.5,1.12,1.12,1.12Z"/><path d="M300.09,184h9.61c.62,0,1.12-.5,1.12-1.12s-.5-1.12-1.12-1.12h-9.61c-.62,0-1.12,.5-1.12,1.12s.5,1.12,1.12,1.12Z"/><path d="M300.09,179.21h9.61c.62,0,1.12-.5,1.12-1.12s-.5-1.12-1.12-1.12h-9.61c-.62,0-1.12,.5-1.12,1.12s.5,1.12,1.12,1.12Z"/><path d="M300.09,174.43h9.61c.62,0,1.12-.5,1.12-1.12s-.5-1.12-1.12-1.12h-9.61c-.62,0-1.12,.5-1.12,1.12s.5,1.12,1.12,1.12Z"/><path d="M302.1,147.75h19.71c.37,1.55,1.48,2.81,2.96,3.38,1.48,.57,3.15,.37,4.46-.53,1.31-.9,2.09-2.39,2.09-3.98s-.78-3.08-2.09-3.98c-1.31-.9-2.98-1.1-4.46-.53s-2.59,1.84-2.96,3.38h-19.71c-.62,0-1.12,.5-1.12,1.12s.5,1.12,1.12,1.12h0Zm24.39-3.7h0c.68,0,1.34,.27,1.82,.76,.48,.48,.76,1.14,.76,1.82,0,.68-.27,1.34-.76,1.82-.48,.48-1.14,.76-1.82,.76-.68,0-1.34-.27-1.82-.76-.48-.48-.76-1.14-.75-1.82,0-.68,.27-1.34,.76-1.82,.48-.48,1.14-.76,1.82-.76h0Z"/><path d="M328.83,162.25c-.89,0-1.76,.25-2.51,.73l-8.06-8.07c-.21-.21-.5-.33-.79-.33h-15.35c-.62,0-1.12,.5-1.12,1.12s.5,1.12,1.12,1.12h14.88l7.74,7.74h0c-.47,.75-.72,1.62-.73,2.51,0,1.28,.51,2.51,1.41,3.41,.91,.91,2.13,1.41,3.41,1.42,1.28,0,2.51-.51,3.41-1.41,.91-.91,1.41-2.13,1.41-3.41s-.51-2.51-1.41-3.41-2.13-1.41-3.41-1.41h0Zm0,7.41h0c-.68,0-1.34-.27-1.82-.75-.48-.48-.76-1.14-.76-1.82,0-.68,.27-1.34,.76-1.82,.48-.48,1.14-.76,1.82-.76,.68,0,1.34,.27,1.82,.76,.48,.48,.76,1.14,.76,1.82,0,.68-.27,1.34-.76,1.82-.48,.48-1.14,.76-1.82,.76h0Z"/><path d="M245.43,224.88h19.71c.62,0,1.12-.5,1.12-1.12s-.5-1.12-1.12-1.12h-19.71c-.37-1.55-1.48-2.81-2.96-3.38-1.48-.57-3.15-.37-4.46,.53-1.31,.9-2.09,2.39-2.09,3.98s.78,3.08,2.09,3.98c1.31,.9,2.98,1.1,4.46,.53s2.59-1.84,2.96-3.38h0Zm-7.26-1.12c0-.68,.27-1.34,.75-1.82,.48-.48,1.14-.76,1.82-.76,.68,0,1.34,.27,1.82,.76,.48,.48,.76,1.14,.76,1.82s-.27,1.34-.76,1.82c-.48,.48-1.14,.76-1.82,.76-.68,0-1.34-.27-1.82-.76s-.76-1.14-.76-1.82h0Z"/><path d="M238.41,198.49c-1.71,.03-3.27,.95-4.12,2.44-.85,1.48-.85,3.3,0,4.79,.85,1.48,2.41,2.41,4.12,2.44,.89,0,1.76-.25,2.51-.73l8.06,8.07c.21,.21,.5,.33,.79,.33h15.35c.62,0,1.12-.5,1.12-1.12s-.5-1.12-1.12-1.12h-14.88l-7.74-7.74h0c.47-.75,.72-1.62,.73-2.51,0-1.28-.51-2.51-1.42-3.41-.9-.91-2.13-1.41-3.41-1.42h0Zm-2.58,4.83c0-.68,.27-1.34,.76-1.82,.48-.48,1.14-.76,1.82-.76s1.34,.27,1.82,.76c.48,.48,.76,1.14,.76,1.82,0,.68-.27,1.34-.76,1.82-.48,.48-1.14,.76-1.82,.76-.68,0-1.34-.27-1.82-.76-.48-.48-.76-1.14-.76-1.82h0Z"/></g><path class="d" d="M99.57,332.28c-2.85-6.61-16.74-10.98-25.98-15.09-9.23-4.11-7.97-6.6-8.3-10-.02-.21-.04-.42-.05-.64,1.96-1.76,3.7-3.91,5.14-6.37,5.73,1.39,12.15,1.27,17.76-2.93-8.96-9.25-3.89-21.57-10.36-42.02-5.51-17.38-28.06-16.53-30.97-10.42-11.97-4.36-20.99,1.48-24.31,19.89-3.82,21.15,1.33,23.37-7.63,32.62,6.23,3.68,11.99,3.21,17.08,1.42,1.61,3.13,3.69,5.84,6.1,7.96-.01,.16-.03,.32-.04,.48-.33,3.41,.64,5.89-8.59,10-9.23,4.11-23.13,8.48-25.98,15.09-2.85,6.61-1.71,10.5-1.71,10.5H101.27s1.15-3.89-1.7-10.5h0Z"/><path class="d" d="M99.57,111.29c-2.85-6.4-16.74-10.64-25.98-14.61-9.23-3.98-7.97-6.39-8.3-9.69-.09-.92-.12-1.96-.12-2.98,2.7-2.24,5.03-4.96,6.46-8.67,0,0,.09-.22,.11-.29,.35-.94,.5-3.66,.77-4.66,2.12-.42,3.35-2.66,3.82-4.74,.48-.84,1.47-2.91,1.24-5.27-.29-3.03-1.54-4.43-2.95-5.01,0-.18,0-.36,0-.52,0-.53,0-1.06-.02-1.59,.4-2.8,.74-5.57,.74-7.15,0-2.07-.45-6.16-1.85-9.92l.03,.02-1.84-3.93-.32-1.58-1.58-.45c-.09-.08-.17-.15-.26-.22,.19-.38-1.35-1.51-.02-1.96-.57-.79-3.38-.33-3.38-.33,0,0-.42-2.73-1.11-3.1-.36,.5-1.76,.35-2.91,.26-4.35-.57-1.66-4.28-6.15-4.69,.02-1.75-.02-3.16-.02-3.16,0,0-2.28,1.91-3.12,1.16-.51-1.76,.68-3.98,.68-3.98,0,0-3.29,.04-4.07,3.3-.69-.94,.11-2.4,.65-3.12-4.17,1.41-5.5,4.55-7.17,6.55-.22,.27-.83-.93-.76-1.67-1.62,.76-2.61,5.15-3.34,5.46-.73,.31-2.22-.93-2.33-1.43-1.53,.11-5.13,7.47-5.13,7.47l-3.55,3.55s1.8-.13,1.89,.51c.09,.65-2.63,5.46-2.63,5.46,0,0,1.47-.85,1.63-.36,.15,.49-.03,.16-.04,.25l-2.14,5.72,1.5-.58c-.18,2.09-.27,4.14-.27,5.99s.07,3.15,.18,4.27c-1.21,.69-2.24,2.09-2.5,4.79-.23,2.35,.76,4.42,1.24,5.27,.48,2.11,1.75,4.4,3.93,4.76,.27,1,.72,3.46,1.07,4.41,.02,.06,.05,.12,.07,.18l.03,.08c1.46,3.76,3.69,6.48,6.35,8.74,.01,1.08-.02,2.19-.11,3.17-.33,3.3,.64,5.71-8.59,9.69-9.23,3.98-23.13,8.21-25.98,14.61-2.85,6.4-1.71,10.17-1.71,10.17H101.27s1.15-3.77-1.7-10.17h0Z"/><g><path d="M17.34,194.34v20.19H57.71v-20.19c0-4.35-3.42-7.77-7.77-7.77H25.1c-4.35,0-7.77,3.42-7.77,7.77Zm37.27,0v17.08H20.44v-17.08c0-2.64,2.02-4.66,4.66-4.66h24.85c2.64,0,4.66,2.02,4.66,4.66Z"/><path d="M48.4,172.6c0-6.06-4.81-10.87-10.87-10.87s-10.87,4.81-10.87,10.87,4.81,10.87,10.87,10.87,10.87-4.81,10.87-10.87Zm-18.64,0c0-4.35,3.42-7.77,7.77-7.77s7.77,3.42,7.77,7.77-3.42,7.77-7.77,7.77-7.77-3.42-7.77-7.77Z"/><path d="M81.01,208.32c-2.64,0-4.66,2.02-4.66,4.66,0,2.02,1.24,3.73,3.11,4.35v6.52h3.11v-6.52c1.86-.62,3.11-2.33,3.11-4.35,0-2.64-2.02-4.66-4.66-4.66Zm0,6.21c-.93,0-1.55-.62-1.55-1.55s.62-1.55,1.55-1.55,1.55,.62,1.55,1.55-.62,1.55-1.55,1.55Z"/><path d="M8.02,226.96v-86.97H49.95v18.64h17.08v34.17c0-3.26,1.24-6.37,3.11-8.7v-27.64l-18.02-19.57H4.91v93.18H62.37c-.62-.93-1.09-2.02-1.4-3.11H8.02Zm45.04-84.64l11.96,13.2h-11.96v-13.2Z"/><path d="M93.43,202.11h-1.55v-9.32c0-6.06-4.81-10.87-10.87-10.87s-10.87,4.81-10.87,10.87v9.32h-1.55c-2.64,0-4.66,2.02-4.66,4.66v18.64c0,2.64,2.02,4.66,4.66,4.66h24.85c2.64,0,4.66-2.02,4.66-4.66v-18.64c0-2.64-2.02-4.66-4.66-4.66Zm-20.19-9.32c0-4.35,3.42-7.77,7.77-7.77s7.77,3.42,7.77,7.77v9.32h-15.53v-9.32Zm21.74,32.61c0,.93-.62,1.55-1.55,1.55h-24.85c-.93,0-1.55-.62-1.55-1.55v-18.64c0-.93,.62-1.55,1.55-1.55h24.85c.93,0,1.55,.62,1.55,1.55v18.64Z"/></g></g></g></svg>